<?xml version="1.0" encoding="UTF-8" standalone="no"?>
<svg width="472px" height="87px" viewBox="0 0 472 87" version="1.1" xmlns="http://www.w3.org/2000/svg" xmlns:xlink="http://www.w3.org/1999/xlink">
    <!-- Generator: Sketch 3.6.1 (26313) - http://www.bohemiancoding.com/sketch -->
    <title>carceropolis-logo_logo</title>
    <desc>Created with Sketch.</desc>
    <defs></defs>
    <g id="Stickersheet" stroke="none" stroke-width="1" fill="none" fill-rule="evenodd">
        <g id="-DESK-HOME" transform="translate(-447.000000, -233.000000)">
            <g id="carceropolis-logo_logo" transform="translate(447.000000, 233.000000)">
                <g id="Group">
                    <g transform="translate(16.000000, 2.000000)" id="Shape" fill="#FFFFFF">
                        <path d="M24.6,34.5 C24.6,27 21,25.5 17.5,25.5 C14.1,25.5 10.5,27.4 10.5,33.2 L10.5,51.2 C10.5,57.2 14.1,59 17.5,59 C22.1,59 24.6,56.8 24.6,49.4 L24.6,48.8 L34.5,48.8 C34.5,61.8 29,68.6 17.6,68.6 C7.7,68.6 0.8,61.4 0.8,51 L0.8,33.5 C0.8,23.2 7.7,16 17.6,16 C28.8,16 34.5,23.4 34.5,35.2 L24.6,35.2 L24.6,34.5 L24.6,34.5 Z"></path>
                        <path d="M64.4,57.7 L49.8,57.7 L47.1,67.7 L37,67.7 L51.8,17 L62.5,17 L77,67.8 L67,67.8 L64.4,57.7 L64.4,57.7 Z M51.9,49.1 L62.3,49.1 L57.2,29.2 L51.9,49.1 L51.9,49.1 Z"></path>
                        <path d="M81.6,67.7 L81.6,17 L97.6,17 C107.7,17 114.4,23.6 114.4,35.4 L114.4,36.8 C114.4,44.6 111,49.9 105.6,52.4 L114.1,67.8 L103.3,67.8 L96.5,54.7 L91.4,54.7 L91.4,67.8 L81.6,67.8 L81.6,67.7 Z M91.5,26.5 L91.5,45.2 L96.4,45.2 C100.7,45.2 104.7,43.3 104.7,36.6 L104.7,35.2 C104.7,28.2 100.9,26.5 96.4,26.5 L91.5,26.5 L91.5,26.5 Z"></path>
                        <path d="M144.1,34.5 C144.1,27 140.5,25.5 137,25.5 C133.6,25.5 130,27.4 130,33.2 L130,51.2 C130,57.2 133.6,59 137,59 C141.6,59 144.1,56.8 144.1,49.4 L144.1,48.8 L154,48.8 C154,61.8 148.5,68.6 137.1,68.6 C127.2,68.6 120.3,61.4 120.3,51 L120.3,33.5 C120.3,23.2 127.2,16 137.1,16 C148.3,16 154,23.4 154,35.2 L144.1,35.2 L144.1,34.5 L144.1,34.5 Z"></path>
                        <path d="M189,26.5 L170.6,26.5 L170.6,38 L184.2,38 L184.2,46.6 L170.6,46.6 L170.6,58.1 L189,58.1 L189,67.6 L160.8,67.6 L160.8,17 L189,17 L189,26.5 L189,26.5 Z"></path>
                        <path d="M196.4,67.7 L196.4,17 L212.4,17 C222.5,17 229.2,23.6 229.2,35.4 L229.2,36.8 C229.2,44.6 225.8,49.9 220.4,52.4 L228.9,67.8 L218.1,67.8 L211.3,54.7 L206.2,54.7 L206.2,67.8 L196.4,67.8 L196.4,67.7 Z M206.2,26.5 L206.2,45.2 L211.1,45.2 C215.4,45.2 219.4,43.3 219.4,36.6 L219.4,35.2 C219.4,28.2 215.6,26.5 211.1,26.5 L206.2,26.5 L206.2,26.5 Z"></path>
                        <path d="M235,50.9 L235,33.7 C235,23.3 241.9,16.1 251.8,16.1 C261.7,16.1 268.7,23.4 268.7,33.7 L268.7,51 C268.7,61.3 261.7,68.5 251.8,68.5 C241.9,68.4 235,61.2 235,50.9 L235,50.9 Z M258.9,51.3 L258.9,33.3 C258.9,27.6 255.6,25.5 251.8,25.5 C248.3,25.5 244.8,27.4 244.8,33.2 L244.8,51.2 C244.8,56.9 248.1,58.9 251.8,58.9 C255.2,58.9 258.9,57.1 258.9,51.3 L258.9,51.3 Z M247.3,11.5 L251.8,0.2 L262,0.2 L254.5,11.5 L247.3,11.5 L247.3,11.5 Z"></path>
                        <path d="M275.9,67.7 L275.9,17 L291.7,17 C301.6,17 308.8,23.6 308.8,35.4 L308.8,37.4 C308.8,49.4 301.7,55.6 291.7,55.6 L285.8,55.6 L285.8,67.7 L275.9,67.7 L275.9,67.7 Z M285.7,26.5 L285.7,46.2 L290.6,46.2 C294.9,46.2 299,44.2 299,37.3 L299,35.4 C299,27.9 294.8,26.4 290.6,26.4 L285.7,26.4 L285.7,26.5 Z"></path>
                        <path d="M314.4,50.9 L314.4,33.7 C314.4,23.3 321.3,16.1 331.2,16.1 C341.1,16.1 348.1,23.4 348.1,33.7 L348.1,51 C348.1,61.3 341.1,68.5 331.2,68.5 C321.4,68.4 314.4,61.2 314.4,50.9 L314.4,50.9 Z M338.3,51.3 L338.3,33.3 C338.3,27.6 335,25.5 331.2,25.5 C327.7,25.5 324.2,27.4 324.2,33.2 L324.2,51.2 C324.2,56.9 327.5,58.9 331.2,58.9 C334.7,58.9 338.3,57.1 338.3,51.3 L338.3,51.3 Z"></path>
                        <path d="M382.3,67.7 L355.7,67.7 L355.7,17 L365.6,17 L365.6,58.3 L382.3,58.3 L382.3,67.7 L382.3,67.7 Z"></path>
                        <path d="M398.1,67.7 L388.2,67.7 L388.2,17 L398.1,17 L398.1,67.7 L398.1,67.7 Z"></path>
                        <path d="M405.7,30.9 C405.7,21.6 412.3,16 422.2,16 C431.9,16 438.6,22.6 438.6,33 L428.9,33 C428.9,27.6 426.3,25.1 422.1,25.1 C417.9,25.1 415.5,27.1 415.5,30.9 C415.5,41 439.3,35 439.3,53.1 C439.3,62.7 432.5,68.5 422.2,68.5 C412,68.6 405,61.9 405,51 L414.8,51 C414.8,56.9 417.8,59.4 422.1,59.4 C426.3,59.4 429.3,57.5 429.3,53.3 C429.4,43.6 405.7,48.9 405.7,30.9 L405.7,30.9 Z"></path>
                    </g>
                    <path d="M465.2,79.5 L0.2,79.5 L0.2,0.5 L264.5,0.5 L261.7,7.5 L6.8,7.3 L6.8,72.7 L458.7,72.7 L458.7,7.3 L279,7.3 L283.6,0.5 L465.2,0.5 L465.2,79.5 Z" id="Shape" fill="#EA702E"></path>
                    <path d="M471.8,86.4 L6.8,86.4 L6.8,7.3 L261.7,7.3 L259,14.3 L13.3,14.2 L13.3,79.5 L465.2,79.5 L465.2,14.2 L274.4,14.2 L279,7.3 L471.8,7.3 L471.8,86.4 Z" id="Shape" fill="#9C0009"></path>
                    <rect id="Rectangle-path" fill="#870020" x="458.7" y="7.3" width="6.6" height="6.9"></rect>
                    <rect id="Rectangle-path" fill="#870020" x="6.8" y="72.7" width="6.6" height="6.9"></rect>
                </g>
            </g>
        </g>
    </g>
</svg>