
<svg width="248px" height="100px" viewBox="588 201 248 100" version="1.1" xmlns="http://www.w3.org/2000/svg" xmlns:xlink="http://www.w3.org/1999/xlink">
    <!-- Generator: Sketch 39.1 (31720) - http://www.bohemiancoding.com/sketch -->
    <desc>Created with Sketch.</desc>
    <defs></defs>
    <g id="conectas-logo" stroke="none" stroke-width="1" fill="none" fill-rule="evenodd" transform="translate(588.000000, 201.000000)">
        <path d="M35.2042194,92.2088608 C34.7776371,92.2088608 34.3253165,92.2219409 34.0151899,92.2476793 L34.0151899,98.5915612 C34.2995781,98.6303797 34.7261603,98.6561181 35.0620253,98.6561181 C36.935443,98.6561181 38.2535865,97.6616034 38.2535865,95.4261603 C38.2535865,93.3590717 37.335865,92.2088608 35.2042194,92.2088608 L35.2042194,92.2088608 Z M34.9198312,99.8578059 C34.02827,99.8578059 33.2919831,99.8185654 32.607173,99.8059072 L32.607173,91.0978903 C33.2919831,91.0852321 34.2995781,91.0464135 35.3075949,91.0464135 C38.0594937,91.0464135 39.7518987,92.2995781 39.7518987,95.3227848 C39.7518987,98.3198312 37.7624473,99.8578059 34.9198312,99.8578059 L34.9198312,99.8578059 Z" id="Fill-3" fill="#FFFFFF"></path>
        <polygon id="Fill-4" fill="#FFFFFF" points="45.6308017 99.8059072 47.0388186 99.8059072 47.0388186 91.0852321 45.6308017 91.0852321"></polygon>
        <path d="M55.7831224,92.1831224 C55.5118143,92.1831224 55.2535865,92.1962025 55.0468354,92.2088608 L55.0468354,94.9738397 C55.1759494,94.9864979 55.421519,94.9995781 55.7312236,94.9995781 C56.8683544,94.9995781 57.5531646,94.4185654 57.5531646,93.5527426 C57.5531646,92.5966245 56.9590717,92.1831224 55.7831224,92.1831224 L55.7831224,92.1831224 Z M57.8244726,99.8059072 L55.1113924,96.0337553 L55.0468354,96.0337553 L55.0468354,99.8059072 L53.6383966,99.8059072 L53.6383966,91.0852321 C54.271308,91.0464135 54.9949367,91.0333333 55.9767932,91.0333333 C57.7860759,91.0333333 59.0265823,91.6662447 59.0265823,93.3974684 C59.0265823,94.792827 57.9797468,95.6843882 56.5582278,95.8392405 C56.8037975,96.149789 57.0751055,96.485654 57.2949367,96.7700422 L59.5945148,99.8059072 L57.8244726,99.8059072 L57.8244726,99.8059072 Z" id="Fill-5" fill="#FFFFFF"></path>
        <polyline id="Fill-6" fill="#FFFFFF" points="65.3029536 99.8059072 65.3029536 91.0852321 69.9021097 91.0852321 69.9021097 92.2607595 66.7109705 92.2607595 66.7109705 94.7409283 69.7472574 94.7409283 69.7472574 95.8915612 66.7109705 95.8915612 66.7109705 98.6042194 69.9021097 98.6042194 69.9021097 99.8059072 65.3029536 99.8059072"></polyline>
        <polygon id="Fill-7" fill="#FFFFFF" points="76.0649789 99.8059072 77.4734177 99.8059072 77.4734177 91.0852321 76.0649789 91.0852321"></polygon>
        <polyline id="Fill-8" fill="#FFFFFF" points="86.7113924 92.2734177 86.7113924 99.8059072 85.3029536 99.8059072 85.3029536 92.2734177 82.9126582 92.2734177 82.9126582 91.0852321 89.114346 91.0852321 89.114346 92.2734177 86.7113924 92.2734177"></polyline>
        <path d="M97.692827,92.1962025 C96.3493671,92.1962025 95.1350211,93.2810127 95.1350211,95.3742616 C95.1350211,97.3510549 95.9485232,98.6818565 97.6670886,98.6818565 C98.9590717,98.6818565 100.251477,97.6485232 100.251477,95.4776371 C100.251477,93.37173 99.3206751,92.1962025 97.692827,92.1962025 L97.692827,92.1962025 Z M97.5637131,99.9350211 C94.9151899,99.9350211 93.635865,98.2164557 93.635865,95.5421941 C93.635865,92.6485232 95.5223629,90.9556962 97.8219409,90.9556962 C100.17384,90.9556962 101.749789,92.4156118 101.749789,95.335443 C101.749789,98.2295359 99.8763713,99.9350211 97.5637131,99.9350211 L97.5637131,99.9350211 Z" id="Fill-9" fill="#FFFFFF"></path>
        <path d="M109.114768,99.9350211 C108.481435,99.9350211 107.861181,99.8578059 107.357384,99.72827 L107.435021,98.3974684 C107.925738,98.578903 108.61097,98.721097 109.243882,98.721097 C110.199578,98.721097 110.974684,98.3198312 110.974684,97.3772152 C110.974684,95.5421941 107.163713,96.3172996 107.163713,93.5008439 C107.163713,92.0021097 108.339241,90.9556962 110.367932,90.9556962 C110.884388,90.9556962 111.414346,91.0206751 111.944304,91.1109705 L111.866667,92.364135 C111.362447,92.2088608 110.807173,92.1185654 110.290295,92.1185654 C109.205063,92.1185654 108.649367,92.6223629 108.649367,93.3455696 C108.649367,95.0898734 112.461181,94.4443038 112.461181,97.1704641 C112.461181,98.7725738 111.194515,99.9350211 109.114768,99.9350211" id="Fill-10" fill="#FFFFFF"></path>
        <polyline id="Fill-11" fill="#FFFFFF" points="131.078903 99.8059072 131.078903 95.8915612 126.957384 95.8915612 126.957384 99.8059072 125.548945 99.8059072 125.548945 91.0852321 126.957384 91.0852321 126.957384 94.6894515 131.078903 94.6894515 131.078903 91.0852321 132.474262 91.0852321 132.474262 99.8059072 131.078903 99.8059072"></polyline>
        <path d="M142.381857,99.9350211 C139.642616,99.9350211 139.061603,98.4362869 139.061603,96.8341772 L139.061603,91.0852321 L140.46962,91.0852321 L140.46962,96.7312236 C140.46962,97.8940928 140.856962,98.7725738 142.472574,98.7725738 C143.893671,98.7725738 144.539241,98.1780591 144.539241,96.549789 L144.539241,91.0852321 L145.921941,91.0852321 L145.921941,96.4468354 C145.921941,98.7725738 144.668776,99.9350211 142.381857,99.9350211" id="Fill-12" fill="#FFFFFF"></path>
        <path d="M160.598734,99.8059072 L159.913924,95.1679325 C159.77173,94.2375527 159.706751,93.6046414 159.642194,93.035443 L159.616878,93.035443 C159.51308,93.5265823 159.383966,94.0953586 159.164135,94.7409283 L157.523207,99.8059072 L156.063713,99.8059072 L154.5,95.1029536 C154.267511,94.4185654 154.047679,93.6687764 153.944304,93.035443 L153.918565,93.035443 C153.866667,93.7852321 153.776793,94.4700422 153.686076,95.2966245 L153.13038,99.8059072 L151.696624,99.8059072 L153.001688,91.0852321 L154.680591,91.0852321 L156.360759,96.1236287 C156.567511,96.7565401 156.735021,97.3383966 156.838397,97.907173 L156.864135,97.907173 C156.993671,97.2611814 157.135865,96.821519 157.342616,96.1755274 L159.060759,91.0852321 L160.753586,91.0852321 L162.083966,99.8059072 L160.598734,99.8059072" id="Fill-13" fill="#FFFFFF"></path>
        <path d="M171.270886,94.0177215 C171.102532,93.5654008 170.986498,93.1518987 170.883122,92.6742616 L170.856962,92.6742616 C170.766667,93.1135021 170.624473,93.5911392 170.456962,94.0565401 L169.474684,96.7565401 L172.265401,96.7565401 L171.270886,94.0177215 L171.270886,94.0177215 Z M173.311814,99.8059072 L172.640506,97.8810127 L169.112658,97.8810127 L168.440928,99.8059072 L167.019831,99.8059072 L170.146414,91.0852321 L171.710127,91.0852321 L174.875527,99.8059072 L173.311814,99.8059072 L173.311814,99.8059072 Z" id="Fill-14" fill="#FFFFFF"></path>
        <path d="M185.534177,99.8059072 L182.549789,94.8443038 C182.162447,94.2118143 181.852321,93.5911392 181.581013,93.0101266 C181.632489,93.8628692 181.65865,95.6329114 181.65865,96.8729958 L181.65865,99.8059072 L180.28903,99.8059072 L180.28903,91.0852321 L182.136709,91.0852321 L185.017722,95.8392405 C185.405485,96.485654 185.75443,97.1831224 186.077215,97.8164557 C186.025316,96.821519 185.98692,94.9476793 185.98692,93.6687764 L185.98692,91.0852321 L187.35654,91.0852321 L187.35654,99.8059072 L185.534177,99.8059072" id="Fill-15" fill="#FFFFFF"></path>
        <path d="M197.253586,92.1962025 C195.909705,92.1962025 194.694937,93.2810127 194.694937,95.3742616 C194.694937,97.3510549 195.509283,98.6818565 197.227426,98.6818565 C198.519831,98.6818565 199.811392,97.6485232 199.811392,95.4776371 C199.811392,93.37173 198.881435,92.1962025 197.253586,92.1962025 L197.253586,92.1962025 Z M197.124051,99.9350211 C194.475527,99.9350211 193.196203,98.2164557 193.196203,95.5421941 C193.196203,92.6485232 195.0827,90.9556962 197.382278,90.9556962 C199.734177,90.9556962 201.310549,92.4156118 201.310549,95.335443 C201.310549,98.2295359 199.436709,99.9350211 197.124051,99.9350211 L197.124051,99.9350211 Z" id="Fill-16" fill="#FFFFFF"></path>
        <path d="M208.674684,99.9350211 C208.041772,99.9350211 207.421519,99.8578059 206.917722,99.72827 L206.995359,98.3974684 C207.486076,98.578903 208.171308,98.721097 208.804219,98.721097 C209.759916,98.721097 210.535443,98.3198312 210.535443,97.3772152 C210.535443,95.5421941 206.723629,96.3172996 206.723629,93.5008439 C206.723629,92.0021097 207.899578,90.9556962 209.92827,90.9556962 C210.444726,90.9556962 210.974684,91.0206751 211.504219,91.1109705 L211.426582,92.364135 C210.922785,92.2088608 210.367511,92.1185654 209.850211,92.1185654 C208.765401,92.1185654 208.209283,92.6223629 208.209283,93.3455696 C208.209283,95.0898734 212.021519,94.4443038 212.021519,97.1704641 C212.021519,98.7725738 210.754852,99.9350211 208.674684,99.9350211" id="Fill-17" fill="#FFFFFF"></path>
        <path d="M26.9556962,77.7092827 C24.0320675,79.6316456 20.3481013,80.5130802 16.3434599,80.5130802 C6.97257384,80.5135021 0.364556962,75.1877637 0.364135021,68.5396624 C0.36371308,61.8924051 6.97130802,56.5654008 16.3421941,56.5649789 C20.3869198,56.5649789 24.0708861,57.485654 26.9548523,59.4080169 L26.9548523,62.5316456 C24.4316456,60.8097046 20.5075949,59.3683544 16.3421941,59.3687764 C9.41434599,59.3687764 4.08818565,63.4139241 4.08818565,68.5396624 C4.08902954,73.6658228 9.41518987,77.7101266 16.3434599,77.7097046 C20.5080169,77.7097046 24.3924051,76.3075949 26.9556962,74.5459916 L26.9556962,77.7092827" id="Fill-18" fill="#FFFFFF"></path>
        <path d="M46.8970464,59.3670886 C39.9691983,59.3670886 34.6434599,63.0122363 34.6434599,68.5379747 C34.6438819,74.1046414 40.0101266,77.7088608 46.8978903,77.7088608 C53.8662447,77.7080169 59.1924051,74.1033755 59.1919831,68.5371308 C59.1915612,63.0109705 53.8253165,59.3666667 46.8970464,59.3670886 L46.8970464,59.3670886 Z M46.8978903,80.5113924 C37.607173,80.5113924 30.9594937,75.6265823 30.9590717,68.5383966 C30.9586498,61.450211 37.6059072,56.564557 46.8970464,56.5637131 C56.1877637,56.5628692 62.8763713,61.4489451 62.8763713,68.5371308 C62.8767932,75.6248945 56.3894515,80.5109705 46.8978903,80.5113924 L46.8978903,80.5113924 Z" id="Fill-19" fill="#FFFFFF"></path>
        <polyline id="Fill-20" fill="#FFFFFF" points="71.9257384 62.9303797 71.9261603 79.7097046 68.4025316 79.7097046 68.4012658 56.5628692 91.6291139 74.3814346 91.62827 57.3624473 95.1118143 57.3624473 95.1130802 80.5088608 71.9257384 62.9303797"></polyline>
        <polyline id="Fill-21" fill="#FFFFFF" points="101.960338 79.7080169 101.959072 57.3620253 124.465401 57.3603376 124.465401 60.2042194 105.483544 60.2046414 105.483544 66.7324895 121.262447 66.7316456 121.262447 69.5350211 105.443882 69.5362869 105.444304 76.9042194 124.466667 76.9033755 124.466667 79.7067511 101.960338 79.7080169"></polyline>
        <path d="M154.5,77.7025316 C151.576793,79.6253165 147.892827,80.5067511 143.888608,80.5067511 C134.5173,80.507173 127.909705,75.1818565 127.909283,68.5337553 C127.908861,61.885654 134.516034,56.5594937 143.88692,56.5594937 C147.931224,56.5586498 151.616034,57.4793249 154.499578,59.4016878 L154.499578,62.5248945 C151.976371,60.8033755 148.051899,59.3616034 143.887342,59.3624473 C136.959494,59.3624473 131.633333,63.4075949 131.633755,68.5337553 C131.633755,73.6594937 136.959916,77.7042194 143.888186,77.7029536 C148.052743,77.7029536 151.937131,76.3021097 154.5,74.5392405 L154.5,77.7025316" id="Fill-22" fill="#FFFFFF"></path>
        <polyline id="Fill-23" fill="#FFFFFF" points="169.516456 79.7042194 169.516034 60.2016878 158.223207 60.2021097 158.223207 57.3590717 184.293249 57.3578059 184.293249 60.2012658 172.959916 60.2016878 172.960759 79.7042194 169.516456 79.7042194"></polyline>
        <path d="M196.147257,62.2827004 L190.661603,71.0135021 L201.633755,71.0130802 L196.147257,62.2827004 L196.147257,62.2827004 Z M207.000422,79.7021097 L203.316034,73.8556962 L188.978903,73.856962 L185.295359,79.7037975 L181.250211,79.7037975 L196.146835,56.5565401 L211.085232,79.7021097 L207.000422,79.7021097 L207.000422,79.7021097 Z" id="Fill-24" fill="#FFFFFF"></path>
        <path d="M235.031224,61.1194093 C232.348101,59.9987342 229.184388,59.3974684 225.700844,59.3983122 C222.937131,59.3983122 217.370464,59.5185654 217.370886,62.8025316 C217.370886,68.2088608 236.713502,64.0029536 236.713502,73.6535865 C236.713924,79.5008439 230.066245,80.5021097 224.459916,80.5029536 C220.735865,80.5029536 216.530802,79.8223629 213.326582,78.6206751 L213.367089,75.5371308 C216.570886,76.8590717 220.895781,77.6991561 224.339662,77.6991561 C228.504219,77.6991561 233.229958,77.0582278 233.229536,73.6544304 C233.229114,67.5670886 213.887764,72.0135021 213.88692,62.8029536 C213.88692,57.5160338 220.213924,56.5552743 225.700422,56.5548523 C229.504641,56.5548523 232.868776,57.3156118 235.191139,58.2763713 L235.031224,61.1194093" id="Fill-25" fill="#FFFFFF"></path>
        <path d="M208.490295,10.7679325 L206.47384,8.792827 C203.991561,11.921097 202.329114,15.7042194 201.805907,19.8291139 L204.641772,19.8291139 C205.132489,16.4628692 206.490295,13.3675105 208.490295,10.7679325" id="Fill-26" fill="#FFFFFF"></path>
        <path d="M221.806751,3.06413502 L221.806751,0.229957806 C217.567089,0.743881857 213.680591,2.39156118 210.475105,4.85485232 L212.502954,6.84092827 C215.170042,4.8742616 218.349367,3.54092827 221.806751,3.06413502" id="Fill-27" fill="#FFFFFF"></path>
        <path d="M238.7827,4.8350211 C235.567089,2.37130802 231.670042,0.727848101 227.419831,0.223628692 L227.419831,3.05654008 C230.888186,3.52489451 234.078481,4.85400844 236.755274,6.82067511 L238.7827,4.8350211" id="Fill-28" fill="#FFFFFF"></path>
        <path d="M204.643038,25.4421941 L201.807173,25.4421941 C202.331224,29.5658228 203.994515,33.3468354 206.477215,36.4742616 L208.494093,34.4991561 C206.493671,31.9008439 205.134599,28.8063291 204.643038,25.4421941" id="Fill-29" fill="#FFFFFF"></path>
        <path d="M210.479747,40.4105485 C213.68481,42.87173 217.569198,44.5185654 221.806751,45.0312236 L221.806751,42.1978903 C218.351477,41.721097 215.173418,40.3894515 212.507173,38.4244726 L210.479747,40.4105485" id="Fill-30" fill="#FFFFFF"></path>
        <path d="M244.643038,19.8291139 L247.479325,19.8291139 C246.954852,15.6919831 245.284388,11.8995781 242.790295,8.76624473 L240.772996,10.7417722 C242.78481,13.3468354 244.150633,16.4518987 244.643038,19.8291139" id="Fill-31" fill="#FFFFFF"></path>
        <path d="M240.770042,34.5248945 L242.78692,36.5008439 C245.281013,33.3683544 246.952321,29.5776371 247.478481,25.4421941 L244.642194,25.4421941 C244.148523,28.8181435 242.781435,31.921519 240.770042,34.5248945" id="Fill-32" fill="#FFFFFF"></path>
        <path d="M227.419831,42.2050633 L227.419831,45.0379747 C231.667932,44.5345992 235.563713,42.8915612 238.778059,40.4308017 L236.750633,38.4451477 C234.075105,40.4092827 230.886076,41.7367089 227.419831,42.2050633" id="Fill-33" fill="#FFFFFF"></path>
        <polyline id="Fill-34" fill="#FFFFFF" points="209.381857 6.207173 207.909283 7.71054852 221.178059 20.7097046 220.967511 17.5565401 209.381857 6.207173"></polyline>
        <polyline id="Fill-35" fill="#FFFFFF" points="241.37173 7.71054852 239.898312 6.207173 228.381857 17.4911392 228.159916 20.6556962 241.37173 7.71054852"></polyline>
        <polyline id="Fill-36" fill="#FFFFFF" points="225.694515 14.8873418 225.694515 0.469620253 223.589451 0.469620253 223.589451 14.8396624 224.648523 15.9518987 225.694515 14.8873418"></polyline>
        <polyline id="Fill-37" fill="#FFFFFF" points="202.018143 21.5793249 202.018143 23.6843882 221.376793 23.6843882 221.235865 21.5793249 202.018143 21.5793249"></polyline>
        <polyline id="Fill-38" fill="#FFFFFF" points="247.260759 23.6843882 247.260759 21.5793249 228.094937 21.5793249 227.947679 23.6843882 247.260759 23.6843882"></polyline>
        <polyline id="Fill-39" fill="#FFFFFF" points="207.908861 37.5506329 209.382278 39.0540084 221.603376 27.0801688 221.418565 24.3135021 207.908861 37.5506329"></polyline>
        <polyline id="Fill-40" fill="#FFFFFF" points="227.707595 27.1063291 239.903376 39.0540084 241.375949 37.550211 227.900844 24.3493671 227.707595 27.1063291"></polyline>
        <path d="M224.646835,40.1523207 L224.626582,19.3991561 L225.847257,18.0088608 L224.646835,40.1523207 L224.646835,40.1523207 Z M224.634599,17.7050633 L222.01519,14.9544304 L224.18903,47.5059072 L225.054852,47.4991561 L227.337131,14.9544304 L224.634599,17.7050633 L224.634599,17.7050633 Z" id="Fill-41" fill="#FFFFFF"></path>
    </g>
</svg>