<?xml version="1.0" encoding="UTF-8" standalone="no"?>
<svg width="20px" height="20px" viewBox="0 0 20 20" version="1.1" xmlns="http://www.w3.org/2000/svg" xmlns:xlink="http://www.w3.org/1999/xlink">
    <!-- Generator: Sketch 39.1 (31720) - http://www.bohemiancoding.com/sketch -->
    <title>dadosicon-</title>
    <desc>Created with Sketch.</desc>
    <defs></defs>
    <g id="Stickersheet" stroke="none" stroke-width="1" fill="none" fill-rule="evenodd">
        <g id="MENU" transform="translate(-16.000000, -99.000000)">
            <g id="menu-lateral">
                <g id="icones" transform="translate(14.000000, 97.000000)">
                    <g id="dados">
                        <path d="M19.7777778,2 L4.22222222,2 C3,2 2,3 2,4.22222222 L2,19.7777778 C2,21 3,22 4.22222222,22 L19.7777778,22 C21,22 22,21 22,19.7777778 L22,4.22222222 C22,3 21,2 19.7777778,2 L19.7777778,2 Z M8.66666667,17.5555556 L6.44444444,17.5555556 L6.44444444,9.77777778 L8.66666667,9.77777778 L8.66666667,17.5555556 L8.66666667,17.5555556 Z M13.1111111,17.5555556 L10.8888889,17.5555556 L10.8888889,6.44444444 L13.1111111,6.44444444 L13.1111111,17.5555556 L13.1111111,17.5555556 Z M17.5555556,17.5555556 L15.3333333,17.5555556 L15.3333333,13.1111111 L17.5555556,13.1111111 L17.5555556,17.5555556 L17.5555556,17.5555556 Z" id="Shape" fill="#EA702E"></path>
                        <rect id="Rectangle-436" x="0" y="0" width="24" height="24"></rect>
                    </g>
                </g>
            </g>
        </g>
    </g>
</svg>