<?xml version="1.0" encoding="UTF-8" standalone="no"?>
<svg width="23px" height="15px" viewBox="0 0 23 15" version="1.1" xmlns="http://www.w3.org/2000/svg" xmlns:xlink="http://www.w3.org/1999/xlink">
    <!-- Generator: Sketch 39.1 (31720) - http://www.bohemiancoding.com/sketch -->
    <title>especialistasicon-</title>
    <desc>Created with Sketch.</desc>
    <defs></defs>
    <g id="Stickersheet" stroke="none" stroke-width="1" fill="none" fill-rule="evenodd">
        <g id="MENU" transform="translate(-17.000000, -504.000000)">
            <g id="menu-lateral">
                <g id="icones" transform="translate(14.000000, 97.000000)">
                    <g id="especialistas" transform="translate(3.000000, 402.000000)">
                        <rect id="Rectangle-436" x="0" y="0" width="24" height="24"></rect>
                        <path d="M20.9090909,19.6363636 L23,19.6363636 L23,5 L20.9090909,5 L20.9090909,19.6363636 Z M16.7272727,19.6363636 L18.8181818,19.6363636 L18.8181818,5 L16.7272727,5 L16.7272727,19.6363636 Z M13.5909091,5 L1.04545455,5 C0.470454545,5 0,5.47045455 0,6.04545455 L0,18.5909091 C0,19.1659091 0.470454545,19.6363636 1.04545455,19.6363636 L13.5909091,19.6363636 C14.1659091,19.6363636 14.6363636,19.1659091 14.6363636,18.5909091 L14.6363636,6.04545455 C14.6363636,5.47045455 14.1659091,5 13.5909091,5 L13.5909091,5 Z M7.31818182,7.875 C8.61454545,7.875 9.67045455,8.93090909 9.67045455,10.2272727 C9.67045455,11.5236364 8.61454545,12.5795455 7.31818182,12.5795455 C6.02181818,12.5795455 4.96590909,11.5236364 4.96590909,10.2272727 C4.96590909,8.93090909 6.02181818,7.875 7.31818182,7.875 L7.31818182,7.875 Z M12.0227273,17.5454545 L2.61363636,17.5454545 L2.61363636,16.7613636 C2.61363636,15.1931818 5.75,14.4090909 7.31818182,14.4090909 C8.88636364,14.4090909 12.0227273,15.1931818 12.0227273,16.7613636 L12.0227273,17.5454545 L12.0227273,17.5454545 Z" id="Fill-106" fill="#EA702E"></path>
                    </g>
                </g>
            </g>
        </g>
    </g>
</svg>