<?xml version="1.0" encoding="UTF-8" standalone="no"?>
<svg
   xmlns:dc="http://purl.org/dc/elements/1.1/"
   xmlns:cc="http://creativecommons.org/ns#"
   xmlns:rdf="http://www.w3.org/1999/02/22-rdf-syntax-ns#"
   xmlns:svg="http://www.w3.org/2000/svg"
   xmlns="http://www.w3.org/2000/svg"
   xmlns:sodipodi="http://sodipodi.sourceforge.net/DTD/sodipodi-0.dtd"
   xmlns:inkscape="http://www.inkscape.org/namespaces/inkscape"
   viewBox="0 0 148.81881 152.36215"
   height="43mm"
   width="42mm"
   xml:space="preserve"
   id="svg2"
   version="1.1"
   inkscape:version="0.91 r13725"
   sodipodi:docname="simbolo-conectas.svg"><sodipodi:namedview
     pagecolor="#ffffff"
     bordercolor="#666666"
     borderopacity="1"
     objecttolerance="10"
     gridtolerance="10"
     guidetolerance="10"
     inkscape:pageopacity="0"
     inkscape:pageshadow="2"
     inkscape:window-width="1515"
     inkscape:window-height="900"
     id="namedview47"
     showgrid="false"
     units="mm"
     inkscape:zoom="2.6246719"
     inkscape:cx="181.4308"
     inkscape:cy="104.9924"
     inkscape:window-x="553"
     inkscape:window-y="15"
     inkscape:window-maximized="0"
     inkscape:current-layer="svg2" /><metadata
     id="metadata8"><rdf:RDF><cc:Work
         rdf:about=""><dc:format>image/svg+xml</dc:format><dc:type
           rdf:resource="http://purl.org/dc/dcmitype/StillImage" /><dc:title></dc:title></cc:Work></rdf:RDF></metadata><defs
     id="defs6" /><path
     id="path62"
     style="fill:#f3e5db;fill-opacity:1;fill-rule:nonzero;stroke:none"
     d="m 23.679226,34.375958 -6.37333,-6.24134 C 9.4632265,38.019958 4.2085575,49.97462 2.5552278,63.00929 l 8.9626682,0 c 1.54933,-10.636 5.84,-20.42 12.16133,-28.633332"
     inkscape:connector-curvature="0" /><path
     id="path64"
     style="fill:#f3e5db;fill-opacity:1;fill-rule:nonzero;stroke:none"
     d="m 65.757886,10.031958 0,-8.9560022 c -13.39733,1.62266 -25.67866,6.8306624 -35.808,14.6146622 l 6.408,6.276 c 8.428,-6.21466 18.47467,-10.42666 29.4,-11.93466"
     inkscape:connector-curvature="0" /><path
     id="path66"
     style="fill:#f3e5db;fill-opacity:1;fill-rule:nonzero;stroke:none"
     d="M 119.40324,15.627958 C 109.24194,7.8426182 96.92594,2.6492858 83.495236,1.0559558 l 0,8.9520022 c 10.960004,1.48 21.041304,5.68 29.500004,11.89466 l 6.408,-6.27466"
     inkscape:connector-curvature="0" /><path
     id="path68"
     style="fill:#f3e5db;fill-opacity:1;fill-rule:nonzero;stroke:none"
     d="m 11.520556,80.746603 -8.9613282,0 C 4.2152275,93.777248 9.4712265,105.72522 17.316556,115.60788 l 6.37333,-6.24266 c -6.32133,-8.20934 -10.61466,-17.987968 -12.16933,-28.618617"
     inkscape:connector-curvature="0" /><path
     id="path70"
     style="fill:#f3e5db;fill-opacity:1;fill-rule:nonzero;stroke:none"
     d="m 29.965886,128.04655 c 10.12667,7.77733 22.40134,12.98133 35.792,14.60267 l 0,-8.95467 c -10.91866,-1.50667 -20.96133,-5.71467 -29.38666,-11.924 l -6.40534,6.276"
     inkscape:connector-curvature="0" /><path
     id="path72"
     style="fill:#f3e5db;fill-opacity:1;fill-rule:nonzero;stroke:none"
     d="m 137.92054,63.00929 8.9627,0 c -1.6573,-13.07333 -6.936,-25.057332 -14.8173,-34.958672 l -6.3747,6.24267 c 6.3573,8.232002 10.6733,18.044002 12.2293,28.716002"
     inkscape:connector-curvature="0" /><path
     id="path74"
     style="fill:#f3e5db;fill-opacity:1;fill-rule:nonzero;stroke:none"
     d="m 125.68194,109.44788 6.3733,6.244 c 7.8813,-9.89866 13.1627,-21.878632 14.8253,-34.945277 l -8.9626,0 c -1.56,10.667979 -5.88,20.474617 -12.236,28.701277"
     inkscape:connector-curvature="0" /><path
     id="path76"
     style="fill:#f3e5db;fill-opacity:1;fill-rule:nonzero;stroke:none"
     d="m 83.495236,133.71722 0,8.952 c 13.424004,-1.59067 25.734704,-6.78267 35.892004,-14.55867 l -6.4067,-6.27467 c -8.4546,6.20667 -18.532,10.40134 -29.485304,11.88134"
     inkscape:connector-curvature="0" /><path
     id="path78"
     style="fill:#f3e5db;fill-opacity:1;fill-rule:nonzero;stroke:none"
     d="m 26.495226,19.963958 -4.65334,4.75066 41.92934,41.077332 -0.66534,-9.964 -36.61066,-35.863992"
     inkscape:connector-curvature="0" /><path
     id="path80"
     style="fill:#f3e5db;fill-opacity:1;fill-rule:nonzero;stroke:none"
     d="m 127.58324,24.714618 -4.656,-4.75066 -36.392004,35.657332 -0.7013,10 41.749304,-40.906672"
     inkscape:connector-curvature="0" /><path
     id="path82"
     style="fill:#f3e5db;fill-opacity:1;fill-rule:nonzero;stroke:none"
     d="m 78.043236,47.39329 0,-45.5600042 -6.652,0 0,45.4093342 3.348,3.51334 3.304,-3.36267"
     inkscape:connector-curvature="0" /><path
     id="path84"
     style="fill:#f3e5db;fill-opacity:1;fill-rule:nonzero;stroke:none"
     d="m 3.2258978,68.53995 0,6.65199 61.1733282,0 -0.44534,-6.65199 -60.7279882,0"
     inkscape:connector-curvature="0" /><path
     id="path86"
     style="fill:#f3e5db;fill-opacity:1;fill-rule:nonzero;stroke:none"
     d="m 146.19254,75.19194 0,-6.65199 -60.562604,0 -0.4667,6.65199 61.029304,0"
     inkscape:connector-curvature="0" /><path
     id="path88"
     style="fill:#f3e5db;fill-opacity:1;fill-rule:nonzero;stroke:none"
     d="m 21.840556,119.00922 4.656,4.752 38.61867,-37.838634 -0.584,-8.742649 -42.69067,41.829283"
     inkscape:connector-curvature="0" /><path
     id="path90"
     style="fill:#f3e5db;fill-opacity:1;fill-rule:nonzero;stroke:none"
     d="m 84.405936,86.005256 38.537304,37.755964 4.6533,-4.75334 -42.581304,-41.714603 -0.6093,8.711979"
     inkscape:connector-curvature="0" /><path
     id="path92"
     style="fill:#f3e5db;fill-opacity:1;fill-rule:nonzero;stroke:none"
     d="m 74.693936,56.29729 -8.2774,-8.692 6.8694,102.86259 2.736,-0.0213 7.212,-102.84126 z m 0.039,70.93326 -0.064,-65.5786 3.8574,-4.396 -3.7934,69.9746"
     inkscape:connector-curvature="0" /></svg>