<?xml version="1.0" encoding="UTF-8" standalone="no"?>
<svg width="20px" height="20px" viewBox="0 0 20 20" version="1.1" xmlns="http://www.w3.org/2000/svg" xmlns:xlink="http://www.w3.org/1999/xlink">
    <!-- Generator: Sketch 39.1 (31720) - http://www.bohemiancoding.com/sketch -->
    <title>sobre nosicon-</title>
    <desc>Created with Sketch.</desc>
    <defs></defs>
    <g id="Stickersheet" stroke="none" stroke-width="1" fill="none" fill-rule="evenodd">
        <g id="MENU" transform="translate(-17.000000, -593.000000)">
            <g id="menu-lateral">
                <g id="icones" transform="translate(14.000000, 97.000000)">
                    <g id="sobre-nos" transform="translate(1.000000, 494.000000)">
                        <path d="M12,12.000625 C14.7625,12.000625 17,9.763125 17,7 C17,4.2375 14.7625,2 12,2 C9.236875,2 7,4.2375 7,7 C7,9.763125 9.236875,12.000625 12,12.000625 L12,12.000625 Z M12,14.5 C8.6625,14.5 2,16.175625 2,19.500625 L2,22 L22,22 L22,19.500625 C22,16.175625 15.336875,14.5 12,14.5 L12,14.5 Z" id="Fill-103" fill="#EA702E"></path>
                        <rect id="Rectangle-436" x="0" y="0" width="24" height="24"></rect>
                    </g>
                </g>
            </g>
        </g>
    </g>
</svg>