<svg xmlns="http://www.w3.org/2000/svg" viewBox="0 0 112.84 181.35"><path class="cls-1" d="M60.36,51.32a5.27,5.27,0,1,1,5.27,5.27,5.27,5.27,0,0,1-5.27-5.27ZM47.21,46.06a5.27,5.27,0,1,0,5.27,5.27,5.27,5.27,0,0,0-5.27-5.27ZM29.83,163.49a4.76,4.76,0,1,0-5.43,7.83,56.35,56.35,0,0,0,88.44-46.39V56.42A56.42,56.42,0,0,0,0,56.42v21a4.76,4.76,0,1,0,9.53,0v-21a46.89,46.89,0,0,1,93.78,0v68.51a46.94,46.94,0,0,1-46.89,46.89,46.46,46.46,0,0,1-26.59-8.33ZM21.2,57A35.22,35.22,0,1,1,71.8,88.7,15.68,15.68,0,0,1,41,88.7,35.42,35.42,0,0,1,21.2,57ZM50.27,85.63a6.15,6.15,0,1,0,6.15-6.15,6.16,6.16,0,0,0-6.15,6.15ZM30.73,57a25.86,25.86,0,0,0,11.7,21.55,15.68,15.68,0,0,1,28,0A25.69,25.69,0,1,0,30.73,57Zm0,0"/></svg>