<svg xmlns="http://www.w3.org/2000/svg" viewBox="0 0 412.49 230.4">
    <path d="M314.94 159.2A80.53 80.53 0 1 0 258.27 48c-15.83 35.89-3 77.36 27.69 98.66l-8.37 19-12.72-5.66-10.71 24.3 12.71 5.61-7.65 17.33 28.9 12.76 7.65-17.33 11.56 5.1L318 183.49l-11.56-5.1 8.46-19.19zm37-123.41a49 49 0 1 1-64.57 25 49 49 0 0 1 64.57-25zm0 0" class="symbol"/>
    <text transform="translate(0 13.21)">40000</text>
    <text transform="translate(0 59.94)">30000</text>
    <text transform="translate(0 107.58)">20000</text>
    <text transform="translate(0 155.22)">10000</text>
    <text transform="translate(24.91 201.96)">0</text>
    <text transform="translate(387.58 226.7)">2014</text>
    <text transform="translate(41.49 226.7)">2005</text>
    <g>
        <path d="M43.15 7.88h368" class="dotted"/>
        <path d="M43.15 55.88h368" class="dotted"/>
        <path d="M43.15 103.88h368" class="dotted"/>
        <path d="M43.15 150.88h368" class="dotted"/>
        <path d="M43.15 198.88h368" class="dotted"/>
    </g>
    <g class="linha" transform="matrix(1.0476671904325485,0,0,-1.0476671904325485,-159.97367205713547,2034.697691044627) ">
        <path id="svg_22" d="m546.152,1921.52347l-19.336,4.3l-40.82,-12.135l-20.412,3.145l-20.41,-7.643l-20.948,7.635l-20.41,-4.055l-20.41,8.71l-21.486,-24.952l-19.874,-3.23l-20.41,-10.056l-20.41,-4.562l-19.874,-9.843l-19.874,0l-19.873,-15.212l-21.485,-62.49l-23.275,39.068"/>
    </g>
</svg>