<svg xmlns="http://www.w3.org/2000/svg" viewBox="0 0 412.49 230.4"><defs><style>.cls-1,.cls-2{fill:#b81f3c;}.cls-1{opacity:0.2;}.cls-2{font-size:13px;font-family:SourceSansPro-Light, Source Sans Pro;}.cls-3{opacity:0.4;}.cls-4,.cls-5{fill:none;stroke:#b81f3c;stroke-miterlimit:10;}.cls-5{stroke-dasharray:1 1;}</style></defs><title>bg-grafico-perfil</title><g id="Camada_2" data-name="Camada 2"><g id="Layer_1" data-name="Layer 1"><path class="cls-1" d="M314.94,159.2A80.53,80.53,0,1,0,258.27,48c-15.83,35.89-3,77.36,27.69,98.66l-8.37,19L264.87,160,254.16,184.3l12.71,5.61-7.65,17.33L288.12,220l7.65-17.33,11.56,5.1L318,183.49l-11.56-5.1,8.46-19.19Zm37-123.41a49,49,0,1,1-64.57,25,49,49,0,0,1,64.57-25Zm0,0"/><text class="cls-2" transform="translate(0 13.21)">40000</text><text class="cls-2" transform="translate(0 59.94)">30000</text><text class="cls-2" transform="translate(0 107.58)">20000</text><text class="cls-2" transform="translate(0 155.22)">10000</text><text class="cls-2" transform="translate(24.91 201.96)">0</text><text class="cls-2" transform="translate(387.58 226.7)">2014</text><text class="cls-2" transform="translate(41.49 226.7)">2005</text><g class="cls-3"><line class="cls-4" x1="41.15" y1="7.88" x2="42.15" y2="7.88"/><line class="cls-5" x1="43.15" y1="7.88" x2="411.15" y2="7.88"/><line class="cls-4" x1="411.15" y1="7.88" x2="412.15" y2="7.88"/><line class="cls-4" x1="41.15" y1="55.88" x2="42.15" y2="55.88"/><line class="cls-5" x1="43.15" y1="55.88" x2="411.15" y2="55.88"/><line class="cls-4" x1="411.15" y1="55.88" x2="412.15" y2="55.88"/><line class="cls-4" x1="41.15" y1="103.88" x2="42.15" y2="103.88"/><line class="cls-5" x1="43.15" y1="103.88" x2="411.15" y2="103.88"/><line class="cls-4" x1="411.15" y1="103.88" x2="412.15" y2="103.88"/><line class="cls-4" x1="41.15" y1="150.88" x2="42.15" y2="150.88"/><line class="cls-5" x1="43.15" y1="150.88" x2="411.15" y2="150.88"/><line class="cls-4" x1="411.15" y1="150.88" x2="412.15" y2="150.88"/><line class="cls-4" x1="41.15" y1="198.88" x2="42.15" y2="198.88"/><line class="cls-5" x1="43.15" y1="198.88" x2="411.15" y2="198.88"/><line class="cls-4" x1="411.15" y1="198.88" x2="412.15" y2="198.88"/></g></g></g></svg>