<svg xmlns="http://www.w3.org/2000/svg" viewBox="0 0 52.26 58.3"><g><path d="M52,44,44.67,29.09a3.4,3.4,0,0,0-3.26-1.77l-7,.84a1.1,1.1,0,0,1-1.22-1L31.87,16.26a2.48,2.48,0,0,0-2.75-2.16l-.33,0a7.64,7.64,0,1,0-6.36.79,2.48,2.48,0,0,0-1.84,2.69l2.29,19.15a2.47,2.47,0,0,0,2.75,2.16l11.89-1.46a2.83,2.83,0,0,1,2.24.93l5.56,7.12A4.22,4.22,0,0,0,48.83,47l1.68-.2A1.87,1.87,0,0,0,52,44Z"/><path d="M36.85,42.12a2.78,2.78,0,0,0-3.61,1.56,14.34,14.34,0,1,1-17.35-19,2.78,2.78,0,1,0-1.56-5.34,19.9,19.9,0,0,0,7.93,38.87,20,20,0,0,0,3.22-.66A19.79,19.79,0,0,0,38.41,45.73a2.78,2.78,0,0,0-1.56-3.61Zm0,0"/></g></svg>