<svg xmlns="http://www.w3.org/2000/svg" viewBox="0 0 104.63 168.7"><defs><style>.cls-1{opacity:0.3;}.cls-2{fill:#b81f3c;}</style></defs><title>caixao</title><g id="Camada_2" data-name="Camada 2"><g id="Layer_1" data-name="Layer 1"><g class="cls-1"><path class="cls-2" d="M23.35,165.64c.77,1.53,2.3,3.07,3.84,3.07H77.79c1.53,0,3.07-1.53,3.83-3.07l23-103.52v-2.3L78.56,2.3A6.63,6.63,0,0,0,74,0H30.25c-1.53,0-3.07.77-3.07,2.3L.34,59c0,.77-.77,1.53,0,2.3Zm9.2-158H71.66L96.19,62.11,74.72,161H30.25l-23-99.69Zm0,0"/><path class="cls-2" d="M37.15,153.37H67.82c1.53,0,3.07-1.53,3.83-3.07l18.4-87.42v-2.3L70.89,17.64c0-1.53-1.53-2.3-3.07-2.3H37.15a4.22,4.22,0,0,0-3.83,2.3L14.91,60.58v2.3l18.4,87.42c0,1.53,1.53,3.07,3.83,3.07ZM39.45,23H65.52L82.39,62.88,64.75,145.7H40.22L22.58,62.88Zm0,0"/><path class="cls-2" d="M65,51.07V69H41V51.07H65"/></g></g></g></svg>