<svg xmlns="http://www.w3.org/2000/svg" viewBox="0 0 505 255">
  <path d="M21.268 147.344c0 4.515 3.655 9.75 8.188 9.75 4.496 0 8.17-5.218 8.17-9.75 0-4.515-3.675-8.17-8.17-8.17-4.515 0-8.188 3.657-8.188 8.172m24.058 42.715c1.762-.2 3.037-1.794 2.852-3.572l-2.6-23.272c-.016-.15-.097-.284-.132-.434-.07-.238-.104-.455-.22-.67-.088-.184-.238-.338-.353-.488-.132-.168-.237-.337-.403-.468-.188-.17-.388-.272-.607-.37-.133-.088-.232-.188-.382-.238-.305-.116-6.795-2.45-12.787-2.75l-.052.1c-.4-.035-.803-.1-1.207-.1-.387 0-.787.065-1.19.1l-.05-.08c-5.452.28-11.328 2.21-12.535 2.65-.068.015-.1.033-.167.045l-.068.035c-.08.018-.116.07-.185.103-.3.134-.6.284-.855.52-.115.1-.184.233-.282.353-.168.203-.335.37-.438.6-.116.204-.15.423-.22.64-.03.17-.116.3-.134.47l-2.6 23.255c-.183 1.778 1.093 3.37 2.854 3.575.133.016.25.016.37.016 1.628 0 3.02-1.208 3.204-2.87l2.366-21.19c.266-.088.568-.168.89-.272v22.068l-2.57 31.978c-.167 2.148 1.425 4.013 3.556 4.18.1.018.2.018.317.018 1.997 0 3.695-1.53 3.862-3.575l2.315-28.895c.485.2 1.005.335 1.575.335.555 0 1.075-.134 1.56-.338l2.315 28.896c.168 2.045 1.865 3.575 3.88 3.575.1 0 .2 0 .3-.018 2.15-.166 3.724-2.03 3.556-4.18l-2.568-31.978v-22.066c.32.088.622.188.892.255l2.363 21.206c.185 1.643 1.58 2.868 3.203 2.868.122 0 .238-.017.37-.017"/>
  <path d="M20.546 35.116c0 4.515 3.655 9.75 8.188 9.75 4.496 0 8.17-5.218 8.17-9.75 0-4.515-3.675-8.17-8.17-8.17-4.515 0-8.188 3.657-8.188 8.172m24.058 42.715c1.762-.2 3.037-1.795 2.852-3.573l-2.6-23.272c-.016-.15-.097-.284-.132-.434-.07-.238-.104-.455-.22-.67-.088-.184-.238-.338-.353-.488-.13-.168-.236-.337-.403-.468-.187-.17-.387-.272-.606-.37-.133-.088-.23-.188-.38-.238-.308-.116-6.798-2.45-12.79-2.75l-.05.1c-.4-.035-.805-.1-1.21-.1-.386 0-.786.065-1.19.1l-.05-.08c-5.45.28-11.328 2.21-12.534 2.65-.07.015-.1.033-.167.045l-.07.035c-.08.018-.116.07-.185.103-.3.133-.6.283-.855.52-.115.1-.184.232-.283.352-.167.203-.335.37-.437.6-.116.204-.15.423-.22.64-.03.17-.116.3-.134.47l-2.6 23.255c-.184 1.778 1.093 3.37 2.854 3.575.132.016.25.016.37.016 1.627 0 3.02-1.206 3.204-2.87l2.366-21.19c.266-.086.567-.166.89-.27v22.068l-2.57 31.978c-.168 2.148 1.425 4.013 3.556 4.18.1.018.2.018.316.018 1.998 0 3.695-1.53 3.863-3.575l2.315-28.896c.485.2 1.005.335 1.575.335.555 0 1.075-.135 1.56-.34L32.6 108.19c.167 2.045 1.865 3.575 3.88 3.575.1 0 .2 0 .3-.02 2.15-.165 3.724-2.03 3.556-4.178l-2.57-31.98V53.52c.323.088.624.188.894.255l2.362 21.206c.185 1.645 1.582 2.87 3.204 2.87.12 0 .238-.017.37-.017"/>
  <path d="M245.69 147.648c0 4.515 3.654 9.75 8.186 9.75 4.496 0 8.17-5.218 8.17-9.75 0-4.515-3.675-8.17-8.17-8.17-4.515 0-8.187 3.657-8.187 8.172m24.056 42.715c1.763-.2 3.038-1.795 2.853-3.573L270 163.52c-.018-.15-.1-.284-.134-.434-.07-.238-.104-.455-.22-.67-.087-.184-.237-.338-.352-.488-.133-.168-.238-.337-.404-.468-.188-.17-.388-.272-.606-.37-.134-.088-.233-.188-.383-.238-.305-.116-6.795-2.45-12.786-2.75l-.053.1c-.4-.035-.803-.1-1.206-.1-.388 0-.788.065-1.19.1l-.05-.08c-5.453.28-11.33 2.21-12.535 2.65-.07.015-.1.033-.17.045l-.068.035c-.08.018-.116.07-.185.103-.3.133-.6.283-.855.52-.115.1-.183.232-.282.352-.168.203-.335.37-.438.6-.116.204-.15.423-.218.64-.032.17-.118.3-.135.47l-2.6 23.255c-.185 1.778 1.09 3.37 2.852 3.575.133.016.25.016.37.016 1.628 0 3.02-1.207 3.204-2.87l2.366-21.19c.267-.087.568-.167.89-.27v22.067l-2.57 31.978c-.167 2.148 1.425 4.013 3.557 4.18.1.018.2.018.315.018 1.997 0 3.695-1.53 3.862-3.575l2.315-28.894c.485.2 1.005.335 1.575.335.555 0 1.075-.133 1.56-.337l2.315 28.897c.168 2.045 1.865 3.575 3.88 3.575.1 0 .202 0 .3-.02 2.15-.165 3.724-2.03 3.557-4.178l-2.57-31.98v-22.065c.32.088.622.188.892.255l2.363 21.206c.185 1.644 1.58 2.87 3.204 2.87.12 0 .236-.018.37-.018"/>
  <path d="M245.69 35.27c0 4.516 3.654 9.75 8.186 9.75 4.496 0 8.17-5.217 8.17-9.75 0-4.514-3.675-8.17-8.17-8.17-4.515 0-8.187 3.658-8.187 8.173m24.056 42.715c1.763-.2 3.038-1.795 2.853-3.573L270 51.143c-.018-.15-.1-.284-.134-.434-.07-.24-.104-.456-.22-.67-.087-.185-.237-.34-.352-.49-.133-.167-.238-.336-.404-.467-.188-.17-.388-.272-.606-.37-.134-.088-.233-.188-.383-.238-.305-.116-6.795-2.45-12.786-2.75l-.053.1c-.4-.035-.803-.1-1.206-.1-.388 0-.788.065-1.19.1l-.05-.08c-5.453.28-11.33 2.21-12.535 2.65-.07.015-.1.033-.17.045l-.068.035c-.08.018-.116.07-.185.103-.3.133-.6.283-.855.52-.115.1-.183.232-.282.352-.168.203-.335.37-.438.6-.116.204-.15.423-.218.64-.032.17-.118.3-.135.47l-2.6 23.255c-.185 1.778 1.09 3.37 2.852 3.575.133.016.25.016.37.016 1.628 0 3.02-1.207 3.204-2.87l2.366-21.19c.267-.087.568-.167.89-.27v22.067l-2.57 31.978c-.167 2.15 1.425 4.014 3.557 4.18.1.02.2.02.315.02 1.997 0 3.695-1.53 3.862-3.576l2.315-28.895c.485.2 1.005.334 1.575.334.555 0 1.075-.134 1.56-.338l2.315 28.897c.168 2.045 1.865 3.575 3.88 3.575.1 0 .202 0 .3-.02 2.15-.165 3.724-2.03 3.557-4.178l-2.57-31.98V53.676c.32.088.622.188.892.255l2.363 21.206c.185 1.644 1.58 2.87 3.204 2.87.12 0 .236-.018.37-.018"/>
  <path d="M131.958 35.948c0 4.515 3.655 9.75 8.187 9.75 4.496 0 8.17-5.218 8.17-9.75 0-4.515-3.675-8.17-8.17-8.17-4.515 0-8.187 3.657-8.187 8.172m24.057 42.715c1.763-.2 3.038-1.795 2.853-3.573l-2.6-23.272c-.017-.15-.098-.284-.133-.434-.07-.238-.104-.455-.22-.67-.087-.184-.237-.338-.352-.488-.133-.168-.238-.337-.404-.468-.19-.17-.39-.272-.607-.37-.134-.088-.233-.188-.383-.238-.306-.116-6.796-2.45-12.787-2.75l-.053.1c-.4-.035-.804-.1-1.207-.1-.388 0-.788.065-1.19.1l-.05-.08c-5.453.28-11.33 2.21-12.535 2.65-.07.015-.1.033-.168.045l-.07.035c-.08.018-.115.07-.184.103-.3.133-.6.283-.855.52-.114.1-.182.232-.28.352-.17.203-.336.37-.44.6-.115.204-.15.423-.217.64-.032.17-.118.3-.135.47l-2.6 23.255c-.184 1.778 1.092 3.37 2.853 3.575.134.016.25.016.37.016 1.63 0 3.02-1.207 3.205-2.87l2.366-21.19c.268-.087.57-.167.89-.27V76.42l-2.57 31.978c-.166 2.148 1.426 4.013 3.558 4.18.1.018.2.018.316.018 1.997 0 3.695-1.53 3.862-3.575l2.315-28.894c.486.2 1.006.335 1.576.335.555 0 1.075-.133 1.56-.337l2.315 28.897c.17 2.045 1.866 3.575 3.88 3.575.1 0 .203 0 .3-.02 2.15-.165 3.725-2.03 3.558-4.178l-2.57-31.98V54.353c.322.088.623.188.893.255l2.364 21.206c.185 1.644 1.58 2.87 3.204 2.87.12 0 .237-.018.37-.018"/>
  <path d="M133.312 147.648c0 4.515 3.655 9.75 8.187 9.75 4.495 0 8.17-5.218 8.17-9.75 0-4.515-3.676-8.17-8.17-8.17-4.516 0-8.188 3.657-8.188 8.172m24.057 42.715c1.762-.2 3.037-1.795 2.852-3.573l-2.6-23.272c-.017-.15-.098-.284-.133-.434-.07-.238-.105-.455-.22-.67-.088-.184-.238-.338-.353-.488-.133-.168-.238-.337-.404-.468-.188-.17-.388-.272-.606-.37-.134-.088-.233-.188-.383-.238-.306-.116-6.796-2.45-12.787-2.75l-.053.1c-.4-.035-.804-.1-1.207-.1-.388 0-.788.065-1.19.1l-.05-.08c-5.453.28-11.33 2.21-12.535 2.65-.07.015-.1.033-.168.045l-.07.035c-.08.018-.115.07-.184.103-.3.133-.6.283-.855.52-.115.1-.183.232-.282.352-.168.203-.335.37-.438.6-.116.204-.15.423-.218.64-.032.17-.118.3-.135.47l-2.6 23.255c-.184 1.778 1.092 3.37 2.853 3.575.133.016.25.016.37.016 1.628 0 3.02-1.207 3.204-2.87l2.365-21.19c.267-.087.568-.167.89-.27v22.067l-2.57 31.978c-.167 2.148 1.425 4.013 3.557 4.18.1.018.2.018.316.018 1.997 0 3.695-1.53 3.862-3.575l2.315-28.894c.485.2 1.005.335 1.575.335.555 0 1.075-.133 1.56-.337l2.315 28.897c.168 2.045 1.865 3.575 3.88 3.575.1 0 .202 0 .3-.02 2.15-.165 3.724-2.03 3.557-4.178l-2.57-31.98v-22.065c.322.088.623.188.893.255l2.363 21.206c.185 1.644 1.58 2.87 3.204 2.87.12 0 .237-.018.37-.018"/>
  <path d="M471.12 147.65c0 4.514 3.655 9.75 8.187 9.75 4.497 0 8.17-5.22 8.17-9.75 0-4.516-3.675-8.17-8.17-8.17-4.515 0-8.187 3.655-8.187 8.17m24.057 42.715c1.763-.2 3.038-1.795 2.853-3.573l-2.6-23.272c-.016-.15-.098-.284-.133-.434-.07-.237-.103-.455-.22-.67-.087-.184-.237-.337-.352-.487-.133-.17-.238-.34-.404-.47-.186-.17-.386-.27-.605-.37-.134-.088-.233-.188-.383-.238-.306-.116-6.796-2.45-12.787-2.75l-.053.1c-.4-.035-.803-.1-1.207-.1-.388 0-.788.065-1.19.1l-.05-.08c-5.453.282-11.33 2.212-12.535 2.65-.07.015-.1.033-.168.045l-.068.035c-.082.018-.117.07-.185.103-.3.134-.6.284-.856.52-.115.1-.184.232-.283.352-.166.203-.334.37-.436.6-.117.204-.15.423-.22.642-.03.166-.117.3-.134.467l-2.6 23.255c-.184 1.778 1.092 3.372 2.854 3.575.132.017.25.017.368.017 1.63 0 3.02-1.208 3.205-2.87l2.367-21.19c.266-.088.567-.168.89-.272v22.068l-2.57 31.98c-.168 2.146 1.425 4.01 3.556 4.177.1.02.2.02.316.02 1.998 0 3.695-1.53 3.863-3.576l2.314-28.894c.485.2 1.005.335 1.575.335.554 0 1.074-.133 1.56-.336l2.314 28.896c.167 2.045 1.865 3.575 3.878 3.575.1 0 .203 0 .3-.02 2.15-.165 3.725-2.03 3.558-4.178l-2.57-31.978V166.05c.322.088.624.188.894.255l2.362 21.207c.185 1.643 1.58 2.868 3.204 2.868.12 0 .237-.017.37-.017"/>
  <path d="M471.12 35.948c0 4.515 3.655 9.75 8.187 9.75 4.497 0 8.17-5.218 8.17-9.75 0-4.515-3.675-8.17-8.17-8.17-4.515 0-8.187 3.657-8.187 8.172m24.057 42.715c1.763-.2 3.038-1.795 2.853-3.573l-2.6-23.272c-.016-.15-.098-.284-.133-.434-.07-.238-.103-.455-.22-.67-.087-.184-.237-.338-.352-.488-.133-.168-.238-.337-.404-.468-.186-.17-.386-.272-.605-.37-.134-.088-.233-.188-.383-.238-.306-.116-6.796-2.45-12.787-2.75l-.053.1c-.4-.035-.803-.1-1.207-.1-.388 0-.788.065-1.19.1l-.05-.08c-5.453.28-11.33 2.21-12.535 2.65-.07.015-.1.033-.168.045l-.068.035c-.082.018-.117.07-.185.103-.3.133-.6.283-.856.52-.115.1-.184.232-.283.352-.166.203-.334.37-.436.6-.117.204-.15.423-.22.64-.03.17-.117.3-.134.47l-2.6 23.255c-.184 1.778 1.092 3.37 2.854 3.575.132.016.25.016.368.016 1.63 0 3.02-1.207 3.205-2.87l2.367-21.19c.266-.087.567-.167.89-.27V76.42l-2.57 31.978c-.168 2.148 1.425 4.013 3.556 4.18.1.018.2.018.316.018 1.998 0 3.695-1.53 3.863-3.575l2.314-28.894c.485.2 1.005.335 1.575.335.554 0 1.074-.133 1.56-.337l2.314 28.897c.167 2.045 1.865 3.575 3.878 3.575.1 0 .203 0 .3-.02 2.15-.165 3.725-2.03 3.558-4.178l-2.57-31.98V54.353c.322.088.624.188.894.255l2.362 21.206c.185 1.644 1.58 2.87 3.204 2.87.12 0 .237-.018.37-.018"/>
  <path d="M358.743 146.295c0 4.515 3.655 9.75 8.187 9.75 4.497 0 8.17-5.22 8.17-9.75 0-4.515-3.675-8.17-8.17-8.17-4.515 0-8.187 3.656-8.187 8.17m24.057 42.716c1.763-.2 3.038-1.794 2.853-3.572l-2.6-23.272c-.016-.15-.098-.284-.133-.434-.07-.237-.103-.455-.22-.67-.087-.184-.237-.337-.352-.487-.133-.17-.238-.338-.404-.47-.187-.168-.387-.27-.606-.37-.134-.087-.233-.187-.383-.237-.306-.116-6.796-2.45-12.787-2.75l-.053.1c-.4-.035-.803-.1-1.207-.1-.388 0-.788.065-1.19.1l-.05-.08c-5.453.282-11.33 2.212-12.535 2.65-.07.015-.1.033-.168.045l-.068.035c-.082.018-.117.07-.185.103-.3.135-.6.285-.855.52-.115.1-.184.233-.283.353-.167.203-.335.37-.437.6-.117.204-.15.423-.22.642-.03.167-.117.3-.134.468l-2.6 23.255c-.184 1.778 1.092 3.372 2.854 3.575.132.017.25.017.368.017 1.63 0 3.02-1.208 3.205-2.87l2.367-21.19c.266-.088.567-.168.89-.272v22.068l-2.57 31.98c-.168 2.146 1.425 4.01 3.556 4.177.1.02.2.02.316.02 1.997 0 3.694-1.53 3.862-3.576l2.315-28.895c.485.2 1.005.335 1.575.335.555 0 1.075-.134 1.56-.337l2.315 28.896c.167 2.045 1.865 3.575 3.878 3.575.1 0 .203 0 .3-.018 2.15-.166 3.725-2.03 3.558-4.18l-2.57-31.977v-22.067c.322.088.624.188.894.255l2.362 21.207c.184 1.643 1.58 2.868 3.203 2.868.12 0 .237-.017.37-.017"/>
  <path d="M358.066 33.917c0 4.515 3.655 9.75 8.187 9.75 4.497 0 8.17-5.218 8.17-9.75 0-4.515-3.675-8.17-8.17-8.17-4.515 0-8.187 3.657-8.187 8.172m24.057 42.714c1.763-.2 3.038-1.795 2.853-3.573l-2.6-23.27c-.016-.15-.098-.285-.133-.435-.07-.238-.103-.455-.22-.67-.087-.184-.237-.338-.352-.488-.132-.168-.237-.337-.403-.468-.187-.17-.387-.273-.606-.37-.133-.09-.232-.19-.382-.24-.306-.115-6.796-2.45-12.787-2.75l-.052.1c-.4-.034-.803-.1-1.207-.1-.387 0-.787.066-1.19.1l-.05-.08c-5.452.282-11.328 2.212-12.534 2.65-.07.016-.1.034-.168.046l-.068.035c-.082.02-.117.07-.185.104-.3.133-.6.283-.855.52-.115.1-.184.232-.283.352-.167.203-.335.37-.437.6-.117.204-.15.423-.22.64-.03.17-.117.3-.134.47l-2.6 23.255c-.184 1.78 1.092 3.372 2.854 3.576.132.016.25.016.368.016 1.63 0 3.02-1.207 3.205-2.87l2.367-21.19c.266-.087.567-.167.89-.27v22.067l-2.57 31.977c-.168 2.148 1.425 4.013 3.556 4.18.1.018.2.018.316.018 1.998 0 3.695-1.53 3.863-3.575l2.315-28.895c.485.2 1.005.335 1.575.335.555 0 1.075-.134 1.56-.338l2.315 28.897c.167 2.044 1.865 3.574 3.878 3.574.1 0 .203 0 .3-.02 2.15-.165 3.725-2.03 3.558-4.178l-2.57-31.98V52.322c.322.09.624.19.894.256l2.362 21.206c.185 1.644 1.58 2.87 3.204 2.87.12 0 .237-.018.37-.018"/>
</svg>