<svg xmlns="http://www.w3.org/2000/svg" viewBox="0 0 25.85 34"><g><path d="M25.85,3.59A3.59,3.59,0,0,0,22.26,0H3.59A3.59,3.59,0,0,0,0,3.59V30.41A3.59,3.59,0,0,0,3.59,34H16.74a.86.86,0,0,0,.6-.25l8.26-8.26a.86.86,0,0,0,.25-.6Zm-8.26,27.5V27.63a1.89,1.89,0,0,1,1.89-1.88h3.47l-5.35,5.35ZM24.14,24H19.47a3.59,3.59,0,0,0-3.59,3.59V32.3H3.59A1.89,1.89,0,0,1,1.7,30.41V3.59A1.89,1.89,0,0,1,3.59,1.7H22.26a1.89,1.89,0,0,1,1.89,1.88Zm0,0"/><path d="M20.79,18.87H5.06a.85.85,0,0,0,0,1.7H20.79a.85.85,0,0,0,0-1.7Zm0,0"/><path d="M13.72,23.08H5.06a.85.85,0,0,0,0,1.7h8.66a.85.85,0,0,0,0-1.7Zm0,0"/><path d="M20.79,14.64H5.06a.85.85,0,0,0,0,1.7H20.79a.85.85,0,0,0,0-1.7Zm0,0"/><path d="M20.79,10.41H5.06a.85.85,0,0,0,0,1.7H20.79a.85.85,0,0,0,0-1.7Zm0,0"/><path d="M20.79,6.17H5.06a.85.85,0,0,0,0,1.7H20.79a.85.85,0,0,0,0-1.7Zm0,0"/><path d="M13.72,27.28H5.06a.85.85,0,1,0,0,1.7h8.66a.85.85,0,0,0,0-1.7Zm0,0"/></g></svg>