<svg xmlns="http://www.w3.org/2000/svg" viewBox="0 0 37.03 35"><g><path d="M35.8,6.53A1.23,1.23,0,0,0,37,5.3V1.23A1.23,1.23,0,0,0,35.8,0H1.23A1.23,1.23,0,0,0,0,1.23V5.3A1.23,1.23,0,0,0,1.23,6.53H2V28.47h-.8A1.23,1.23,0,0,0,0,29.7v4.07A1.23,1.23,0,0,0,1.23,35H35.8A1.23,1.23,0,0,0,37,33.77V29.7a1.23,1.23,0,0,0-1.23-1.23H35V22.78a1.23,1.23,0,0,0,1-1.21V13.43a1.23,1.23,0,0,0-1-1.21V6.53ZM2.46,2.46H34.57v1.6H2.46Zm31.09,12.2v5.67H27.88V14.67ZM22.8,28.47V18.73h2.62v2.83a1.23,1.23,0,0,0,1,1.21v5.69Zm-6.1,0V18.73h3.64v9.74Zm-6.1,0V18.73h3.64v9.74ZM14.23,6.53v9.74H10.6V6.53Zm6.1,0v9.74H16.7V6.53Zm6.1,5.69a1.23,1.23,0,0,0-1,1.21v2.83H22.8V6.53h3.63ZM8.13,6.53v9.74H4.5V6.53ZM4.5,18.73H8.13v9.74H4.5Zm30.07,13.8H2.46v-1.6H34.57v1.6ZM28.9,28.47V22.8h3.64v5.67ZM32.53,12.2H28.9V6.53h3.64Zm0,0"/><path d="M29.73,18.14v.59a1,1,0,0,0,2,0v-.59a1.6,1.6,0,1,0-2,0Zm0,0"/></g></svg>