<svg xmlns="http://www.w3.org/2000/svg" viewBox="0 0 40.53 38"><g><path d="M24.07,35.47h0V34.2a3.8,3.8,0,0,0-3.8-3.8H5.07a3.81,3.81,0,0,0-3.8,3.8v1.27a1.27,1.27,0,0,0,0,2.53h22.8a1.27,1.27,0,0,0,0-2.53Zm-19-2.53h15.2a1.27,1.27,0,0,1,1.27,1.27v1.27H3.8V34.2a1.27,1.27,0,0,1,1.27-1.27Zm0,0"/><path d="M36.73,8.87h-19V6.33H19a1.27,1.27,0,0,0,1.27-1.27V1.27A1.27,1.27,0,0,0,19,0H6.33A1.27,1.27,0,0,0,5.07,1.27v3.8A1.27,1.27,0,0,0,6.33,6.33H7.6V19H6.33a1.27,1.27,0,0,0-1.27,1.27v3.8a1.27,1.27,0,0,0,1.27,1.27H19a1.27,1.27,0,0,0,1.27-1.27v-3.8A1.27,1.27,0,0,0,19,19H17.73V16.47h19a3.8,3.8,0,1,0,0-7.6Zm-19,13.93H7.6V21.53H17.73ZM7.6,2.53H17.73V3.8H7.6Zm7.6,3.8V19H10.13V6.33Zm21.53,7.6h-19V11.4h19a1.27,1.27,0,0,1,0,2.53Zm0,0"/></g></svg>