<svg xmlns="http://www.w3.org/2000/svg" viewBox="0 0 30 67.85"><defs><style>.cls-1{fill:#fff;}</style></defs><title>pessoa</title><g id="Camada_2" data-name="Camada 2"><g id="Layer_1" data-name="Layer 1"><path class="cls-1" d="M8.46,6.54c0,3.61,2.92,7.8,6.55,7.8s6.54-4.18,6.54-7.8a6.54,6.54,0,0,0-13.09,0Zm0,0"/><path class="cls-1" d="M27.7,40.71A2.6,2.6,0,0,0,30,37.85L27.91,19.23a3.36,3.36,0,0,0-.11-.35,2.57,2.57,0,0,0-.18-.54,2.17,2.17,0,0,0-.28-.39,2.11,2.11,0,0,0-.32-.37,1.76,1.76,0,0,0-.48-.3,1.41,1.41,0,0,0-.31-.19A40.51,40.51,0,0,0,16,14.9L16,15c-.32,0-.64-.08-1-.08s-.63.05-1,.08l0-.07A40.23,40.23,0,0,0,4,17l-.13,0-.05,0c-.07,0-.09.06-.15.08A2.39,2.39,0,0,0,3,17.6a2,2,0,0,0-.23.28,2.12,2.12,0,0,0-.35.48,2.44,2.44,0,0,0-.18.51c0,.13-.09.24-.11.37L0,37.85A2.6,2.6,0,0,0,2.3,40.71h.3a2.57,2.57,0,0,0,2.56-2.3L7,21.48l.71-.22V38.91L5.7,64.5a3.1,3.1,0,0,0,2.85,3.34H8.8A3.1,3.1,0,0,0,11.89,65l1.85-23.12a3.07,3.07,0,0,0,2.51,0L18.11,65a3.11,3.11,0,0,0,3.1,2.86h.24A3.09,3.09,0,0,0,24.3,64.5L22.24,38.91V21.26l.71.2,1.89,17a2.59,2.59,0,0,0,2.56,2.3Z"/></g></g></svg>