<svg xmlns="http://www.w3.org/2000/svg" viewBox="0 0 53.8 57.39"><defs><style>.cls-1{opacity:0.4;}.cls-2{fill:#b81f3c;}</style></defs><title>prisao</title><g id="Camada_2" data-name="Camada 2"><g id="Layer_1" data-name="Layer 1"><g class="cls-1"><path class="cls-2" d="M52,0H1.79A1.79,1.79,0,0,0,0,1.79v53.8a1.79,1.79,0,0,0,1.79,1.79H52a1.79,1.79,0,0,0,1.79-1.79V1.79A1.79,1.79,0,0,0,52,0ZM28.69,3.59h9v7.17h-9Zm-12.55,0h9v7.17h-9Zm-3.59,7.17a1.79,1.79,0,0,0-1.79,1.79V44.83a1.79,1.79,0,0,0,1.79,1.79V53.8h-9V3.59h9Zm12.55,43h-9V46.63h9Zm12.55,0h-9V46.63h9ZM39.45,43H14.35V14.35H39.45ZM50.21,53.8h-9V46.63A1.79,1.79,0,0,0,43,44.83V12.55a1.79,1.79,0,0,0-1.79-1.79V3.59h9Zm0,0"/><path class="cls-2" d="M19.73,39.45H34.07a1.79,1.79,0,0,0,1.79-1.79V30.49a1.79,1.79,0,0,0-1.79-1.79h0V25.11a7.17,7.17,0,1,0-14.35,0v3.59h0a1.79,1.79,0,0,0-1.79,1.79v7.17a1.79,1.79,0,0,0,1.79,1.79Zm7.17-3.59a1.79,1.79,0,1,1,1.79-1.79,1.79,1.79,0,0,1-1.79,1.79ZM23.31,25.11a3.59,3.59,0,0,1,7.17,0v3.59H23.31Zm0,0"/></g></g></g></svg>