<svg xmlns="http://www.w3.org/2000/svg" viewBox="0 0 144.27 95"><defs><style>.cls-1{fill:#b81f3c;}</style></defs><title>sp-35</title><g id="Camada_2" data-name="Camada 2"><g id="Layer_1" data-name="Layer 1"><path class="cls-1" d="M86.51,0h-1V1h1V0h0Zm-2,0h-1V1h1V0Zm-2,0h-1V1h1V0Zm-2,0h-1V1h1V0Zm-2,0h-1V1h1V0Zm-2,0h-1V1h1V0Zm-2,0h-1V1h1V0Zm-2,0h-1V1h1V0Zm-2,0h-1V1h1V0Zm-2,0h-1V1h1V0Zm-2,0h-1V1h1V0Zm-2,0h-1V1h1V0Zm-2,0h-1V1h1V0Zm-2,0h-1V1h1V0Zm-2,0h-1V1h1V0Zm-2,0h-1V1h1V0Zm-2,0h-1V1h1V0Zm-2,0h-1V1h1V0Zm-2,0h-1V1h1V0Zm-2,0h-1V1h1V0Zm-2,0h-1V1h1V0Zm-2,0h-1V1h1V0Zm-2,0h-1V1h1V0Zm-2,0h-1V1h1V0Zm-2,0h-1V1h1V0Zm-2,0h-1V1h1V0Zm-2,0h-1V1h1V0Zm-2,0h-1V1h1V0Zm-2,0h-1V1h1V0Zm-2,0h-1V1h1V0Zm-2,0h-1V1h1V0ZM24.58.11,24.12,1l.89.46.46-.89L24.58.11Zm-.92,1.78-.46.89.89.46.46-.89-.89-.46Zm-.92,1.78L22.56,4h0l-.26.51.89.46.46-.89-.89-.46Zm-.92,1.78-.16.3h0l-.3.57.89.46.46-.89-.89-.46Zm-.92,1.78-.35.67h0l-.09.18.89.46.46-.89-.89-.46ZM20,9l-.23.44h0l-.2.39.89.46.46-.89L20,9Zm-.92,1.78-.13.26h0l-.32.61.89.46.46-.89-.89-.46Zm-.92,1.78-.31.6h0l-.15.28.89.46.46-.89-.89-.46Zm-.92,1.78-.46.89.89.46.46-.89-.89-.46Zm-.92,1.78-.46.89.89.46.46-.89-.89-.46Zm-.92,1.78-.41.79h0l0,.09.89.46.46-.89-.89-.46Zm-.92,1.78-.41.79h0l0,0,.89.46.46-.89-.89-.46Zm-.92,1.78-.46.89.89.46.46-.89-.89-.46Zm-.92,1.78-.2.39h0l-.25.49.89.46.46-.89-.89-.46ZM11.75,25l-.24.47-.22.42.89.46.46-.89L11.75,25Zm-.92,1.78-.28.54h0l-.18.35.89.46.46-.89-.89-.46Zm-.92,1.78h0l-.46.89.89.46L10.8,29l-.89-.46ZM9,30.33l-.1.19h0v0h0l-.33.65.89.46.46-.89L9,30.33ZM8.08,32.1,8,32.24H8L7.62,33l.89.46L9,32.56l-.89-.46Zm-.92,1.78-.11.21h0l-.35.67.89.46.46-.89-.89-.46Zm-.92,1.78L6.09,36h0l-.29.57.89.46.46-.89-.89-.46Zm-.92,1.78-.12.24-.33.65.89.46.46-.89-.89-.46Zm-.92,1.78-.24.47h0v0h0L4,40.1l.89.46.46-.89-.89-.46ZM3.5,41l-.14.28h0l-.3.58.89.46.46-.89L3.5,41Zm-.92,1.78,0,.07h0l-.4.78.89.46.46-.89-.89-.46Zm-.92,1.78-.28.55-.18.34.89.46L2.55,45l-.89-.46ZM.75,46.32l-.24.46h0l-.5,1V48H1v-.42l.18.09.46-.89-.89-.46ZM3,47H2v1H3V47Zm2,0H4v1H5V47Zm2,0H6v1H7V47Zm2,0H8v1H9V47Zm2,0H10v1h1V47Zm2,0H12v1h1V47Zm2,0H14v1h1V47Zm2,0H16v1h1V47Zm2,0H18v1h1V47Zm2,0H20v1h1V47Zm2,0H22v1h1V47Zm2,0H24v1h1V47Zm2,0H26v1h1V47Zm2,0H28v1h1V47Zm2,0H30v1h1V47Zm2.49,0H32v1h.89l.05.1.88-.47-.05-.1L33.49,47Zm.8,1.52-.88.47.19.36.28.52.88-.47-.47-.88Zm.93,1.77-.88.47.47.88.88-.47-.47-.89Zm.93,1.77-.88.47.36.68h0v0h0l.09.18.88-.47-.47-.88Zm.93,1.77-.88.47.47.88.88-.47-.47-.88ZM38,55.6l-.88.47.47.88.88-.47L38,55.6Zm.93,1.77-.88.47.47.88.88-.47-.47-.88Zm.93,1.77L39,59.6l.47.88.88-.47-.47-.88Zm.93,1.77-.88.47.47.88.88-.47-.47-.88Zm.93,1.77-.88.47.47.88.88-.47-.47-.88Zm.93,1.77-.88.47.47.88.88-.47-.47-.88Zm.93,1.77-.88.47.47.88.88-.47-.47-.88ZM44.54,68l-.88.47.47.88.88-.47L44.54,68Zm.93,1.77-.88.47.47.89.88-.47-.47-.88Zm.93,1.77-.88.47.47.88.88-.47-.47-.88Zm.93,1.77-.88.47.47.88.88-.47-.47-.88Zm.93,1.77-.88.47.47.88.88-.47-.47-.88Zm.93,1.77-.88.47.2.39h0l.26.49.88-.47-.47-.88Zm.93,1.77-.88.47.47.88.88-.47-.47-.89Zm.93,1.77-.88.47.47.89.88-.47-.47-.88ZM52,82.14l-.88.47.18.34h0l.28.53.88-.47L52,82.14Zm.93,1.77-.88.47.47.88.88-.47-.47-.88Zm.93,1.77-.88.47.19.37h0l.27.51.88-.47-.47-.88Zm.93,1.77-.88.47.47.88.88-.47-.47-.88Zm.93,1.77-.88.47.36.68h0l.1.18.88-.47-.47-.89ZM56.66,91l-.88.47.47.89.88-.47L56.66,91Zm.93,1.77-.88.47.47.88.88-.47-.47-.88Zm1,1.24h-1v1h0v0h1V94Zm-1,1h0Zm3-1h-1v1h1V94Zm2,0h-1v1h1V94Zm2,0h-1v1h1V94Zm2,0h-1v1h1V94Zm2,0h-1v1h1V94Zm2,0h-1v1h1V94Zm2,0h-1v1h1V94Zm2,0h-1v1h1V94Zm2,0h-1v1h1V94Zm2,0h-1v1h1V94Zm2,0h-1v1h1V94Zm2,0h-1v1h1V94Zm2,0h-1v1h1V94Zm2,0h-1v1h1V94Zm2,0h-1v1h1V94Zm2,0h-1v1h1V94Zm2,0h-1v1h1V94Zm2,0h-1v1h1V94Zm2,0h-1v1h1V94Zm2,0h-1v1h1V94Zm2,0h-1v1h1V94Zm2,0h-1v1h1V94Zm2,0h-1v1h1V94Zm2,0h-1v1h1V94Zm2,0h-1v1h1V94Zm2,0h-1v1h1V94Zm2,0h-1v1h1V94Zm2,0h-1v1h1V94Zm2,0h-1v1h1V94Zm2,0h-1v1h1V94Zm.52-.45-.47.88.88.47L120,94l-.88-.47Zm.93-1.77-.47.88.88.47.47-.88-.88-.47ZM121,90l-.47.88.88.47.47-.89L121,90Zm.93-1.77-.47.88.88.47.19-.36h0l.27-.51-.88-.47Zm.93-1.77-.47.88.88.47.47-.88-.88-.47Zm.93-1.77-.47.88.88.47.47-.89-.88-.47Zm.93-1.77-.47.88.88.47.47-.88-.88-.47Zm.93-1.77-.47.88.88.47.36-.69h0l.1-.19-.88-.47Zm.93-1.77-.47.88.88.47.47-.88-.88-.47Zm.93-1.77-.47.88L128,79l.07-.14h0l0,0h0l0,0h0l0,0h0v0h0l0,0h0v0h0v0h.07v0h0l0,0h0l0,0h0l0-.07h0l.05-.1-.88-.47Zm.93-1.77-.47.88.88.47.47-.88-.88-.47Zm.93-1.77-.47.88.88.47.47-.88-.88-.47Zm.93-1.77-.47.88.88.47.47-.88-.88-.47Zm.93-1.77-.47.89.88.47.47-.88-.88-.47Zm.93-1.77-.47.88.88.47.47-.88-.88-.47Zm.93-1.77-.47.88.88.47.47-.88-.88-.47Zm.93-1.77-.47.89.88.47.32-.6h0l.15-.28-.88-.47Zm.93-1.77-.47.88.88.47.47-.88-.88-.47Zm.93-1.77-.47.88.88.47.47-.88-.88-.47Zm.93-1.77-.47.89.88.47.47-.88-.88-.47Zm.93-1.77-.47.88.88.47h0v0h0l.45-.85-.88-.47Zm.93-1.77-.47.88.88.47.21-.39.26-.5-.88-.47Zm.93-1.77-.47.89.88.47.47-.88-.88-.47Zm.93-1.77-.47.88.88.47.47-.88-.88-.47Zm.93-1.77-.47.88.88.47.18-.34h0l.28-.52-.88-.47Zm.93-1.77-.47.88.88.47.47-.88-.88-.47ZM144.26,48h-2v1h1v-.39l.53.28.47-.88Zm-3,0h-1v1h1V48Zm-2,0h-1v1h1V48Zm-2,0h-1v1h1V48Zm-2,0h-1v1h1V48Zm-2,0h-1v1h1V48Zm-2,0h-1v1h1V48Zm-2,0h-1v1h1V48Zm-2,0h-1v1h1V48Zm-2,0h-1v1h1V48Zm-2,0h-1v1h1V48Zm-2,0h-1v1h1V48Zm-2,0h-1v1h1V48Zm-2,0h-1v1h1V48Zm-2,0h-1v1h1V48Zm-2,0h-1v1h1V48Zm-2.46-.88-.89.46.46.88.28.54h.61V48h0l-.46-.88Zm-.92-1.78-.89.46.46.89.89-.46-.12-.24-.34-.65ZM109,43.56l-.89.46.46.89.89-.46-.16-.32h0l-.29-.57Zm-.92-1.78-.89.46.46.89.89-.46-.2-.38h0l-.25-.49ZM107.14,40l-.89.46.46.89.89-.46-.08-.15h0l-.38-.73Zm-.92-1.78-.89.46.46.89.89-.46-.11-.22h0v0h0l-.31-.61Zm-.92-1.78-.89.46.46.89.89-.46v0h0l-.43-.83Zm-.92-1.78-.89.46L104,36l.89-.46-.46-.89Zm-.92-1.78-.89.46.46.89.89-.46-.24-.46h0l-.22-.42Zm-.92-1.78-.89.46.46.89L103,32l-.2-.38-.26-.51Zm-.92-1.78-.89.46.46.89.89-.46-.46-.89Zm-.92-1.78-.89.46.46.89.89-.46-.36-.69h0v0h0l-.08-.15Zm-.92-1.78-.89.46.46.89.89-.46-.26-.5h0l-.19-.36ZM98.89,24l-.89.46.46.89.89-.46L99,24.21h0l-.1-.2ZM98,22.23l-.89.46.46.89.89-.46-.32-.61h0L98,22.23Zm-.92-1.78-.89.46.46.89.89-.46-.32-.63h0l-.13-.25Zm-.92-1.78-.89.46.46.89.89-.46-.37-.71-.09-.18Zm-.92-1.78-.89.46.46.89.89-.46-.25-.49h0v0h0l-.17-.33Zm-.92-1.78-.89.46.46.89.89-.46-.39-.75h0l0-.05Zm-.92-1.78-.89.46.46.89.89-.46-.16-.3h0l-.3-.57Zm-.92-1.78-.89.46.46.89.89-.46-.2-.38h0l-.26-.5Zm-.92-1.78-.89.46.46.89.89-.46-.23-.44h0l-.23-.44ZM90.64,8l-.89.46.46.89.89-.46L90.64,8Zm-.92-1.78-.89.46.46.89.89-.46-.46-.89Zm-.92-1.78-.89.46.46.89.89-.46,0,0h0l-.42-.82Zm-.92-1.78L87,3.13l.46.89.89-.46-.46-.89ZM87,.9l-.89.46.46.89.89-.46L87,.9Z"/><polygon class="cls-1" points="41.34 62.5 136.48 62.5 119.52 94.5 57.77 94.5 41.34 62.5"/></g></g></svg>