<svg xmlns="http://www.w3.org/2000/svg" viewBox="0 0 31.22 39.96"><g><path d="M29.35,0H1.87A1.88,1.88,0,0,0,0,1.87V38.09A1.88,1.88,0,0,0,1.87,40H29.35a1.88,1.88,0,0,0,1.87-1.87V1.87A1.88,1.88,0,0,0,29.35,0ZM1.87,1.25H29.35a.63.63,0,0,1,.62.62V17.48H1.25V1.87a.62.62,0,0,1,.62-.62ZM29.35,38.71H1.87a.63.63,0,0,1-.62-.62V18.73H30V38.09a.63.63,0,0,1-.62.63Zm0,0"/><path d="M8.74,10.61a3.13,3.13,0,0,0,3.12-3.12V6.87a3.12,3.12,0,0,0-6.24,0v.63a3.13,3.13,0,0,0,3.12,3.12ZM6.87,6.87a1.87,1.87,0,0,1,3.75,0v.63a1.87,1.87,0,0,1-3.75,0Zm0,0"/><path d="M4.89,15.61h7.7a1.14,1.14,0,0,0,1.14-1.14V13.11a2.55,2.55,0,0,0-.68-1.63,2.42,2.42,0,0,0-1.81-.85h-.53a.62.62,0,0,0-.53.3,1.74,1.74,0,0,1-1.44.93,1.75,1.75,0,0,1-1.44-.93.62.62,0,0,0-.53-.3H6.24a2.62,2.62,0,0,0-2.49,2.48v1.35a1.15,1.15,0,0,0,1.15,1.15Zm.1-2.5a1.37,1.37,0,0,1,1.24-1.23h.2a2.88,2.88,0,0,0,2.3,1.23A2.88,2.88,0,0,0,11,11.88h.2a1.37,1.37,0,0,1,1.24,1.23v1.25H5Zm0,0"/><path d="M15.61,5.62h6.87a.62.62,0,1,0,0-1.25H15.61a.62.62,0,1,0,0,1.25Zm0,0"/><path d="M15.61,10.61h1.87a.62.62,0,1,0,0-1.25H15.61a.62.62,0,1,0,0,1.25Zm0,0"/><path d="M21.85,9.37H20a.62.62,0,1,0,0,1.25h1.87a.62.62,0,1,0,0-1.25Zm0,0"/><path d="M26.22,9.37H24.35a.62.62,0,1,0,0,1.25h1.87a.62.62,0,0,0,0-1.25Zm0,0"/><path d="M15.61,8.12H26.22a.62.62,0,0,0,0-1.25H15.61a.62.62,0,1,0,0,1.25Zm0,0"/><path d="M4.37,21.85H5.62a.62.62,0,1,0,0-1.25H4.37a.62.62,0,1,0,0,1.25Zm0,0"/><path d="M26.85,20.61H8.74a.62.62,0,1,0,0,1.25H26.85a.62.62,0,1,0,0-1.25Zm0,0"/><path d="M4.37,24.35H5.62a.62.62,0,0,0,0-1.25H4.37a.62.62,0,0,0,0,1.25Zm0,0"/><path d="M26.85,23.1H8.74a.62.62,0,0,0,0,1.25H26.85a.62.62,0,0,0,0-1.25Zm0,0"/><path d="M19.36,26.85h-15a.62.62,0,1,0,0,1.25h15a.62.62,0,1,0,0-1.25Zm0,0"/><path d="M16.86,31.84H4.37a.62.62,0,1,0,0,1.25H16.86a.62.62,0,1,0,0-1.25Zm0,0"/><path d="M4.37,30.6h10a.62.62,0,0,0,0-1.25h-10a.62.62,0,0,0,0,1.25Zm0,0"/><path d="M11.24,34.34H4.37a.62.62,0,1,0,0,1.25h6.87a.62.62,0,1,0,0-1.25Zm0,0"/><path d="M26.85,34.34h-2.5a.62.62,0,1,0,0,1.25h2.5a.62.62,0,1,0,0-1.25Zm0,0"/><path d="M26.85,31.84H25.6a.62.62,0,1,0,0,1.25h1.25a.62.62,0,1,0,0-1.25Zm0,0"/></g></svg>