<?xml version="1.0" encoding="UTF-8" standalone="no"?>
<svg width="28px" height="18px" viewBox="0 0 28 18" version="1.1" xmlns="http://www.w3.org/2000/svg" xmlns:xlink="http://www.w3.org/1999/xlink">
    <!-- Generator: Sketch 3.6.1 (26313) - http://www.bohemiancoding.com/sketch -->
    <title>populacao</title>
    <desc>Created with Sketch.</desc>
    <defs></defs>
    <g id="Stickersheet" stroke="none" stroke-width="1" fill="none" fill-rule="evenodd">
        <g id="DESK-DADOS" transform="translate(-617.000000, -89.000000)" fill="#FFFFFF">
            <g id="Menu" transform="translate(-6.000000, 0.000000)">
                <g id="Menu-Dashboard" transform="translate(526.000000, 89.000000)">
                    <g id="populacao" transform="translate(86.000000, 0.000000)">
                        <path d="M23.9864486,2.40372642 C23.7947089,1.04302004 22.6361006,0 21.220336,0 C19.8059383,0 18.6395686,1.04226186 18.4457699,2.40224261 C19.6520913,2.62552444 20.6611792,3.39347655 21.2152052,4.44272736 C21.7712671,3.39578838 22.7820984,2.62890988 23.9864486,2.40372642 Z M31.4889975,2.40372642 C31.2972579,1.04302004 30.1386496,0 28.7228849,0 C27.3084872,0 26.1421176,1.04226186 25.9483188,2.40224261 C27.1546403,2.62552444 28.1637281,3.39347655 28.7177541,4.44272736 C29.2738161,3.39578838 30.2846474,2.62890988 31.4889975,2.40372642 Z M32.4595505,9.80997347 C34.0109278,9.80997347 35.2535244,8.558034 35.2535244,7.00712391 C35.2535244,5.45668096 34.0109278,4.20427435 32.4595505,4.20427435 C30.9091076,4.20427435 29.656701,5.45668096 29.656701,7.00712391 C29.656701,8.558034 30.9091076,9.80997347 32.4595505,9.80997347 Z M14.7086371,7.00712391 C14.7086371,5.45668096 15.9512338,4.20427435 17.502611,4.20427435 C19.0530539,4.20427435 20.3054606,5.45668096 20.3054606,7.00712391 C20.3054606,8.558034 19.0530539,9.80997347 17.502611,9.80997347 C15.9512338,9.80997347 14.7086371,8.558034 14.7086371,7.00712391 Z M17.5404495,11.6785398 C17.8109244,11.6785398 18.119705,11.6976927 18.446237,11.7257211 C17.3624685,12.510519 16.6056991,13.5657919 16.6056991,14.9489981 L16.6056991,17.284239 L11,17.284239 L11,14.9489981 C11,12.7716512 15.3631025,11.6785398 17.5404495,11.6785398 Z M25.0142478,9.80997347 C26.5651579,9.80997347 27.8077546,8.558034 27.8077546,7.00712391 C27.8077546,5.45668096 26.5651579,4.20427435 25.0142478,4.20427435 C23.4633377,4.20427435 22.2113983,5.45668096 22.2113983,7.00712391 C22.2113983,8.558034 23.4633377,9.80997347 25.0142478,9.80997347 Z M24.9857522,11.6785398 C22.8088724,11.6785398 18.4457699,12.7716512 18.4457699,14.9489981 L18.4457699,17.284239 L31.5257345,17.284239 L31.5257345,14.9489981 C31.5257345,12.7716512 27.162632,11.6785398 24.9857522,11.6785398 Z M32.4595505,11.6785398 C32.1890756,11.6785398 31.880295,11.6976927 31.553763,11.7257211 C32.6375315,12.510519 33.3943009,13.5657919 33.3943009,14.9489981 L33.3943009,17.284239 L39,17.284239 L39,14.9489981 C39,12.7716512 34.6368975,11.6785398 32.4595505,11.6785398 Z"></path>
                    </g>
                </g>
            </g>
        </g>
    </g>
</svg>