<?xml version="1.0" encoding="UTF-8" standalone="no"?>
<svg width="20px" height="20px" viewBox="0 0 20 20" version="1.1" xmlns="http://www.w3.org/2000/svg" xmlns:xlink="http://www.w3.org/1999/xlink">
    <!-- Generator: Sketch 3.6.1 (26313) - http://www.bohemiancoding.com/sketch -->
    <title>icone unidades</title>
    <desc>Created with Sketch.</desc>
    <defs></defs>
    <g id="Stickersheet" stroke="none" stroke-width="1" fill="none" fill-rule="evenodd">
        <g id="DESK-DADOS" transform="translate(-720.000000, -89.000000)" fill="#FFFFFF">
            <g id="Menu" transform="translate(-6.000000, 0.000000)">
                <g id="Menu-Dashboard" transform="translate(526.000000, 89.000000)">
                    <g id="unidades" transform="translate(189.000000, 0.000000)">
                        <g id="icone-unidades" transform="translate(11.000000, 0.000000)">
                            <path d="M19.6765144,19.6764819 L0,19.6764819 L0,0 L19.6765136,0 L19.6765136,19.6764819 L19.6765144,19.6764819 Z M2.51183791,17.1646439 L17.1646772,17.1646439 L17.1646772,2.51183804 L2.51183791,2.51183804 L2.51183791,17.1646439 L2.51183791,17.1646439 Z" id="Shape"></path>
                            <path d="M4,4 L5.8322602,4 L5.8322602,15.9839788 L4,15.9839788 L4,4 Z M7.36661578,4 L9.19903334,4 L9.19903334,15.9839788 L7.36661578,15.9839788 L7.36661578,4 Z M10.7333885,4 L12.5657743,4 L12.5657743,15.9839788 L10.7333885,15.9839788 L10.7333885,4 Z M14.100006,4 L15.9323918,4 L15.9323918,15.9839788 L14.100006,15.9839788 L14.100006,4 Z" id="Combined-Shape"></path>
                        </g>
                    </g>
                </g>
            </g>
        </g>
    </g>
</svg>