<?xml version="1.0" encoding="UTF-8" standalone="no"?>
<svg width="19px" height="20px" viewBox="0 0 19 20" version="1.1" xmlns="http://www.w3.org/2000/svg" xmlns:xlink="http://www.w3.org/1999/xlink">
    <!-- Generator: Sketch 3.6.1 (26313) - http://www.bohemiancoding.com/sketch -->
    <title>politicas</title>
    <desc>Created with Sketch.</desc>
    <defs></defs>
    <g id="Stickersheet" stroke="none" stroke-width="1" fill="none" fill-rule="evenodd">
        <g id="DESK-DADOS" transform="translate(-816.000000, -89.000000)" fill="#FFFFFF">
            <g id="Menu" transform="translate(-6.000000, 0.000000)">
                <g id="Menu-Dashboard" transform="translate(526.000000, 89.000000)">
                    <g id="políticas-públicas" transform="translate(284.000000, 0.000000)">
                        <path d="M28.63625,1.6625 L25.1608333,1.6625 C24.8116667,0.698333333 23.8970833,0 22.81625,0 C21.7354167,0 20.8208333,0.698333333 20.4716667,1.6625 L16.99625,1.6625 C16.0816667,1.6625 15.3333333,2.41083333 15.3333333,3.32541667 L15.3333333,14.9658333 C15.3333333,15.8804167 16.0816667,16.62875 16.99625,16.62875 L28.63625,16.62875 C29.5508333,16.62875 30.2991667,15.8804167 30.2991667,14.9658333 L30.2991667,3.32541667 C30.2991667,2.41083333 29.5508333,1.6625 28.63625,1.6625 L28.63625,1.6625 Z M22.81625,1.6625 C23.2733333,1.6625 23.6475,2.03666667 23.6475,2.49416667 C23.6475,2.95166667 23.2733333,3.32541667 22.81625,3.32541667 C22.35875,3.32541667 21.9845833,2.95166667 21.9845833,2.49416667 C21.9845833,2.03666667 22.35875,1.6625 22.81625,1.6625 L22.81625,1.6625 Z M18.6591667,11.64 L24.4791667,11.64 L24.4791667,13.3029167 L18.6591667,13.3029167 L18.6591667,11.64 Z M18.6591667,8.31416667 L26.97375,8.31416667 L26.97375,9.97708333 L18.6591667,9.97708333 L18.6591667,8.31416667 Z M18.6591667,4.98833333 L26.97375,4.98833333 L26.97375,6.65125 L18.6591667,6.65125 L18.6591667,4.98833333 Z M13.6666667,6.66666667 L12,6.66666667 L12,18.3333333 C12,19.25 12.75,20 13.6666667,20 L25.3333333,20 L25.3333333,18.3333333 L13.6666667,18.3333333 L13.6666667,6.66666667 Z" id="politicas"></path>
                    </g>
                </g>
            </g>
        </g>
    </g>
</svg>