<svg xmlns="http://www.w3.org/2000/svg" viewBox="0 0 35 35"><path d="M17.5,0A17.5,17.5,0,1,0,35,17.5,17.49,17.49,0,0,0,17.5,0ZM12.22,2.38A25.09,25.09,0,0,0,9.85,6.48h-4a15.86,15.86,0,0,1,6.34-4.09ZM4.62,8h4.6a26.35,26.35,0,0,0-1.76,8.79H1.51A16,16,0,0,1,4.62,8ZM4.62,27a16,16,0,0,1-3.11-8.79H7.46A26.22,26.22,0,0,0,9.25,27Zm1.25,1.49h4a26.91,26.91,0,0,0,2.36,4.11,15.93,15.93,0,0,1-6.37-4.11Zm10.88,5a16.93,16.93,0,0,1-2.2-.25,25.27,25.27,0,0,1-3-4.72h5.23Zm0-6.46H10.85a24.9,24.9,0,0,1-1.9-8.79h7.81Zm0-10.28H8.95A25.08,25.08,0,0,1,10.84,8h5.92Zm0-10.28H11.52a24.49,24.49,0,0,1,3-4.72,16.24,16.24,0,0,1,2.2-.25ZM30.38,8a15.9,15.9,0,0,1,3.11,8.79H27.54A26.21,26.21,0,0,0,25.75,8ZM29.12,6.48h-4a26.25,26.25,0,0,0-2.37-4.11,15.92,15.92,0,0,1,6.38,4.11Zm-10.88-5a17.63,17.63,0,0,1,2.2.25,25.37,25.37,0,0,1,3,4.72H18.24Zm0,6.45h5.9a24.88,24.88,0,0,1,1.9,8.79H18.24Zm0,10.28h7.81A25.08,25.08,0,0,1,24.16,27H18.24Zm0,15.24v-5h5.25a24.43,24.43,0,0,1-3,4.72,15.64,15.64,0,0,1-2.2.25Zm4.51-.86a26.2,26.2,0,0,0,2.36-4.11h4a16,16,0,0,1-6.38,4.11Zm3-5.6a27.52,27.52,0,0,0,1.8-8.79h6A16,16,0,0,1,30.38,27Zm0,0"/></svg>