<svg xmlns="http://www.w3.org/2000/svg" viewBox="0 0 156.98 156.98"><path class="cls-1" d="M156.56,76.5,136.94,32.35a4.91,4.91,0,0,0-4.48-2.91H92.31a14.7,14.7,0,0,0-8.91-8.91V4.91a4.91,4.91,0,1,0-9.81,0V20.53a14.7,14.7,0,0,0-8.91,8.91H24.53A4.91,4.91,0,0,0,20,32.35L.43,76.5a4.84,4.84,0,0,0-.28,3.18L5.05,99.3A4.91,4.91,0,0,0,9.81,103H49.06a4.91,4.91,0,0,0,4.76-3.72l4.9-19.62a5,5,0,0,0-.28-3.18L41.89,39.25H64.68a14.69,14.69,0,0,0,8.91,8.91v82.27L55.4,148.61A4.9,4.9,0,0,0,58.87,157H98.12a4.9,4.9,0,0,0,3.47-8.37L83.4,130.42V48.15a14.7,14.7,0,0,0,8.91-8.91H115.1L98.54,76.5a5,5,0,0,0-.28,3.18l4.91,19.62a4.91,4.91,0,0,0,4.76,3.72h39.25a4.91,4.91,0,0,0,4.76-3.72l4.91-19.62a4.9,4.9,0,0,0-.28-3.18ZM45.23,93.21H13.64L11.19,83.4H47.68Zm1.19-19.62h-34L27.72,39.25h3.44Zm39.86,73.58H70.71l7.78-7.78ZM78.49,39.25a4.91,4.91,0,1,1,4.9-4.91,4.91,4.91,0,0,1-4.9,4.91Zm47.34,0h3.44l15.26,34.34h-34Zm17.51,54H111.76L109.3,83.4h36.49Zm0,0"/></svg>