<svg xmlns="http://www.w3.org/2000/svg" xmlns:xlink="http://www.w3.org/1999/xlink" id="svg2" viewBox="65.203 177.624 439.718 280.752">
    <path class="fem" d="M335.06 214.44l4.14.44 4.09.64 4.01.82 3.95 1.01 3.87 1.19 3.78 1.35 3.7 1.53 3.61 1.69 3.52 1.85 3.41 2 3.31 2.16 3.21 2.29 3.08 2.44 2.97 2.58 2.85 2.7 2.72 2.83 2.59 2.95 2.45 3.07 2.31 3.18 2.16 3.29 2.01 3.39 1.86 3.49 1.69 3.58 1.53 3.67 1.37 3.76 1.18 3.83 1.01 3.91.83 3.97.64 4.05.44 4.1.25 4.16.05 4.2-.16 4.26-.37 4.29-.59 4.33-.45 2.6-.54 2.57-.62 2.55-.7 2.51-.78 2.49-.86 2.46-.94 2.42-1.02 2.4-1.08 2.35-1.16 2.32-1.24 2.28-1.3 2.24-1.37 2.2-1.43 2.16-1.5 2.11-1.56 2.07-1.62 2.02-1.69 1.97-1.74 1.92-1.8 1.86-1.85 1.82-1.91 1.76-1.96 1.7-2.01 1.64-2.05 1.59-2.11 1.52-2.15 1.46-2.19 1.4-2.24 1.33-2.28 1.26-2.31 1.19-2.36 1.13-2.39 1.05-2.42.98-2.46.9-2.49.82-2.52.75-2.54.67-2.58.59-2.59.51-1.68.27-1.68.24-1.66.21-1.66.18-1.66.15-1.64.12-1.64.08-1.63.06-1.63.03-1.62-.01-1.61-.03-1.6-.06-1.59-.1-1.58-.12-1.58-.15-1.56-.18-1.56-.2-1.54-.24-1.54-.26-1.53-.29-1.51-.32-1.51-.35-1.5-.37-1.48-.4-1.47-.42-1.47-.46-1.45-.47-1.44-.51-1.42-.53-1.42-.55-1.4-.58-1.39-.61-1.38-.63-1.36-.65-1.35-.68-1.34-.71-1.32-.72-1.31-.76-1.3-.77-1.28-.8-.12-.06-.11-.05-.12-.05-.11-.05-.12-.05-.12-.04-.11-.04-.12-.03-.11-.03-.12-.03-.12-.03-.11-.02-.12-.01-.11-.02-.12-.01h-.35l-.11.01-.12.01-.12.02-.11.02-.12.02-.11.03-.12.04-.11.04-.12.04-.12.05-.11.06-.12.05-.11.07-.12.07-.12.07-.11.08-.12.09-.11.09-.12.09-.12.11-.11.1-.12.12-4.65 4.64-.11.12-.11.12-.1.12-.09.13-.09.13-.09.13-.08.13-.07.13-.06.14-.07.14-.05.14-.05.14-.04.14-.04.14-.03.14-.03.15-.02.14-.01.14-.01.15V379.68l.01.14.01.15.02.14.03.14.03.15.04.14.04.14.05.14.05.13.07.14.06.13.07.14.08.13.09.12.09.13.09.12.1.12.11.12.11.11 9.29 9.29.23.24.21.24.2.24.2.25.18.26.17.26.15.26.15.27.13.27.12.27.11.28.1.28.09.28.08.29.06.28.05.29.04.29.03.29.02.29.01.29-.01.29-.02.29-.03.29-.04.29-.05.28-.06.29-.08.28-.09.28-.1.28-.11.28-.12.28-.13.27-.15.26-.15.27-.17.26-.18.25-.2.25-.2.25-.21.24-.23.23-10.83 10.84-.24.22-.24.22-.24.2-.25.19-.26.18-.26.17-.26.16-.27.15-.27.13-.27.12-.28.11-.28.1-.28.09-.29.07-.28.07-.29.05-.29.04-.29.03-.29.02h-.58l-.29-.02-.29-.03-.29-.04-.28-.05-.29-.07-.28-.07-.29-.09-.28-.1-.27-.11-.28-.12-.27-.13-.26-.15-.27-.16-.26-.17-.25-.18-.25-.19-.25-.2-.24-.22-.23-.22-9.29-9.29-.11-.11-.12-.11-.12-.1-.13-.1-.12-.09-.13-.08-.13-.08-.13-.07-.14-.07-.13-.06-.14-.06-.14-.04-.14-.05-.14-.04-.14-.03-.14-.02-.15-.02-.14-.02-.15-.01H249.65l-.14.01-.15.02-.14.02-.14.02-.15.03-.14.04-.14.05-.14.04-.14.06-.14.06-.13.07-.14.07-.13.08-.13.08-.13.09-.12.1-.13.1-.12.11-.11.11-9.29 9.29-.23.22-.25.22-.24.2-.25.19-.26.18-.26.17-.26.16-.27.15-.27.13-.27.12-.28.11-.27.1-.29.09-.28.07-.28.07-.29.05-.29.04-.28.03-.29.02h-.58l-.29-.02-.29-.03-.28-.04-.29-.05-.28-.07-.29-.07-.28-.09-.28-.1-.27-.11-.27-.12-.28-.13-.26-.15-.27-.16-.25-.17-.26-.18-.25-.19-.25-.2-.24-.22-.23-.22-10.84-10.84-.22-.23-.22-.24-.2-.25-.19-.25-.18-.25-.17-.26-.15-.27-.15-.26-.13-.27-.12-.28-.11-.28-.1-.28-.09-.28-.08-.28-.06-.29-.05-.28-.04-.29-.03-.29-.02-.29v-.58l.02-.29.03-.29.04-.29.05-.29.06-.28.08-.29.09-.28.1-.28.11-.28.12-.27.13-.27.15-.27.15-.26.17-.26.18-.26.19-.25.2-.24.22-.24.22-.24 9.29-9.29.11-.06.11-.07.1-.07.1-.09.09-.09.08-.1.08-.11.07-.11.06-.12.06-.13.05-.13.04-.14.04-.14.03-.15.03-.15.01-.16.01-.16.01-.17-.01-.17-.01-.17-.02-.17-.02-.18-.04-.18-.04-.18-.05-.19-.05-.18-.07-.19-.07-.18-.08-.19-.08-.19-.1-.19-.1-.18-.11-.19-.12-.19-.13-.18-.14-.19-.15-.18-.15-.18-.16-.17-.17-.18-9.29-9.28-.22-.24-.21-.24-.2-.25-.19-.25-.18-.25-.17-.26-.15-.26-.14-.27-.14-.27-.12-.28-.1-.27-.1-.28-.09-.28-.07-.29-.07-.28-.05-.29-.04-.29-.03-.29-.01-.29-.01-.29.01-.29.01-.29.03-.29.04-.29.05-.28.07-.29.07-.28.09-.28.1-.28.1-.28.12-.28.14-.27.14-.26.15-.27.17-.26.18-.25.19-.26.2-.24.21-.24.22-.24 10.84-10.83.23-.22.24-.22.25-.2.25-.19.25-.17.26-.17.27-.15.27-.15.27-.13.27-.12.28-.11.28-.09.28-.09.29-.08.28-.06.29-.05.29-.04.29-.03.29-.02h.58l.29.02.28.03.29.04.29.05.29.06.28.08.28.09.28.09.28.11.27.12.27.13.27.15.26.15.26.17.26.17.25.19.24.2.24.22.24.22 9.28 9.28.12.12.12.11.13.1.12.09.13.09.13.09.13.08.13.07.14.06.14.07.13.05.14.05.14.04.15.04.14.03.14.03.14.02.15.01.14.01.15.01.14-.01.15-.01.14-.01.14-.02.15-.03.14-.03.14-.04.14-.04.14-.05.14-.05.13-.07.14-.06.13-.07.13-.08.13-.09.13-.09.13-.09.12-.1.12-.11.12-.12 4.63-4.63.12-.06.11-.07.1-.07.1-.08.09-.08.08-.08.08-.09.08-.1.07-.1.06-.1.06-.11.05-.11.05-.11.05-.12.04-.12.03-.12.03-.12.03-.13.02-.13.02-.13.01-.13.01-.13v-.27l-.01-.14v-.13l-.02-.14-.01-.14-.02-.13-.03-.14-.03-.13-.03-.14-.03-.13-.04-.13-.04-.13-.05-.12-.05-.13-.05-.12-.06-.12-.05-.12-.8-1.28-.78-1.3-.76-1.31-.74-1.32-.71-1.34-.7-1.35-.67-1.36-.65-1.38-.62-1.39-.61-1.4-.57-1.42-.56-1.42-.53-1.44-.5-1.45-.48-1.47-.46-1.47-.42-1.48-.4-1.5-.38-1.51-.35-1.51-.32-1.53-.29-1.54-.26-1.54-.24-1.56-.2-1.56-.18-1.58-.14-1.58-.12-1.59-.09-1.6-.05-1.61-.03-1.62.01-1.62.04-1.63.07-1.64.11-1.65.14-1.65.17-1.66.2-1.67.24-1.67.28-1.68.44-2.65.54-2.62.62-2.59.7-2.56.78-2.52.86-2.49.93-2.45 1.02-2.41 1.08-2.38 1.16-2.33 1.23-2.29 1.3-2.25 1.37-2.2 1.44-2.16 1.5-2.11 1.56-2.06 1.62-2.01 1.69-1.96 1.74-1.9 1.79-1.86 1.86-1.79 1.9-1.75 1.96-1.68 2.01-1.63 2.06-1.56 2.1-1.5 2.15-1.44 2.2-1.38 2.23-1.31 2.28-1.25 2.32-1.17 2.35-1.11 2.39-1.03 2.42-.97 2.46-.89 2.48-.81 2.52-.74 2.54-.67 2.57-.58 2.6-.5 4.39-.59 4.35-.37 4.31-.16 4.25.04 4.21.25zm-9.75 31.92l-2.19.22-2.17.3-2.14.39-2.1.47-2.08.55-2.04.62-2 .71-1.97.78-1.92.85-1.88.92-1.84.99-1.8 1.07-1.75 1.12-1.7 1.2-1.65 1.25-1.6 1.32-1.55 1.38-1.49 1.43-1.43 1.5-1.38 1.54-1.32 1.6-1.25 1.66-1.2 1.7-1.12 1.75-1.06 1.79-1 1.85-.92 1.88-.85 1.93-.78 1.96-.71 2.01-.62 2.04-.55 2.08-.47 2.1-.39 2.15-.3 2.17-.22 2.2-.13 2.22-.05 2.25.05 2.25.13 2.22.22 2.2.3 2.16.39 2.14.47 2.11.55 2.07.62 2.04.71 2 .78 1.97.85 1.92.92 1.89 1 1.84 1.06 1.79 1.12 1.75 1.2 1.7 1.25 1.65 1.32 1.6 1.38 1.55 1.43 1.49 1.49 1.43 1.55 1.38 1.6 1.32 1.65 1.25 1.7 1.19 1.75 1.13 1.8 1.06 1.84 1 1.88.92 1.92.85 1.97.78 2 .7 2.04.63 2.08.55 2.1.47 2.14.38 2.17.31 2.19.22 2.23.13 2.24.04 2.25-.04 2.23-.13 2.2-.22 2.17-.31 2.14-.38 2.11-.47 2.07-.55 2.04-.63 2.01-.7 1.96-.78 1.93-.85 1.89-.92 1.84-1 1.79-1.06 1.75-1.13 1.71-1.19 1.65-1.25 1.6-1.32 1.55-1.38 1.49-1.43 1.44-1.49 1.37-1.55 1.32-1.6 1.26-1.65 1.19-1.7 1.13-1.75 1.06-1.79.99-1.84.93-1.89.85-1.92.78-1.97.7-2 .63-2.04.55-2.07.47-2.11.39-2.14.3-2.16.22-2.2.13-2.22.05-2.25-.05-2.25-.13-2.22-.22-2.2-.3-2.17-.39-2.15-.47-2.1-.55-2.08-.63-2.04-.7-2.01-.78-1.96-.85-1.93-.93-1.88-.99-1.85-1.06-1.79-1.13-1.75-1.19-1.7-1.26-1.66-1.32-1.6-1.37-1.54-1.44-1.5-1.49-1.43-1.55-1.38-1.6-1.32-1.65-1.25-1.71-1.2-1.75-1.12-1.79-1.07-1.84-.99-1.89-.92-1.93-.85-1.96-.78-2.01-.71-2.04-.62-2.07-.55-2.11-.47-2.14-.39-2.17-.3-2.2-.22-2.23-.14-2.25-.04-2.24.04-2.23.14z"
    />
    <g class="grid">
        <path d="M490 187.12V436" />
        <path d="M490 238.5H107" />
        <path d="M413.65 187.81v248.88" />
        <path d="M490 287.5H107" />
        <path d="M337.65 187.81v248.88" />
        <path d="M490 337.5H107" />
        <path d="M260.15 187.12V436" />
        <path d="M183.15 188.5v248.88" />
        <path d="M490 436H107" />
        <path d="M107 188.5V436" />
        <path d="M490 187.12H107" />
        <path d="M490 386.5H107" />
    </g>
    <g class="eixos">
        <g class="x">
            <text x="94" y="455">2006</text>
            <text x="170" y="455">2008</text>
            <text x="245" y="455">2010</text>
            <text x="325" y="455">2012</text>
            <text x="400" y="455">2014</text>
            <text x="476" y="455">2016</text>
        </g>
        <g class="y">
            <text x="66" y="390">10.000</text>
            <text x="66" y="340">20.000</text>
            <text x="66" y="290">30.000</text>
            <text x="66" y="242">40.000</text>
            <text x="66" y="194">50.000</text>
        </g>
    </g>
    <g class="linha">
        <path d="M491.25 231.02l-37.67 20.19-38.69.19-37.82 22.18-39.17 4.19-39.4 13.2-38.64 6.19-37.83 19.18-39.63 13.19-26.79 8.67-49.86 13.71"/>
    </g>
</svg>