<svg xmlns="http://www.w3.org/2000/svg" viewBox="0 0 505 255">
  <path d="M20.803 22.703c0 4.514 3.655 9.75 8.187 9.75 4.497 0 8.17-5.22 8.17-9.75 0-4.516-3.675-8.17-8.17-8.17-4.515 0-8.187 3.655-8.187 8.17M44.86 65.418c1.763-.2 3.038-1.795 2.853-3.572l-2.6-23.273c-.016-.15-.098-.283-.133-.433-.07-.238-.103-.455-.22-.67-.087-.184-.237-.338-.352-.488-.133-.17-.238-.34-.404-.47-.187-.17-.387-.27-.606-.37-.134-.088-.233-.188-.383-.238-.308-.116-6.798-2.45-12.79-2.75l-.052.1c-.4-.035-.804-.1-1.208-.1-.388 0-.788.065-1.19.1l-.05-.08c-5.453.28-11.33 2.21-12.535 2.65-.07.015-.1.032-.168.045l-.07.034c-.08.017-.116.07-.184.102-.3.134-.6.284-.855.52-.114.1-.183.233-.282.353-.166.2-.334.37-.436.6-.117.203-.15.42-.22.64-.03.17-.117.3-.134.47l-2.6 23.254c-.184 1.777 1.092 3.37 2.854 3.575.133.015.25.015.37.015 1.628 0 3.02-1.207 3.204-2.87l2.367-21.19c.268-.087.57-.167.89-.27V63.17l-2.57 31.98c-.166 2.147 1.427 4.01 3.558 4.178.1.02.2.02.316.02 1.997 0 3.694-1.53 3.862-3.576l2.315-28.894c.486.2 1.006.335 1.576.335.555 0 1.075-.133 1.56-.337l2.315 28.896c.168 2.044 1.866 3.574 3.88 3.574.1 0 .202 0 .3-.018 2.15-.167 3.724-2.032 3.557-4.18l-2.57-31.978V41.105c.322.087.624.187.894.255l2.362 21.206c.185 1.644 1.58 2.87 3.204 2.87.12 0 .238-.02.37-.02"/>
  <path d="M21.774 159.135c0 4.515 3.655 9.75 8.188 9.75 4.496 0 8.17-5.22 8.17-9.75 0-4.515-3.675-8.17-8.17-8.17-4.515 0-8.188 3.656-8.188 8.17m24.058 42.716c1.762-.2 3.037-1.792 2.852-3.57l-2.6-23.272c-.016-.15-.097-.284-.132-.434-.07-.237-.104-.455-.22-.67-.088-.184-.238-.337-.353-.487-.135-.17-.24-.338-.406-.47-.188-.168-.388-.27-.607-.37-.134-.087-.233-.187-.383-.237-.306-.117-6.796-2.45-12.788-2.75l-.053.1c-.4-.036-.804-.1-1.208-.1-.388 0-.788.064-1.19.1l-.05-.08c-5.453.28-11.33 2.21-12.536 2.65-.07.014-.1.032-.168.044l-.07.035c-.08.016-.115.07-.184.1-.3.136-.6.286-.856.52-.115.1-.184.234-.282.354-.168.203-.335.37-.438.6-.116.204-.15.423-.22.642-.03.167-.116.3-.134.468l-2.6 23.255c-.183 1.777 1.093 3.37 2.854 3.574.133.017.25.017.37.017 1.628 0 3.02-1.207 3.204-2.87l2.366-21.19c.266-.087.568-.167.89-.27v22.067l-2.57 31.98c-.167 2.146 1.425 4.01 3.556 4.177.1.02.2.02.317.02 1.998 0 3.696-1.53 3.863-3.576l2.315-28.896c.485.2 1.005.335 1.575.335.555 0 1.075-.135 1.56-.338l2.315 28.895c.168 2.045 1.865 3.575 3.88 3.575.1 0 .2 0 .3-.018 2.15-.166 3.724-2.03 3.556-4.18l-2.568-31.977V177.54c.32.09.622.19.892.256L42.25 199c.186 1.643 1.582 2.868 3.204 2.868.122 0 .238-.017.37-.017"/>
  <path d="M180.464 87.198c0 4.515 3.655 9.75 8.188 9.75 4.496 0 8.17-5.218 8.17-9.75 0-4.515-3.675-8.17-8.17-8.17-4.515 0-8.188 3.657-8.188 8.172m24.058 42.715c1.762-.2 3.037-1.795 2.852-3.573l-2.6-23.272c-.016-.15-.097-.284-.132-.434-.07-.238-.104-.455-.22-.67-.088-.184-.238-.338-.353-.488-.133-.168-.238-.337-.405-.468-.185-.17-.385-.272-.604-.37-.133-.088-.23-.188-.38-.238-.308-.116-6.798-2.45-12.79-2.75l-.05.1c-.4-.035-.805-.1-1.21-.1-.386 0-.786.065-1.19.1l-.05-.08c-5.45.28-11.33 2.21-12.534 2.65-.07.015-.1.033-.166.045l-.07.033c-.08.018-.115.07-.184.103-.3.133-.6.283-.856.52-.115.1-.184.232-.283.352-.165.202-.333.368-.435.6-.116.203-.15.422-.22.64-.03.168-.116.3-.134.47l-2.6 23.254c-.183 1.777 1.094 3.37 2.855 3.574.132.015.25.015.37.015 1.627 0 3.02-1.208 3.204-2.87l2.365-21.19c.266-.088.567-.168.89-.27v22.066l-2.57 31.977c-.168 2.148 1.425 4.013 3.556 4.18.1.018.2.018.317.018 1.998 0 3.695-1.53 3.863-3.574l2.314-28.895c.485.2 1.005.336 1.575.336.553 0 1.073-.134 1.56-.338l2.313 28.897c.167 2.044 1.865 3.574 3.88 3.574.1 0 .2 0 .3-.02 2.15-.166 3.724-2.03 3.556-4.18l-2.57-31.98V105.6c.322.088.623.188.893.255l2.36 21.205c.186 1.644 1.583 2.87 3.205 2.87.12 0 .237-.018.37-.018"/>
  <path d="M147.454 11.93c0 4.515 3.655 9.75 8.188 9.75 4.496 0 8.17-5.218 8.17-9.75 0-4.515-3.675-8.17-8.17-8.17-4.515 0-8.188 3.657-8.188 8.172m24.058 42.715c1.762-.2 3.037-1.795 2.852-3.573l-2.6-23.274c-.016-.15-.097-.284-.132-.434-.07-.238-.104-.455-.22-.67-.088-.184-.238-.338-.353-.488-.13-.168-.236-.337-.4-.468-.19-.17-.39-.272-.61-.37-.13-.088-.23-.188-.38-.238-.306-.117-6.796-2.45-12.79-2.75l-.05.1c-.4-.036-.804-.1-1.21-.1-.385 0-.785.064-1.19.1l-.05-.082c-5.45.282-11.326 2.212-12.533 2.65-.068.016-.1.034-.167.046l-.07.035c-.08.018-.115.07-.184.103-.3.132-.6.282-.855.52-.113.1-.182.23-.28.35-.17.204-.335.37-.44.6-.114.205-.15.424-.22.64-.03.17-.114.3-.132.47l-2.6 23.256c-.183 1.776 1.093 3.37 2.854 3.573.134.016.25.016.37.016 1.63 0 3.02-1.208 3.205-2.87l2.366-21.19c.267-.088.57-.168.89-.27v22.066l-2.57 31.978c-.166 2.15 1.426 4.014 3.557 4.18.1.02.2.02.317.02 1.997 0 3.695-1.53 3.862-3.576l2.314-28.895c.486.2 1.006.334 1.576.334.555 0 1.075-.134 1.56-.338l2.315 28.896c.17 2.045 1.866 3.575 3.88 3.575.1 0 .2 0 .3-.02 2.15-.164 3.725-2.03 3.557-4.177l-2.568-31.98V30.335c.32.087.62.187.89.254l2.364 21.205c.185 1.644 1.58 2.87 3.203 2.87.123 0 .24-.018.37-.018"/>
  <path d="M113.456 107.388c0 4.515 3.655 9.75 8.188 9.75 4.496 0 8.17-5.22 8.17-9.75 0-4.515-3.675-8.17-8.17-8.17-4.515 0-8.188 3.656-8.188 8.17m24.058 42.716c1.762-.2 3.037-1.795 2.852-3.572l-2.6-23.273c-.016-.15-.097-.285-.132-.435-.07-.24-.104-.457-.22-.67-.088-.185-.238-.34-.353-.49-.133-.17-.24-.337-.405-.47-.187-.167-.387-.27-.606-.37-.136-.085-.234-.185-.384-.235-.307-.117-6.797-2.45-12.788-2.75l-.053.1c-.4-.035-.804-.1-1.208-.1-.388 0-.788.065-1.19.1l-.05-.082c-5.453.283-11.33 2.213-12.536 2.65-.07.017-.1.034-.166.047l-.07.036c-.08.018-.115.07-.184.103-.3.134-.6.284-.856.52-.115.1-.184.233-.283.353-.165.204-.333.37-.435.6-.116.205-.15.424-.22.643-.03.166-.116.3-.134.47l-2.6 23.253c-.183 1.777 1.094 3.37 2.855 3.575.132.017.25.017.37.017 1.627 0 3.02-1.21 3.204-2.87l2.365-21.19c.266-.09.567-.17.89-.27v22.065l-2.57 31.98c-.168 2.146 1.425 4.01 3.556 4.178.1.02.2.02.317.02 1.998 0 3.695-1.53 3.863-3.576l2.314-28.895c.485.2 1.005.334 1.575.334.553 0 1.073-.132 1.56-.336l2.313 28.895c.167 2.044 1.865 3.574 3.88 3.574.1 0 .2 0 .3-.02 2.15-.165 3.724-2.03 3.556-4.177l-2.57-31.978v-22.07c.322.087.623.187.893.255l2.362 21.208c.185 1.644 1.582 2.87 3.204 2.87.12 0 .237-.02.37-.02"/>
  <path d="M55.22 87.105c0 4.515 3.656 9.75 8.188 9.75 4.496 0 8.17-5.22 8.17-9.75 0-4.515-3.675-8.17-8.17-8.17-4.515 0-8.187 3.656-8.187 8.17M79.28 129.82c1.763-.2 3.038-1.794 2.853-3.572l-2.6-23.272c-.016-.15-.097-.282-.132-.432-.07-.237-.104-.455-.22-.67-.087-.184-.237-.337-.352-.487-.133-.17-.238-.337-.404-.47-.19-.167-.39-.27-.608-.37-.134-.086-.233-.186-.383-.236-.306-.115-6.796-2.45-12.787-2.75l-.053.1c-.4-.034-.805-.1-1.208-.1-.388 0-.788.066-1.19.1l-.05-.08c-5.453.283-11.33 2.213-12.535 2.65-.07.016-.1.034-.168.046l-.07.034c-.08.018-.117.07-.186.103-.3.134-.6.284-.855.52-.115.1-.183.232-.28.352-.17.202-.337.37-.44.6-.116.203-.15.422-.218.64-.032.168-.118.3-.135.47l-2.6 23.254c-.184 1.777 1.092 3.37 2.853 3.574.135.016.25.016.37.016 1.63 0 3.02-1.208 3.206-2.87l2.366-21.19c.268-.088.57-.168.89-.272v22.067l-2.57 31.98c-.165 2.147 1.427 4.012 3.56 4.178.1.02.2.02.315.02 1.997 0 3.695-1.53 3.862-3.576l2.314-28.895c.487.2 1.007.335 1.577.335.556 0 1.076-.134 1.56-.337l2.313 28.895c.17 2.046 1.866 3.576 3.88 3.576.1 0 .203 0 .3-.02 2.15-.164 3.725-2.03 3.558-4.177l-2.57-31.978v-22.067c.323.088.624.188.894.255L75.7 126.97c.184 1.643 1.58 2.868 3.203 2.868.12 0 .236-.017.37-.017"/>
  <path d="M80.126 169.122c0 4.516 3.655 9.75 8.187 9.75 4.497 0 8.17-5.217 8.17-9.75 0-4.514-3.675-8.17-8.17-8.17-4.515 0-8.187 3.658-8.187 8.173m24.057 42.715c1.763-.2 3.038-1.795 2.853-3.573l-2.6-23.272c-.016-.15-.098-.284-.133-.434-.07-.24-.103-.456-.22-.67-.087-.185-.237-.34-.352-.49-.132-.167-.237-.336-.403-.467-.185-.17-.385-.272-.604-.37-.134-.088-.233-.188-.383-.238-.306-.116-6.796-2.45-12.787-2.75l-.053.1c-.4-.035-.803-.1-1.207-.1-.388 0-.788.065-1.19.1l-.05-.08c-5.453.28-11.33 2.21-12.535 2.65-.07.015-.1.033-.167.045l-.067.034c-.082.018-.117.07-.185.103-.3.133-.6.283-.856.52-.115.1-.184.232-.283.352-.166.2-.334.37-.436.6-.117.202-.15.42-.22.64-.03.17-.117.3-.134.47l-2.6 23.253c-.183 1.778 1.093 3.37 2.855 3.575.132.015.25.015.368.015 1.63 0 3.02-1.207 3.205-2.87l2.367-21.19c.266-.087.567-.167.89-.27v22.067l-2.57 31.978c-.168 2.15 1.425 4.014 3.556 4.18.1.02.2.02.318.02 1.998 0 3.695-1.53 3.863-3.576l2.315-28.895c.485.2 1.005.333 1.575.333.553 0 1.073-.134 1.56-.338l2.313 28.897c.167 2.044 1.865 3.574 3.878 3.574.1 0 .205 0 .3-.02 2.15-.165 3.727-2.03 3.56-4.178l-2.57-31.98V187.52c.32.088.624.188.894.255l2.362 21.205c.185 1.644 1.58 2.87 3.204 2.87.12 0 .236-.018.37-.018"/>
  <path d="M219.432 11.09c0 4.516 3.654 9.75 8.186 9.75 4.497 0 8.17-5.217 8.17-9.75 0-4.514-3.675-8.17-8.17-8.17-4.515 0-8.187 3.658-8.187 8.173m24.056 42.715c1.763-.2 3.038-1.795 2.853-3.573l-2.6-23.272c-.018-.15-.1-.284-.135-.434-.07-.24-.103-.456-.22-.67-.087-.185-.237-.34-.352-.49-.133-.167-.238-.336-.404-.467-.188-.17-.388-.272-.607-.37-.134-.088-.233-.188-.383-.238-.306-.116-6.796-2.45-12.787-2.75l-.053.1c-.4-.035-.802-.1-1.206-.1-.388 0-.788.065-1.19.1l-.05-.08c-5.453.28-11.33 2.21-12.535 2.65-.07.015-.1.033-.17.045l-.07.035c-.08.018-.116.07-.184.103-.3.133-.6.283-.855.52-.114.1-.183.232-.282.352-.168.203-.336.37-.438.6-.117.204-.15.423-.22.64-.03.17-.117.3-.134.47l-2.6 23.255c-.185 1.778 1.09 3.37 2.853 3.575.132.016.25.016.37.016 1.63 0 3.02-1.207 3.204-2.87l2.367-21.19c.267-.087.568-.167.89-.27v22.067l-2.57 31.978c-.167 2.15 1.426 4.014 3.557 4.18.1.02.2.02.315.02 1.998 0 3.695-1.53 3.863-3.576l2.315-28.893c.486.2 1.006.336 1.576.336.555 0 1.075-.133 1.56-.337l2.315 28.896c.17 2.045 1.867 3.575 3.88 3.575.1 0 .204 0 .3-.02 2.15-.164 3.726-2.03 3.56-4.177l-2.57-31.98V29.495c.32.088.623.188.893.255l2.362 21.206c.185 1.644 1.58 2.87 3.204 2.87.12 0 .235-.018.37-.018"/>
  <path d="M245.366 101.795c0 4.515 3.655 9.75 8.187 9.75 4.497 0 8.17-5.22 8.17-9.75 0-4.515-3.675-8.17-8.17-8.17-4.515 0-8.187 3.656-8.187 8.17m24.057 42.716c1.763-.2 3.038-1.792 2.853-3.57l-2.6-23.272c-.016-.15-.098-.284-.133-.434-.07-.237-.103-.455-.22-.67-.087-.183-.237-.337-.352-.487-.132-.17-.237-.338-.403-.47-.19-.168-.39-.27-.608-.37-.135-.086-.234-.186-.384-.236-.307-.117-6.797-2.45-12.788-2.75l-.053.1c-.4-.035-.804-.1-1.208-.1-.388 0-.788.065-1.19.1l-.05-.082c-5.453.283-11.33 2.213-12.535 2.65-.07.017-.1.034-.168.047l-.07.035c-.08.015-.116.066-.184.1-.3.134-.6.284-.855.52-.114.1-.183.233-.282.353-.168.202-.336.368-.438.6-.117.203-.15.422-.22.64-.03.168-.117.3-.134.47l-2.6 23.255c-.183 1.776 1.093 3.37 2.855 3.574.132.016.25.016.368.016 1.63 0 3.02-1.208 3.205-2.87l2.367-21.19c.266-.088.567-.168.89-.27v22.066l-2.57 31.98c-.168 2.146 1.425 4.01 3.556 4.178.1.018.2.018.317.018 1.998 0 3.695-1.53 3.863-3.575l2.315-28.895c.485.2 1.005.335 1.575.335.555 0 1.075-.133 1.56-.337l2.315 28.896c.167 2.045 1.865 3.575 3.878 3.575.1 0 .203 0 .3-.02 2.15-.166 3.725-2.03 3.558-4.178l-2.57-31.98V120.2c.323.086.625.186.895.254l2.362 21.206c.185 1.644 1.58 2.87 3.204 2.87.12 0 .238-.02.37-.02"/>
  <path d="M338.588 160.903c0 4.516 3.655 9.75 8.188 9.75 4.496 0 8.17-5.218 8.17-9.75 0-4.514-3.675-8.17-8.17-8.17-4.515 0-8.188 3.657-8.188 8.172m24.058 42.715c1.762-.2 3.037-1.795 2.852-3.572l-2.6-23.273c-.016-.15-.097-.284-.132-.434-.07-.236-.104-.454-.22-.67-.088-.182-.238-.336-.353-.486-.132-.167-.237-.336-.404-.467-.188-.17-.388-.27-.607-.37-.134-.087-.232-.187-.382-.237-.306-.117-6.796-2.45-12.787-2.75l-.052.1c-.4-.035-.803-.1-1.207-.1-.387 0-.787.065-1.19.1l-.05-.082c-5.452.283-11.33 2.213-12.535 2.65-.07.017-.1.034-.167.047l-.07.036c-.08.018-.114.07-.183.103-.3.134-.6.284-.855.52-.117.1-.186.233-.285.353-.167.203-.335.37-.437.6-.117.204-.15.423-.22.64-.03.17-.117.3-.135.47l-2.6 23.256c-.184 1.777 1.093 3.37 2.854 3.575.13.017.25.017.367.017 1.628 0 3.02-1.208 3.205-2.87l2.366-21.19c.265-.088.566-.168.89-.27v22.06l-2.57 31.98c-.17 2.145 1.424 4.01 3.555 4.177.1.02.2.02.317.02 2 0 3.696-1.53 3.864-3.576l2.316-28.894c.484.2 1.004.335 1.574.335.555 0 1.075-.132 1.56-.336l2.315 28.895c.165 2.045 1.863 3.575 3.877 3.575.1 0 .202 0 .3-.02 2.15-.165 3.725-2.03 3.557-4.177l-2.57-31.98v-22.065c.323.087.624.187.894.255l2.36 21.206c.186 1.643 1.583 2.87 3.205 2.87.12 0 .237-.02.37-.02"/>
  <path d="M278.648 170.078c0 4.515 3.655 9.75 8.187 9.75 4.497 0 8.17-5.22 8.17-9.75 0-4.515-3.675-8.17-8.17-8.17-4.515 0-8.187 3.656-8.187 8.17m24.057 42.716c1.763-.2 3.038-1.795 2.853-3.573l-2.6-23.27c-.016-.15-.098-.283-.133-.433-.07-.237-.103-.455-.22-.67-.087-.184-.237-.337-.352-.487-.133-.17-.238-.34-.404-.47-.19-.17-.39-.27-.61-.37-.133-.088-.232-.188-.382-.238-.307-.115-6.797-2.45-12.788-2.75l-.053.1c-.4-.034-.804-.1-1.208-.1-.39 0-.79.066-1.19.1l-.05-.08c-5.454.283-11.33 2.213-12.536 2.65-.07.016-.1.034-.168.046l-.07.035c-.08.02-.116.07-.184.104-.3.134-.6.284-.855.52-.114.1-.183.232-.282.352-.168.2-.336.37-.438.6-.117.202-.15.42-.22.64-.03.167-.117.3-.134.47l-2.6 23.253c-.184 1.78 1.092 3.373 2.854 3.576.132.016.25.016.368.016 1.63 0 3.02-1.208 3.205-2.87l2.367-21.19c.266-.088.567-.168.89-.272v22.07l-2.57 31.978c-.168 2.147 1.425 4.012 3.556 4.178.1.02.2.02.316.02 1.997 0 3.694-1.53 3.862-3.575l2.315-28.895c.485.2 1.005.335 1.575.335.555 0 1.075-.134 1.56-.337l2.315 28.896c.167 2.044 1.865 3.574 3.878 3.574.1 0 .203 0 .3-.02 2.15-.165 3.725-2.03 3.558-4.178l-2.57-31.978V188.48c.322.09.624.19.894.256l2.362 21.207c.184 1.643 1.58 2.868 3.203 2.868.12 0 .237-.014.37-.014"/>
  <path d="M211.803 169.122c0 4.516 3.655 9.75 8.188 9.75 4.497 0 8.17-5.217 8.17-9.75 0-4.514-3.674-8.17-8.17-8.17-4.514 0-8.187 3.658-8.187 8.173m24.058 42.715c1.763-.2 3.038-1.795 2.853-3.573l-2.6-23.272c-.016-.15-.097-.284-.132-.434-.07-.24-.103-.456-.22-.67-.087-.185-.237-.34-.352-.49-.132-.167-.237-.336-.403-.467-.188-.17-.388-.272-.607-.37-.133-.088-.232-.188-.382-.238-.306-.116-6.796-2.45-12.788-2.75l-.052.1c-.4-.035-.804-.1-1.208-.1-.387 0-.787.065-1.19.1l-.05-.08c-5.452.28-11.328 2.21-12.535 2.65-.068.015-.1.033-.167.045l-.07.034c-.08.018-.115.07-.184.103-.3.133-.6.283-.855.52-.117.1-.186.232-.284.352-.168.2-.335.37-.438.6-.117.202-.15.42-.22.64-.03.17-.117.3-.135.47l-2.6 23.253c-.183 1.778 1.093 3.37 2.854 3.575.132.015.25.015.368.015 1.63 0 3.02-1.207 3.205-2.87l2.366-21.19c.265-.087.567-.167.89-.27v22.067l-2.57 31.978c-.168 2.15 1.424 4.014 3.555 4.18.1.02.2.02.318.02 1.997 0 3.695-1.53 3.862-3.576l2.315-28.895c.484.2 1.004.333 1.574.333.554 0 1.074-.134 1.56-.338l2.314 28.897c.168 2.044 1.865 3.574 3.88 3.574.1 0 .2 0 .3-.02 2.15-.165 3.724-2.03 3.556-4.178l-2.57-31.98V187.52c.32.088.623.188.893.255l2.36 21.205c.186 1.644 1.58 2.87 3.204 2.87.122 0 .238-.018.37-.018"/>
  <path d="M150.218 169.345c0 4.515 3.655 9.75 8.188 9.75 4.496 0 8.17-5.218 8.17-9.75 0-4.515-3.675-8.17-8.17-8.17-4.515 0-8.188 3.657-8.188 8.172m24.058 42.715c1.762-.2 3.037-1.793 2.852-3.57l-2.6-23.273c-.016-.15-.097-.285-.132-.435-.07-.238-.104-.455-.22-.67-.088-.184-.238-.338-.353-.488-.132-.168-.237-.337-.404-.468-.188-.17-.388-.273-.607-.37-.134-.09-.232-.19-.382-.24-.306-.116-6.796-2.45-12.787-2.75l-.052.1c-.4-.035-.803-.1-1.207-.1-.387 0-.787.065-1.19.1l-.05-.08c-5.452.28-11.33 2.21-12.535 2.65-.07.015-.1.033-.167.045l-.07.035c-.08.017-.114.07-.183.102-.3.134-.6.284-.855.52-.113.1-.182.233-.28.353-.168.203-.336.37-.438.6-.115.204-.15.423-.218.64-.03.17-.117.3-.135.47l-2.6 23.255c-.184 1.778 1.093 3.37 2.854 3.575.133.016.25.016.37.016 1.628 0 3.02-1.206 3.205-2.87l2.365-21.19c.267-.086.568-.166.89-.27v22.068l-2.57 31.978c-.167 2.148 1.426 4.013 3.557 4.18.1.018.2.018.317.018 1.997 0 3.694-1.53 3.862-3.575l2.315-28.896c.486.2 1.006.335 1.576.335.556 0 1.076-.135 1.56-.34l2.316 28.897c.167 2.045 1.865 3.575 3.88 3.575.1 0 .2 0 .3-.017 2.15-.166 3.724-2.03 3.556-4.18l-2.57-31.978V187.75c.323.088.624.188.894.255l2.363 21.206c.185 1.644 1.582 2.87 3.204 2.87.12 0 .238-.018.37-.018"/>
  <path d="M341.09 10.78c0 4.514 3.655 9.75 8.187 9.75 4.496 0 8.17-5.22 8.17-9.75 0-4.516-3.675-8.17-8.17-8.17-4.515 0-8.187 3.655-8.187 8.17m24.057 42.715c1.763-.2 3.038-1.795 2.853-3.573l-2.6-23.272c-.017-.15-.098-.284-.133-.434-.07-.235-.104-.453-.22-.67-.087-.182-.237-.335-.352-.485-.133-.17-.238-.337-.404-.47-.187-.167-.387-.27-.605-.37-.134-.086-.233-.186-.383-.236-.306-.116-6.796-2.45-12.787-2.75l-.053.1c-.4-.035-.804-.1-1.207-.1-.388 0-.788.065-1.19.1l-.05-.08c-5.453.282-11.33 2.212-12.535 2.65-.07.015-.1.033-.168.045l-.07.034c-.08.018-.115.07-.184.103-.3.135-.6.285-.855.52-.115.1-.183.233-.282.353-.167.203-.334.37-.437.6-.116.204-.15.423-.218.642-.032.167-.118.3-.135.468l-2.6 23.255c-.184 1.778 1.092 3.372 2.853 3.575.133.017.25.017.37.017 1.628 0 3.02-1.21 3.204-2.87l2.366-21.19c.267-.09.568-.17.89-.273v22.068l-2.57 31.98c-.167 2.146 1.425 4.01 3.557 4.177.1.02.2.02.316.02 2 0 3.697-1.53 3.864-3.577l2.315-28.895c.484.2 1.004.337 1.574.337.554 0 1.074-.134 1.56-.337l2.314 28.895c.167 2.045 1.864 3.575 3.88 3.575.1 0 .2 0 .3-.02 2.15-.165 3.723-2.03 3.556-4.178l-2.57-31.978v-22.07c.322.088.623.188.893.255l2.362 21.207c.186 1.64 1.582 2.866 3.205 2.866.12 0 .237-.017.37-.017"/>
  <path d="M407.085 17.45c0 4.516 3.655 9.75 8.187 9.75 4.496 0 8.17-5.218 8.17-9.75 0-4.514-3.675-8.17-8.17-8.17-4.515 0-8.187 3.657-8.187 8.172m24.057 42.715c1.763-.2 3.038-1.795 2.853-3.572l-2.6-23.273c-.017-.15-.098-.284-.133-.434-.07-.237-.104-.455-.22-.67-.087-.183-.237-.337-.352-.487-.133-.166-.238-.335-.404-.466-.188-.17-.388-.27-.606-.37-.134-.087-.233-.187-.383-.237-.306-.117-6.796-2.45-12.787-2.75l-.053.1c-.4-.035-.804-.1-1.207-.1-.388 0-.788.065-1.19.1l-.05-.082c-5.453.283-11.33 2.213-12.535 2.65-.07.017-.1.034-.168.047l-.07.036c-.08.017-.115.068-.184.102-.3.134-.6.284-.855.52-.115.1-.183.233-.282.353-.168.203-.335.37-.438.6-.116.204-.15.423-.218.64-.032.17-.118.3-.135.47l-2.6 23.256c-.184 1.776 1.092 3.37 2.853 3.574.133.017.25.017.37.017 1.628 0 3.02-1.207 3.204-2.87l2.366-21.19c.267-.087.568-.167.89-.27v22.06l-2.57 31.98c-.167 2.146 1.425 4.01 3.557 4.178.1.018.2.018.316.018 2 0 3.698-1.53 3.865-3.575l2.315-28.893c.484.2 1.004.335 1.574.335.555 0 1.075-.132 1.56-.336l2.315 28.896c.166 2.045 1.863 3.575 3.88 3.575.1 0 .2 0 .3-.02 2.15-.165 3.722-2.03 3.555-4.177l-2.57-31.98V35.856c.322.087.623.187.893.255l2.362 21.208c.186 1.644 1.582 2.87 3.205 2.87.12 0 .237-.02.37-.02"/>
  <path d="M475.187 22.04c0 4.516 3.655 9.75 8.188 9.75 4.498 0 8.17-5.217 8.17-9.75 0-4.514-3.673-8.17-8.17-8.17-4.513 0-8.186 3.658-8.186 8.173m24.054 42.713c1.763-.2 3.038-1.795 2.853-3.573l-2.6-23.27c-.016-.15-.097-.285-.132-.435-.07-.238-.102-.455-.22-.67-.086-.184-.236-.338-.35-.488-.133-.168-.238-.337-.405-.468-.187-.17-.387-.274-.606-.37-.135-.09-.233-.19-.383-.24-.306-.116-6.796-2.45-12.787-2.75l-.053.1c-.4-.035-.804-.1-1.208-.1-.388 0-.788.065-1.19.1l-.05-.08c-5.453.28-11.33 2.21-12.536 2.65-.07.015-.1.033-.167.045l-.07.035c-.08.02-.116.07-.185.104-.3.133-.6.283-.855.52-.115.1-.184.232-.283.352-.167.203-.335.37-.437.6-.116.204-.15.423-.22.64-.03.17-.116.3-.134.47l-2.6 23.255c-.184 1.78 1.093 3.373 2.854 3.577.132.016.25.016.37.016 1.627 0 3.02-1.207 3.204-2.87l2.367-21.19c.266-.087.567-.167.89-.27v22.068l-2.57 31.977c-.17 2.15 1.425 4.014 3.556 4.18.1.02.2.02.316.02 1.998 0 3.695-1.53 3.863-3.576l2.315-28.895c.485.2 1.005.334 1.575.334.555 0 1.075-.134 1.56-.338l2.315 28.897c.167 2.043 1.865 3.573 3.88 3.573.1 0 .2 0 .3-.02 2.15-.165 3.724-2.03 3.556-4.178l-2.57-31.98V40.446c.323.09.624.19.894.256l2.362 21.206c.184 1.644 1.58 2.87 3.203 2.87.12 0 .238-.018.37-.018"/>
  <path d="M373.104 91.173c0 4.515 3.655 9.75 8.187 9.75 4.5 0 8.17-5.22 8.17-9.75 0-4.515-3.672-8.17-8.17-8.17-4.512 0-8.184 3.656-8.184 8.17m24.057 42.716c1.764-.2 3.04-1.798 2.854-3.576l-2.6-23.272c-.017-.15-.098-.284-.133-.434-.07-.238-.103-.456-.22-.67-.086-.185-.236-.338-.35-.488-.134-.17-.24-.338-.405-.47-.19-.168-.39-.27-.607-.37-.135-.087-.234-.187-.384-.237-.307-.116-6.797-2.45-12.788-2.75l-.053.1c-.4-.035-.805-.1-1.208-.1-.39 0-.79.065-1.19.1l-.05-.08c-5.454.282-11.33 2.212-12.536 2.65-.07.015-.1.033-.168.045l-.07.036c-.08.018-.115.07-.184.103-.3.132-.6.282-.855.52-.116.1-.184.23-.283.35-.168.203-.335.37-.438.6-.117.204-.15.423-.22.642-.033.166-.12.3-.136.467l-2.6 23.256c-.184 1.778 1.092 3.372 2.853 3.575.133.02.25.02.37.02 1.628 0 3.02-1.21 3.204-2.87l2.368-21.19c.267-.09.568-.17.89-.273v22.068l-2.57 31.98c-.167 2.146 1.425 4.01 3.557 4.177.1.02.2.02.316.02 1.998 0 3.696-1.53 3.863-3.575l2.315-28.895c.485.2 1.005.335 1.575.335.555 0 1.075-.134 1.56-.337l2.315 28.896c.168 2.045 1.865 3.575 3.88 3.575.1 0 .202 0 .3-.02 2.15-.166 3.724-2.03 3.557-4.18l-2.57-31.977v-22.067c.322.088.623.188.893.255l2.363 21.21c.186 1.642 1.58 2.867 3.205 2.867.12 0 .237-.017.37-.017"/>
  <path d="M443.37 91.51c0 4.514 3.655 9.75 8.187 9.75 4.496 0 8.17-5.22 8.17-9.75 0-4.516-3.675-8.17-8.17-8.17-4.515 0-8.187 3.656-8.187 8.17m24.057 42.716c1.763-.2 3.038-1.793 2.853-3.57l-2.6-23.273c-.017-.15-.098-.284-.133-.434-.07-.24-.104-.456-.22-.67-.087-.185-.237-.34-.352-.49-.133-.167-.238-.336-.404-.467-.185-.17-.385-.272-.603-.37-.134-.088-.233-.188-.383-.238-.306-.117-6.796-2.45-12.787-2.75l-.053.1c-.4-.036-.804-.1-1.207-.1-.388 0-.788.064-1.19.1l-.05-.08c-5.453.28-11.33 2.21-12.535 2.65-.07.014-.1.032-.167.044l-.07.034c-.08.017-.115.07-.184.102-.3.134-.6.284-.855.52-.115.1-.183.233-.282.353-.167.202-.334.37-.437.6-.116.203-.15.422-.218.64-.032.17-.118.3-.135.47l-2.6 23.254c-.184 1.778 1.092 3.37 2.853 3.575.133.015.25.015.37.015 1.628 0 3.02-1.207 3.204-2.87l2.365-21.19c.267-.087.568-.167.89-.27v22.067l-2.57 31.978c-.167 2.148 1.425 4.013 3.557 4.18.1.018.2.018.316.018 1.997 0 3.695-1.53 3.862-3.575l2.315-28.895c.485.2 1.005.335 1.575.335.555 0 1.075-.134 1.56-.338l2.315 28.896c.168 2.046 1.865 3.576 3.88 3.576.1 0 .202 0 .3-.017 2.15-.167 3.724-2.03 3.557-4.18l-2.57-31.98v-22.065c.322.087.623.187.893.254l2.363 21.205c.185 1.643 1.58 2.868 3.204 2.868.12 0 .237-.017.37-.017"/>
  <path d="M476.1 161.99c0 4.515 3.655 9.75 8.187 9.75 4.497 0 8.17-5.22 8.17-9.75 0-4.515-3.675-8.17-8.17-8.17-4.515 0-8.187 3.656-8.187 8.17m24.06 42.716c1.762-.2 3.037-1.795 2.852-3.572l-2.6-23.27c-.015-.15-.097-.284-.132-.434-.07-.238-.103-.455-.22-.67-.087-.184-.237-.338-.352-.488-.133-.17-.238-.337-.404-.47-.187-.167-.387-.27-.606-.37-.134-.086-.233-.186-.383-.236-.306-.115-6.796-2.45-12.787-2.75l-.053.1c-.4-.034-.803-.1-1.207-.1-.388 0-.788.066-1.19.1l-.05-.08c-5.453.282-11.33 2.212-12.535 2.65-.068.016-.1.033-.167.046l-.068.035c-.082.018-.117.07-.185.103-.3.134-.6.284-.855.52-.115.1-.184.233-.283.353-.167.2-.335.37-.437.6-.117.203-.15.42-.22.64-.03.17-.117.3-.134.47l-2.6 23.254c-.183 1.778 1.093 3.372 2.855 3.576.13.016.25.016.366.016 1.63 0 3.02-1.208 3.205-2.87l2.368-21.19c.265-.088.566-.168.89-.27v22.065l-2.57 31.98c-.17 2.147 1.424 4.012 3.555 4.178.1.02.2.02.317.02 1.998 0 3.695-1.53 3.863-3.576l2.315-28.895c.485.2 1.005.334 1.575.334.555 0 1.075-.134 1.56-.338l2.315 28.896c.167 2.045 1.865 3.575 3.878 3.575.1 0 .203 0 .3-.02 2.15-.167 3.725-2.032 3.558-4.18l-2.568-31.98v-22.07c.32.09.623.19.893.257l2.362 21.206c.185 1.644 1.58 2.87 3.204 2.87.122 0 .238-.02.37-.02"/>
  <path d="M409.29 171.187c0 4.516 3.655 9.75 8.187 9.75 4.496 0 8.17-5.218 8.17-9.75 0-4.514-3.675-8.17-8.17-8.17-4.515 0-8.187 3.657-8.187 8.172m24.06 42.714c1.762-.2 3.037-1.795 2.852-3.572l-2.6-23.273c-.016-.15-.097-.284-.132-.434-.07-.24-.104-.457-.22-.67-.087-.186-.237-.34-.352-.49-.133-.17-.238-.337-.404-.47-.188-.167-.388-.27-.606-.37-.134-.086-.233-.186-.383-.236-.306-.116-6.796-2.45-12.787-2.75l-.053.1c-.4-.035-.804-.1-1.207-.1-.388 0-.788.065-1.19.1l-.05-.08c-5.453.28-11.33 2.21-12.535 2.65-.068.015-.1.032-.167.045l-.07.034c-.08.016-.115.07-.184.1-.3.135-.6.285-.856.52-.115.1-.183.234-.282.354-.168.2-.335.37-.438.6-.116.203-.15.42-.218.64-.032.17-.118.3-.135.47l-2.6 23.254c-.183 1.777 1.093 3.37 2.854 3.575.133.015.25.015.37.015 1.628 0 3.02-1.207 3.204-2.87l2.368-21.19c.267-.087.568-.167.89-.27v22.066l-2.57 31.98c-.167 2.148 1.425 4.013 3.557 4.18.1.02.2.02.317.02 1.998 0 3.696-1.53 3.863-3.577l2.314-28.895c.484.2 1.004.334 1.574.334.554 0 1.074-.134 1.56-.338l2.314 28.896c.168 2.045 1.865 3.575 3.88 3.575.1 0 .202 0 .3-.02 2.15-.167 3.724-2.032 3.557-4.18l-2.568-31.98v-22.064c.32.087.622.187.892.255l2.362 21.207c.185 1.644 1.58 2.87 3.204 2.87.122 0 .238-.02.37-.02"/>
  <path d="M307.09 89.172c0 4.515 3.656 9.75 8.19 9.75 4.495 0 8.17-5.218 8.17-9.75 0-4.515-3.676-8.17-8.17-8.17-4.516 0-8.19 3.657-8.19 8.172m24.06 42.715c1.76-.2 3.036-1.796 2.85-3.574l-2.6-23.272c-.015-.15-.096-.284-.13-.434-.07-.238-.105-.455-.22-.67-.09-.184-.24-.338-.354-.488-.132-.168-.237-.337-.403-.468-.188-.17-.388-.272-.607-.37-.133-.088-.232-.188-.382-.238-.306-.116-6.796-2.45-12.788-2.75l-.052.1c-.4-.035-.804-.1-1.208-.1-.387 0-.787.065-1.19.1l-.05-.08c-5.452.28-11.328 2.21-12.535 2.65-.067.015-.1.033-.166.045l-.07.036c-.08.018-.115.07-.184.103-.3.132-.6.282-.853.52-.115.1-.184.23-.282.35-.168.204-.335.37-.438.6-.116.205-.15.424-.22.64-.03.17-.116.3-.134.47l-2.6 23.256c-.183 1.778 1.093 3.37 2.854 3.575.133.017.25.017.37.017 1.628 0 3.02-1.207 3.204-2.87l2.368-21.19c.266-.087.568-.167.89-.27v22.067l-2.57 31.978c-.167 2.148 1.425 4.013 3.556 4.18.1.018.2.018.317.018 1.997 0 3.695-1.53 3.86-3.575l2.317-28.893c.485.2 1.005.335 1.575.335.557 0 1.077-.133 1.56-.337l2.317 28.897c.167 2.045 1.864 3.575 3.88 3.575.1 0 .2 0 .3-.02 2.15-.165 3.723-2.03 3.555-4.178l-2.568-31.98v-22.068c.32.088.622.188.892.255l2.362 21.207c.184 1.644 1.58 2.87 3.202 2.87.122 0 .238-.018.37-.018"/>
  <path d="M274.765 22.14c0 4.515 3.654 9.75 8.186 9.75 4.497 0 8.17-5.22 8.17-9.75 0-4.515-3.674-8.17-8.17-8.17-4.514 0-8.186 3.656-8.186 8.17m24.055 42.716c1.762-.2 3.037-1.793 2.852-3.57l-2.6-23.273c-.018-.15-.1-.283-.134-.433-.07-.238-.104-.455-.22-.67-.087-.184-.237-.338-.352-.488-.133-.17-.238-.337-.404-.47-.188-.167-.388-.27-.606-.37-.134-.086-.233-.186-.383-.236-.306-.117-6.796-2.45-12.787-2.75l-.053.1c-.4-.036-.803-.1-1.206-.1-.388 0-.788.064-1.19.1l-.05-.082c-5.453.282-11.33 2.212-12.535 2.65-.07.016-.1.033-.17.046l-.07.035c-.08.015-.115.067-.184.1-.3.134-.6.284-.855.52-.114.1-.182.233-.28.353-.17.202-.336.37-.44.6-.115.204-.15.422-.217.64-.032.17-.118.3-.135.47l-2.6 23.255c-.184 1.776 1.09 3.37 2.853 3.574.133.016.25.016.37.016 1.628 0 3.02-1.207 3.204-2.87l2.366-21.19c.267-.087.568-.167.89-.27V62.61l-2.57 31.98c-.167 2.146 1.425 4.01 3.557 4.177.1.02.2.02.315.02 1.997 0 3.695-1.53 3.862-3.576l2.318-28.895c.484.2 1.004.336 1.574.336.554 0 1.074-.133 1.56-.337l2.314 28.896c.167 2.044 1.864 3.574 3.88 3.574.1 0 .2 0 .3-.018 2.15-.167 3.723-2.032 3.556-4.18l-2.57-31.978V40.545c.32.086.622.186.892.254l2.363 21.205c.186 1.644 1.58 2.87 3.205 2.87.12 0 .236-.02.37-.02"/>
  <path d="M93.687 21.02c0 4.514 3.655 9.75 8.187 9.75 4.496 0 8.17-5.22 8.17-9.75 0-4.516-3.675-8.17-8.17-8.17-4.515 0-8.187 3.655-8.187 8.17m24.057 42.715c1.763-.2 3.038-1.795 2.853-3.572l-2.6-23.273c-.017-.15-.098-.283-.133-.433-.07-.238-.104-.455-.22-.67-.087-.184-.237-.338-.352-.488-.133-.17-.238-.338-.404-.47-.188-.168-.388-.27-.606-.37-.134-.087-.233-.187-.383-.237-.307-.116-6.797-2.45-12.788-2.75l-.053.1c-.4-.035-.805-.1-1.208-.1-.388 0-.788.065-1.19.1l-.05-.08c-5.453.28-11.33 2.21-12.535 2.65-.07.015-.1.032-.168.045l-.07.035c-.08.017-.116.07-.185.102-.3.134-.6.284-.855.52-.115.1-.183.233-.282.353-.168.202-.335.37-.438.6-.116.204-.15.422-.218.64-.032.17-.118.3-.135.47l-2.6 23.255c-.184 1.777 1.092 3.37 2.853 3.575.133.016.25.016.37.016 1.628 0 3.02-1.207 3.204-2.87l2.366-21.19c.267-.087.568-.167.89-.27V61.49l-2.57 31.98c-.167 2.147 1.425 4.012 3.557 4.178.1.02.2.02.316.02 1.997 0 3.695-1.53 3.862-3.576l2.315-28.895c.485.2 1.005.335 1.575.335.555 0 1.075-.134 1.56-.338l2.315 28.896c.168 2.045 1.865 3.575 3.88 3.575.1 0 .202 0 .3-.018 2.15-.167 3.724-2.032 3.557-4.18l-2.57-31.978V39.422c.322.087.623.187.893.255l2.363 21.206c.185 1.644 1.58 2.87 3.204 2.87.12 0 .237-.02.37-.02"/>
</svg>