<svg xmlns="http://www.w3.org/2000/svg" viewBox="0 0 505 255">
  <path d="M17.822 135.678c0 4.515 3.655 9.75 8.188 9.75 4.496 0 8.17-5.22 8.17-9.75 0-4.515-3.675-8.17-8.17-8.17-4.515 0-8.188 3.656-8.188 8.17m24.058 42.716c1.762-.2 3.037-1.795 2.852-3.573l-2.6-23.27c-.016-.15-.097-.285-.132-.435-.07-.237-.104-.455-.22-.67-.088-.184-.238-.337-.353-.487-.132-.17-.237-.338-.403-.47-.188-.168-.388-.27-.607-.37-.133-.087-.232-.187-.382-.237-.306-.115-6.796-2.45-12.788-2.75l-.052.1c-.4-.034-.804-.1-1.208-.1-.387 0-.787.066-1.19.1l-.05-.08c-5.452.283-11.328 2.213-12.535 2.65-.068.016-.1.034-.167.046l-.07.035c-.08.02-.115.07-.184.104-.3.134-.6.284-.854.52-.115.1-.184.232-.282.352-.168.203-.335.37-.438.6-.116.204-.15.423-.22.642-.03.167-.116.3-.134.468l-2.6 23.255c-.183 1.78 1.093 3.373 2.854 3.576.133.017.25.017.37.017 1.628 0 3.02-1.208 3.204-2.87l2.366-21.19c.266-.088.568-.168.89-.272v22.07l-2.57 31.978c-.167 2.147 1.425 4.012 3.556 4.178.1.02.2.02.317.02 1.996 0 3.694-1.53 3.86-3.576l2.316-28.895c.485.2 1.005.335 1.575.335.556 0 1.076-.134 1.56-.337l2.316 28.896c.168 2.044 1.865 3.574 3.88 3.574.1 0 .2 0 .3-.02 2.15-.165 3.724-2.03 3.556-4.178l-2.568-31.978V154.08c.32.09.622.19.892.256l2.363 21.207c.184 1.643 1.58 2.868 3.202 2.868.122 0 .238-.016.37-.016"/>
  <path d="M75.14 48.556c0 4.515 3.655 9.75 8.188 9.75 4.496 0 8.17-5.22 8.17-9.75 0-4.515-3.675-8.17-8.17-8.17-4.515 0-8.188 3.656-8.188 8.17m24.058 42.716c1.762-.2 3.037-1.795 2.852-3.573l-2.6-23.273c-.016-.15-.097-.284-.132-.434-.07-.237-.104-.455-.22-.67-.088-.184-.238-.337-.353-.487-.132-.17-.237-.338-.404-.47-.186-.168-.386-.27-.605-.37-.134-.087-.232-.187-.382-.237-.307-.117-6.797-2.45-12.788-2.75l-.052.1c-.4-.036-.804-.1-1.208-.1-.387 0-.787.064-1.19.1l-.05-.082c-5.452.283-11.33 2.213-12.535 2.65-.07.016-.1.034-.167.046l-.07.035c-.08.017-.115.068-.184.102-.3.134-.6.284-.856.52-.115.1-.184.232-.283.352-.166.203-.334.37-.436.6-.116.204-.15.423-.22.642-.03.167-.116.3-.134.468L64.58 87.7c-.184 1.777 1.093 3.37 2.854 3.574.132.017.25.017.37.017 1.627 0 3.02-1.207 3.204-2.87l2.366-21.19c.266-.087.567-.167.89-.27v22.067l-2.57 31.98c-.168 2.146 1.425 4.01 3.556 4.177.1.02.2.02.316.02 1.998 0 3.695-1.53 3.863-3.576l2.314-28.895c.485.2 1.005.335 1.575.335.554 0 1.074-.134 1.56-.337l2.314 28.897c.167 2.045 1.865 3.575 3.88 3.575.1 0 .2 0 .3-.02 2.15-.165 3.724-2.03 3.556-4.178l-2.57-31.978V66.96c.323.087.624.187.894.254l2.362 21.207c.185 1.644 1.582 2.87 3.204 2.87.12 0 .238-.018.37-.018"/>
  <path d="M18.467 23.624c0 4.515 3.655 9.75 8.188 9.75 4.496 0 8.17-5.22 8.17-9.75 0-4.515-3.675-8.17-8.17-8.17-4.515 0-8.188 3.656-8.188 8.17M42.525 66.34c1.762-.2 3.037-1.795 2.852-3.572l-2.6-23.273c-.016-.15-.097-.284-.132-.434-.07-.236-.104-.454-.22-.67-.088-.182-.238-.336-.353-.486-.132-.17-.237-.338-.404-.47-.187-.168-.387-.27-.606-.37-.134-.086-.232-.186-.382-.236-.307-.117-6.797-2.45-12.788-2.75l-.052.1c-.4-.035-.804-.1-1.208-.1-.387 0-.787.065-1.19.1l-.05-.082c-5.452.283-11.33 2.213-12.535 2.65-.07.017-.1.034-.167.047l-.07.035c-.08.017-.115.068-.184.102-.3.134-.6.284-.855.52-.114.1-.183.233-.282.353-.167.202-.335.368-.437.6-.115.203-.15.422-.218.64-.03.168-.117.3-.135.47l-2.6 23.255c-.184 1.777 1.093 3.37 2.854 3.575.133.016.25.016.37.016 1.628 0 3.02-1.21 3.205-2.87L16.7 42.3c.267-.09.568-.17.89-.272v22.067l-2.57 31.98c-.167 2.146 1.426 4.01 3.557 4.178.1.018.2.018.316.018 1.998 0 3.695-1.53 3.863-3.574L25.07 67.8c.486.2 1.006.336 1.576.336.555 0 1.075-.133 1.56-.337l2.315 28.895c.168 2.045 1.866 3.575 3.88 3.575.1 0 .202 0 .3-.02 2.15-.165 3.725-2.03 3.557-4.177l-2.57-31.98V42.03c.323.087.624.187.894.255l2.363 21.206c.185 1.643 1.582 2.868 3.204 2.868.12 0 .238-.018.37-.018"/>
  <path d="M299.55 170.275c0 4.515 3.656 9.75 8.19 9.75 4.495 0 8.17-5.22 8.17-9.75 0-4.515-3.676-8.17-8.17-8.17-4.516 0-8.19 3.656-8.19 8.17m24.06 42.716c1.76-.2 3.036-1.794 2.85-3.57l-2.6-23.274c-.015-.15-.096-.284-.13-.434-.07-.237-.105-.455-.22-.67-.09-.183-.24-.337-.354-.487-.132-.17-.237-.338-.404-.47-.187-.168-.387-.27-.606-.37-.134-.086-.232-.186-.382-.236-.307-.118-6.797-2.45-12.788-2.75l-.052.1c-.4-.036-.804-.1-1.208-.1-.387 0-.787.064-1.19.1l-.05-.083c-5.452.283-11.33 2.213-12.535 2.65-.068.017-.1.034-.166.047l-.07.035c-.08.016-.115.067-.184.1-.3.135-.6.285-.855.52-.115.1-.184.234-.283.354-.167.202-.335.368-.437.6-.116.203-.15.422-.22.64-.03.168-.116.3-.134.47l-2.6 23.255c-.183 1.776 1.094 3.37 2.855 3.574.132.016.25.016.37.016 1.627 0 3.02-1.208 3.204-2.87l2.365-21.19c.266-.088.567-.168.89-.27v22.066l-2.57 31.98c-.168 2.146 1.425 4.01 3.556 4.178.1.018.2.018.317.018 1.998 0 3.695-1.53 3.863-3.575l2.315-28.895c.485.2 1.005.335 1.575.335.555 0 1.075-.133 1.56-.337l2.315 28.896c.167 2.045 1.865 3.575 3.88 3.575.1 0 .2 0 .3-.018 2.15-.166 3.724-2.03 3.556-4.178l-2.568-31.98V188.68c.322.086.623.186.893.254l2.362 21.206c.185 1.644 1.582 2.87 3.204 2.87.122 0 .24-.02.37-.02"/>
  <path d="M187.76 170.876c0 4.515 3.655 9.75 8.188 9.75 4.496 0 8.17-5.22 8.17-9.75 0-4.515-3.675-8.17-8.17-8.17-4.515 0-8.188 3.656-8.188 8.17m24.058 42.716c1.762-.2 3.037-1.795 2.852-3.572l-2.6-23.273c-.016-.15-.097-.284-.132-.434-.07-.237-.104-.455-.22-.67-.088-.183-.238-.337-.353-.487-.132-.17-.237-.338-.404-.47-.186-.168-.386-.27-.605-.37-.134-.086-.232-.186-.382-.236-.307-.117-6.797-2.45-12.788-2.75l-.052.1c-.4-.035-.804-.1-1.208-.1-.387 0-.787.065-1.19.1l-.05-.082c-5.452.283-11.33 2.213-12.535 2.65-.07.017-.1.034-.167.047l-.07.035c-.08.017-.115.068-.184.102-.3.134-.6.284-.856.52-.115.1-.184.233-.283.353-.166.202-.334.368-.436.6-.116.203-.15.422-.22.64-.03.168-.116.3-.134.47l-2.6 23.255c-.184 1.777 1.093 3.37 2.854 3.575.132.016.25.016.37.016 1.627 0 3.02-1.207 3.204-2.87l2.366-21.19c.266-.087.567-.167.89-.27v22.067l-2.57 31.98c-.168 2.146 1.425 4.01 3.556 4.178.1.018.2.018.316.018 1.998 0 3.695-1.53 3.863-3.575l2.314-28.895c.485.2 1.005.335 1.575.335.554 0 1.074-.133 1.56-.337l2.314 28.897c.167 2.045 1.865 3.575 3.88 3.575.1 0 .2 0 .3-.02 2.15-.165 3.724-2.03 3.556-4.177l-2.57-31.98V189.28c.323.087.624.187.894.255l2.362 21.206c.185 1.645 1.582 2.87 3.204 2.87.12 0 .238-.018.37-.018"/>
  <path d="M242.454 97.55c0 4.515 3.655 9.75 8.187 9.75 4.497 0 8.17-5.218 8.17-9.75 0-4.515-3.674-8.17-8.17-8.17-4.514 0-8.186 3.657-8.186 8.172m24.057 42.715c1.764-.2 3.04-1.795 2.854-3.573l-2.6-23.272c-.017-.15-.098-.284-.133-.434-.07-.238-.103-.455-.22-.67-.086-.184-.236-.338-.35-.488-.134-.168-.24-.337-.405-.468-.188-.17-.388-.272-.606-.37-.135-.088-.234-.188-.384-.238-.306-.116-6.796-2.45-12.787-2.75l-.054.1c-.4-.035-.804-.1-1.207-.1-.39 0-.79.065-1.19.1l-.05-.08c-5.454.28-11.33 2.21-12.536 2.65-.07.015-.1.033-.168.045l-.07.034c-.08.018-.115.07-.184.103-.3.133-.6.283-.855.52-.115.1-.183.232-.282.352-.168.202-.335.368-.438.6-.116.203-.15.422-.218.64-.033.168-.12.3-.136.47l-2.6 23.254c-.184 1.778 1.092 3.37 2.853 3.575.133.015.25.015.37.015 1.628 0 3.02-1.207 3.204-2.87l2.367-21.19c.267-.087.568-.167.89-.27v22.067L239.007 170c-.167 2.148 1.425 4.013 3.557 4.18.1.018.2.018.316.018 1.997 0 3.695-1.53 3.862-3.575l2.315-28.895c.485.2 1.005.335 1.575.335.555 0 1.075-.134 1.56-.338l2.315 28.897c.168 2.045 1.865 3.575 3.88 3.575.1 0 .202 0 .3-.02 2.15-.165 3.724-2.03 3.557-4.178l-2.57-31.98v-22.066c.322.088.623.188.893.255l2.363 21.205c.185 1.644 1.58 2.87 3.204 2.87.12 0 .237-.018.37-.018"/>
  <path d="M355.447 22.422c0 4.515 3.655 9.75 8.187 9.75 4.497 0 8.17-5.22 8.17-9.75 0-4.515-3.675-8.17-8.17-8.17-4.515 0-8.187 3.656-8.187 8.17m24.057 42.716c1.763-.2 3.038-1.795 2.853-3.572l-2.6-23.273c-.016-.15-.098-.284-.133-.434-.07-.238-.103-.456-.22-.67-.087-.184-.237-.338-.352-.488-.133-.17-.238-.338-.404-.47-.187-.168-.387-.27-.606-.37-.134-.086-.233-.186-.383-.236-.307-.117-6.797-2.45-12.788-2.75l-.053.1c-.4-.035-.804-.1-1.208-.1-.388 0-.788.065-1.19.1l-.05-.082c-5.453.283-11.33 2.213-12.535 2.65-.07.017-.1.034-.168.047l-.07.036c-.08.017-.116.068-.184.102-.3.134-.6.284-.855.52-.114.1-.183.233-.282.353-.167.203-.335.37-.437.6-.116.204-.15.423-.218.642-.03.167-.118.3-.135.47l-2.6 23.254c-.184 1.777 1.092 3.37 2.854 3.575.133.017.25.017.37.017 1.628 0 3.02-1.208 3.204-2.87l2.367-21.19c.267-.088.568-.168.89-.27v22.066L352 94.873c-.167 2.146 1.426 4.01 3.557 4.178.1.02.2.02.316.02 1.998 0 3.695-1.53 3.863-3.576L362.05 66.6c.486.2 1.006.334 1.576.334.555 0 1.075-.133 1.56-.337l2.315 28.896c.168 2.045 1.866 3.575 3.88 3.575.1 0 .202 0 .3-.02 2.15-.165 3.724-2.03 3.557-4.177l-2.57-31.978V40.826c.322.087.624.187.894.255l2.363 21.207c.185 1.644 1.58 2.87 3.204 2.87.12 0 .237-.02.37-.02"/>
  <path d="M130.06 23.023c0 4.515 3.656 9.75 8.19 9.75 4.495 0 8.17-5.22 8.17-9.75 0-4.515-3.676-8.17-8.17-8.17-4.516 0-8.19 3.656-8.19 8.17m24.06 42.716c1.76-.2 3.036-1.796 2.85-3.573l-2.6-23.273c-.015-.15-.096-.284-.13-.434-.07-.237-.105-.455-.22-.67-.09-.183-.24-.337-.354-.487-.132-.17-.237-.338-.403-.47-.188-.168-.388-.27-.607-.37-.133-.086-.232-.186-.382-.236-.306-.117-6.796-2.45-12.788-2.75l-.052.1c-.4-.035-.804-.1-1.208-.1-.387 0-.787.065-1.19.1l-.05-.082c-5.452.283-11.328 2.213-12.535 2.65-.067.017-.1.034-.166.047l-.07.035c-.08.017-.115.068-.184.102-.3.133-.6.283-.855.52-.115.1-.184.232-.282.352-.168.202-.335.368-.438.6-.116.203-.15.422-.22.64-.03.168-.116.3-.134.47l-2.6 23.255c-.182 1.777 1.094 3.37 2.855 3.575.133.016.25.016.37.016 1.628 0 3.02-1.208 3.204-2.87l2.365-21.19c.266-.088.568-.168.89-.27v22.066l-2.57 31.98c-.167 2.146 1.425 4.01 3.556 4.178.1.018.2.018.318.018 1.997 0 3.695-1.53 3.862-3.575l2.315-28.895c.485.2 1.005.335 1.575.335.555 0 1.075-.133 1.56-.337l2.315 28.896c.168 2.045 1.865 3.575 3.88 3.575.1 0 .2 0 .3-.02 2.15-.166 3.724-2.03 3.556-4.178l-2.567-31.98V41.428c.32.087.622.187.892.255l2.363 21.206c.185 1.644 1.58 2.87 3.203 2.87.123 0 .24-.02.37-.02"/>
  <path d="M130.662 136.016c0 4.515 3.655 9.75 8.188 9.75 4.496 0 8.17-5.218 8.17-9.75 0-4.515-3.675-8.17-8.17-8.17-4.515 0-8.188 3.657-8.188 8.172m24.058 42.715c1.762-.2 3.037-1.795 2.852-3.573l-2.6-23.272c-.016-.15-.097-.284-.132-.434-.07-.238-.104-.455-.22-.67-.088-.184-.238-.338-.353-.488-.132-.168-.237-.337-.403-.468-.188-.17-.388-.272-.607-.37-.133-.088-.232-.188-.382-.238-.306-.116-6.796-2.45-12.788-2.75l-.052.1c-.4-.035-.804-.1-1.208-.1-.387 0-.787.065-1.19.1l-.05-.08c-5.452.28-11.328 2.21-12.535 2.65-.068.015-.1.033-.167.045l-.07.035c-.08.018-.115.07-.184.103-.3.133-.6.283-.854.52-.115.1-.184.232-.282.352-.168.203-.335.37-.438.6-.116.204-.15.423-.22.64-.03.17-.116.3-.134.47l-2.6 23.255c-.183 1.778 1.093 3.37 2.854 3.575.133.016.25.016.37.016 1.628 0 3.02-1.206 3.204-2.87l2.366-21.19c.266-.086.568-.166.89-.27v22.068l-2.57 31.978c-.167 2.148 1.425 4.013 3.556 4.18.1.018.2.018.317.018 1.996 0 3.694-1.53 3.86-3.575l2.316-28.896c.485.2 1.005.335 1.575.335.556 0 1.076-.135 1.56-.34l2.316 28.898c.168 2.045 1.865 3.575 3.88 3.575.1 0 .2 0 .3-.02 2.15-.165 3.724-2.03 3.556-4.178l-2.568-31.98V154.42c.32.088.622.188.892.255l2.363 21.206c.184 1.645 1.58 2.87 3.202 2.87.122 0 .238-.017.37-.017"/>
  <path d="M355.447 134.814c0 4.515 3.655 9.75 8.187 9.75 4.497 0 8.17-5.218 8.17-9.75 0-4.515-3.675-8.17-8.17-8.17-4.515 0-8.187 3.657-8.187 8.172m24.057 42.715c1.763-.2 3.038-1.794 2.853-3.572l-2.6-23.272c-.016-.15-.098-.284-.133-.434-.07-.238-.103-.455-.22-.67-.087-.184-.237-.338-.352-.488-.133-.168-.238-.337-.404-.468-.187-.17-.387-.272-.606-.37-.134-.088-.233-.188-.383-.238-.307-.116-6.797-2.45-12.788-2.75l-.053.1c-.4-.035-.804-.1-1.208-.1-.388 0-.788.065-1.19.1l-.05-.08c-5.453.28-11.33 2.21-12.535 2.65-.07.015-.1.033-.168.045l-.07.035c-.08.018-.116.07-.184.103-.3.134-.6.284-.855.52-.114.1-.183.233-.282.353-.167.203-.335.37-.437.6-.116.204-.15.423-.218.64-.03.17-.118.3-.135.47l-2.6 23.255c-.184 1.778 1.092 3.37 2.854 3.575.133.016.25.016.37.016 1.628 0 3.02-1.208 3.204-2.87l2.367-21.19c.267-.088.568-.168.89-.272v22.068L352 207.264c-.167 2.148 1.426 4.013 3.557 4.18.1.018.2.018.316.018 1.998 0 3.695-1.53 3.863-3.575l2.315-28.895c.486.2 1.006.335 1.576.335.555 0 1.075-.134 1.56-.338l2.315 28.896c.168 2.045 1.866 3.575 3.88 3.575.1 0 .202 0 .3-.018 2.15-.166 3.724-2.03 3.557-4.18l-2.57-31.978v-22.066c.322.088.624.188.894.255l2.363 21.206c.185 1.643 1.58 2.868 3.204 2.868.12 0 .237-.017.37-.017"/>
  <path d="M300.152 48.266c0 4.515 3.655 9.75 8.188 9.75 4.496 0 8.17-5.22 8.17-9.75 0-4.515-3.675-8.17-8.17-8.17-4.515 0-8.188 3.656-8.188 8.17m24.058 42.716c1.762-.2 3.037-1.795 2.852-3.572l-2.6-23.273c-.016-.15-.097-.283-.132-.433-.07-.238-.104-.455-.22-.67-.088-.184-.238-.338-.353-.488-.132-.17-.237-.337-.403-.47-.188-.167-.388-.27-.607-.37-.133-.086-.232-.186-.382-.236-.306-.116-6.796-2.45-12.788-2.75l-.052.1c-.4-.035-.804-.1-1.208-.1-.387 0-.787.065-1.19.1l-.05-.08c-5.452.28-11.328 2.21-12.535 2.65-.068.015-.1.032-.167.045l-.07.035c-.08.017-.115.07-.184.102-.3.134-.6.284-.854.52-.115.1-.184.233-.282.353-.168.202-.335.37-.438.6-.116.204-.15.422-.22.64-.03.17-.116.3-.134.47l-2.6 23.255c-.183 1.777 1.093 3.37 2.854 3.575.133.016.25.016.37.016 1.628 0 3.02-1.206 3.204-2.87l2.366-21.19c.266-.086.568-.166.89-.27v22.067l-2.57 31.98c-.167 2.147 1.425 4.012 3.556 4.178.1.02.2.02.317.02 1.996 0 3.694-1.53 3.86-3.576l2.316-28.896c.485.2 1.005.335 1.575.335.556 0 1.076-.135 1.56-.34l2.316 28.897c.168 2.045 1.865 3.575 3.88 3.575.1 0 .2 0 .3-.018 2.15-.167 3.724-2.032 3.556-4.18l-2.568-31.978V66.67c.32.087.622.187.892.255l2.363 21.206c.184 1.645 1.58 2.87 3.202 2.87.122 0 .238-.018.37-.018"/>
  <path d="M74.767 171.477c0 4.515 3.655 9.75 8.187 9.75 4.497 0 8.17-5.22 8.17-9.75 0-4.515-3.675-8.17-8.17-8.17-4.515 0-8.187 3.656-8.187 8.17m24.057 42.716c1.763-.2 3.038-1.795 2.853-3.572l-2.6-23.272c-.016-.15-.098-.284-.133-.434-.07-.237-.103-.455-.22-.67-.087-.183-.237-.337-.352-.487-.133-.17-.238-.338-.404-.47-.187-.168-.387-.27-.606-.37-.134-.086-.233-.186-.383-.236-.307-.116-6.797-2.45-12.788-2.75l-.053.1c-.4-.034-.804-.1-1.208-.1-.388 0-.788.066-1.19.1l-.05-.08c-5.453.282-11.33 2.212-12.535 2.65-.07.016-.1.033-.168.046l-.07.035c-.08.018-.116.07-.184.103-.3.134-.6.284-.855.52-.114.1-.183.233-.282.353-.167.202-.335.368-.437.6-.116.203-.15.422-.218.64-.03.168-.118.3-.135.47l-2.6 23.255c-.184 1.778 1.092 3.372 2.854 3.576.133.016.25.016.37.016 1.628 0 3.02-1.208 3.204-2.87L73 190.152c.267-.088.568-.168.89-.27v22.066l-2.57 31.98c-.167 2.146 1.426 4.01 3.557 4.178.1.018.2.018.316.018 1.998 0 3.695-1.53 3.863-3.575l2.315-28.896c.486.2 1.006.335 1.576.335.555 0 1.075-.134 1.56-.338l2.315 28.896c.168 2.045 1.866 3.575 3.88 3.575.1 0 .202 0 .3-.02 2.15-.165 3.724-2.03 3.557-4.177l-2.57-31.98v-22.065c.322.088.624.188.894.256l2.363 21.206c.185 1.644 1.58 2.87 3.204 2.87.12 0 .237-.02.37-.02"/>
  <path d="M187.76 48.266c0 4.515 3.655 9.75 8.188 9.75 4.496 0 8.17-5.22 8.17-9.75 0-4.515-3.675-8.17-8.17-8.17-4.515 0-8.188 3.656-8.188 8.17m24.058 42.716c1.762-.2 3.037-1.795 2.852-3.572l-2.6-23.273c-.016-.15-.097-.283-.132-.433-.07-.238-.104-.455-.22-.67-.088-.184-.238-.338-.353-.488-.132-.17-.237-.337-.404-.47-.186-.167-.386-.27-.605-.37-.134-.086-.232-.186-.382-.236-.307-.116-6.797-2.45-12.788-2.75l-.052.1c-.4-.035-.804-.1-1.208-.1-.387 0-.787.065-1.19.1l-.05-.08c-5.452.28-11.33 2.21-12.535 2.65-.07.015-.1.032-.167.045l-.07.035c-.08.017-.115.07-.184.102-.3.134-.6.284-.856.52-.115.1-.184.233-.283.353-.166.202-.334.37-.436.6-.116.204-.15.422-.22.64-.03.17-.116.3-.134.47l-2.6 23.255c-.184 1.777 1.093 3.37 2.854 3.575.132.016.25.016.37.016 1.627 0 3.02-1.206 3.204-2.87l2.366-21.19c.266-.086.567-.166.89-.27v22.067l-2.57 31.98c-.168 2.147 1.425 4.012 3.556 4.178.1.02.2.02.316.02 1.998 0 3.695-1.53 3.863-3.576l2.314-28.896c.485.2 1.005.335 1.575.335.554 0 1.074-.135 1.56-.34l2.314 28.897c.167 2.045 1.865 3.575 3.88 3.575.1 0 .2 0 .3-.018 2.15-.167 3.724-2.032 3.556-4.18l-2.57-31.978V66.67c.323.087.624.187.894.255l2.362 21.206c.185 1.645 1.582 2.87 3.204 2.87.12 0 .238-.018.37-.018"/>
  <path d="M467.238 135.415c0 4.515 3.655 9.75 8.188 9.75 4.496 0 8.17-5.22 8.17-9.75 0-4.515-3.675-8.17-8.17-8.17-4.515 0-8.188 3.656-8.188 8.17m24.058 42.716c1.762-.2 3.037-1.794 2.852-3.57l-2.6-23.274c-.016-.15-.097-.283-.132-.433-.07-.238-.104-.455-.22-.67-.088-.184-.238-.338-.353-.488-.132-.17-.237-.337-.404-.47-.188-.167-.388-.27-.607-.37-.134-.086-.232-.186-.382-.236-.306-.117-6.796-2.45-12.787-2.75l-.052.1c-.4-.036-.803-.1-1.207-.1-.387 0-.787.064-1.19.1l-.05-.082c-5.452.282-11.33 2.212-12.535 2.65-.07.016-.1.033-.167.046l-.068.035c-.08.016-.116.068-.185.1-.3.135-.6.285-.855.52-.115.1-.184.234-.283.354-.168.202-.336.37-.438.6-.116.204-.15.422-.22.64-.03.17-.116.3-.134.47l-2.6 23.255c-.184 1.776 1.093 3.37 2.854 3.574.132.016.25.016.37.016 1.627 0 3.02-1.207 3.204-2.87l2.366-21.19c.266-.087.567-.167.89-.27v22.066l-2.57 31.98c-.168 2.147 1.425 4.012 3.556 4.178.1.02.2.02.316.02 1.998 0 3.695-1.53 3.863-3.576l2.315-28.895c.485.2 1.005.335 1.575.335.555 0 1.075-.134 1.56-.338l2.315 28.896c.167 2.045 1.865 3.575 3.88 3.575.1 0 .2 0 .3-.017 2.15-.167 3.724-2.032 3.556-4.18l-2.57-31.978V153.82c.323.086.624.186.894.254l2.362 21.206c.185 1.644 1.582 2.87 3.204 2.87.12 0 .238-.02.37-.02"/>
  <path d="M412.545 169.073c0 4.515 3.655 9.75 8.187 9.75 4.496 0 8.17-5.22 8.17-9.75 0-4.515-3.675-8.17-8.17-8.17-4.515 0-8.187 3.656-8.187 8.17m24.057 42.716c1.763-.2 3.038-1.796 2.853-3.573l-2.6-23.273c-.017-.15-.098-.284-.133-.434-.07-.237-.104-.455-.22-.67-.087-.183-.237-.337-.352-.487-.133-.17-.238-.338-.404-.47-.188-.168-.388-.27-.606-.37-.134-.086-.233-.186-.383-.236-.306-.117-6.796-2.45-12.787-2.75l-.053.1c-.4-.035-.804-.1-1.207-.1-.388 0-.788.065-1.19.1l-.05-.082c-5.453.283-11.33 2.213-12.535 2.65-.07.017-.1.034-.168.047l-.07.035c-.08.017-.115.068-.184.102-.3.133-.6.283-.855.52-.115.1-.183.232-.282.352-.168.202-.335.368-.438.6-.116.203-.15.422-.218.64-.032.168-.118.3-.135.47l-2.6 23.255c-.184 1.777 1.092 3.37 2.853 3.575.133.016.25.016.37.016 1.628 0 3.02-1.208 3.204-2.87l2.366-21.19c.267-.088.568-.168.89-.27v22.066l-2.57 31.98c-.167 2.146 1.425 4.01 3.557 4.178.1.018.2.018.316.018 1.998 0 3.696-1.53 3.863-3.575l2.315-28.895c.485.2 1.005.335 1.575.335.555 0 1.075-.133 1.56-.337l2.315 28.896c.168 2.045 1.865 3.575 3.88 3.575.1 0 .202 0 .3-.02 2.15-.166 3.724-2.03 3.557-4.178l-2.57-31.98v-22.065c.322.087.623.187.893.255l2.363 21.206c.186 1.644 1.582 2.87 3.205 2.87.12 0 .237-.02.37-.02"/>
  <path d="M412.545 47.665c0 4.515 3.655 9.75 8.187 9.75 4.496 0 8.17-5.22 8.17-9.75 0-4.515-3.675-8.17-8.17-8.17-4.515 0-8.187 3.656-8.187 8.17m24.057 42.716c1.763-.2 3.038-1.794 2.853-3.57l-2.6-23.274c-.017-.15-.098-.283-.133-.433-.07-.238-.104-.455-.22-.67-.087-.184-.237-.338-.352-.488-.133-.17-.238-.337-.404-.47-.188-.167-.388-.27-.606-.37-.134-.086-.233-.186-.383-.236-.306-.117-6.796-2.45-12.787-2.75l-.053.1c-.4-.036-.804-.1-1.207-.1-.388 0-.788.064-1.19.1l-.05-.082c-5.453.282-11.33 2.212-12.535 2.65-.07.016-.1.033-.168.046l-.07.035c-.08.016-.115.068-.184.1-.3.135-.6.285-.855.52-.115.1-.183.234-.282.354-.168.202-.335.37-.438.6-.116.204-.15.422-.218.64-.032.17-.118.3-.135.47l-2.6 23.255c-.184 1.776 1.092 3.37 2.853 3.574.133.016.25.016.37.016 1.628 0 3.02-1.207 3.204-2.87l2.366-21.19c.267-.087.568-.167.89-.27v22.066l-2.57 31.98c-.167 2.147 1.425 4.012 3.557 4.178.1.02.2.02.316.02 1.998 0 3.696-1.53 3.863-3.576l2.315-28.895c.485.2 1.005.335 1.575.335.555 0 1.075-.134 1.56-.338l2.315 28.896c.168 2.045 1.865 3.575 3.88 3.575.1 0 .202 0 .3-.017 2.15-.167 3.724-2.032 3.557-4.18l-2.57-31.978V66.07c.322.086.623.186.893.254l2.363 21.206c.186 1.644 1.582 2.87 3.205 2.87.12 0 .237-.02.37-.02"/>
  <path d="M467.238 24.225c0 4.515 3.655 9.75 8.188 9.75 4.496 0 8.17-5.22 8.17-9.75 0-4.515-3.675-8.17-8.17-8.17-4.515 0-8.188 3.656-8.188 8.17m24.058 42.716c1.762-.2 3.037-1.794 2.852-3.57l-2.6-23.274c-.016-.15-.097-.283-.132-.433-.07-.238-.104-.455-.22-.67-.088-.184-.238-.338-.353-.488-.132-.17-.237-.337-.404-.47-.188-.167-.388-.27-.607-.37-.134-.086-.232-.186-.382-.236-.306-.117-6.796-2.45-12.787-2.75l-.052.1c-.4-.036-.803-.1-1.207-.1-.387 0-.787.064-1.19.1l-.05-.082c-5.452.282-11.33 2.212-12.535 2.65-.07.016-.1.033-.167.046l-.068.035c-.08.016-.116.068-.185.1-.3.135-.6.285-.855.52-.115.1-.184.234-.283.354-.168.202-.336.37-.438.6-.116.204-.15.422-.22.64-.03.17-.116.3-.134.47l-2.6 23.255c-.184 1.776 1.093 3.37 2.854 3.574.132.016.25.016.37.016 1.627 0 3.02-1.207 3.204-2.87l2.366-21.19c.266-.087.567-.167.89-.27v22.066l-2.57 31.98c-.168 2.147 1.425 4.012 3.556 4.178.1.02.2.02.316.02 1.998 0 3.695-1.53 3.863-3.576l2.315-28.895c.485.2 1.005.335 1.575.335.555 0 1.075-.134 1.56-.338l2.315 28.896c.167 2.045 1.865 3.575 3.88 3.575.1 0 .2 0 .3-.017 2.15-.167 3.724-2.032 3.556-4.18l-2.57-31.978V42.63c.323.086.624.186.894.254l2.362 21.206c.185 1.644 1.582 2.87 3.204 2.87.12 0 .238-.02.37-.02"/>
</svg>