<svg xmlns="http://www.w3.org/2000/svg" width="280" height="280">
  <defs>
    <clipPath id="a">
      <path d="M710.056 343.481h5.969v-3.67h-5.969v3.67z"/>
    </clipPath>
    <clipPath id="b">
      <path d="M754.007 353.979h24.338v-3.67h-24.338v3.67z"/>
    </clipPath>
    <clipPath id="c">
      <path d="M868.197 343.481h3.44v-3.67h-3.44v3.67z"/>
    </clipPath>
    <clipPath id="d">
      <path d="M710.056 374.356h16.931v-3.67h-16.931v3.67z"/>
    </clipPath>
    <clipPath id="e">
      <path d="M764.456 343.481h3.44v-3.67h-3.44v3.67z"/>
    </clipPath>
    <clipPath id="f">
      <path d="M710.056 363.859h22.51v-3.67h-22.51v3.67z"/>
    </clipPath>
    <clipPath id="g">
      <path d="M710.056 353.979h16.419v-3.67h-16.419v3.67z"/>
    </clipPath>
    <clipPath id="h">
      <path d="M753.495 374.356h25.362v-3.67h-25.362v3.67z"/>
    </clipPath>
    <clipPath id="i">
      <path d="M799.787 363.859h36.52v-3.67h-36.52v3.67z"/>
    </clipPath>
    <clipPath id="j">
      <path d="M747.916 363.859h36.521v-3.67h-36.521v3.67z"/>
    </clipPath>
    <clipPath id="k">
      <path d="M805.366 374.356h25.362v-3.67h-25.362v3.67z"/>
    </clipPath>
    <clipPath id="l">
      <path d="M857.236 374.356h25.362v-3.67h-25.362v3.67z"/>
    </clipPath>
    <clipPath id="m">
      <path d="M798.87 384.236h38.353v-3.67H798.87v3.67z"/>
    </clipPath>
    <clipPath id="n">
      <path d="M851.657 363.859h36.52v-3.67h-36.52v3.67z"/>
    </clipPath>
    <clipPath id="o">
      <path d="M850.741 384.236h38.353v-3.67h-38.353v3.67z"/>
    </clipPath>
    <clipPath id="p">
      <path d="M816.326 343.481h3.44v-3.67h-3.44v3.67z"/>
    </clipPath>
    <clipPath id="q">
      <path d="M710.056 384.236h23.426v-3.67h-23.426v3.67z"/>
    </clipPath>
    <clipPath id="r">
      <path d="M805.877 353.979h24.339v-3.67h-24.339v3.67z"/>
    </clipPath>
    <clipPath id="s">
      <path d="M902.611 388.147h23.426V170.239h-23.426v217.908z"/>
    </clipPath>
    <clipPath id="t">
      <path d="M747 384.236h38.353v-3.67H747v3.67z"/>
    </clipPath>
    <clipPath id="u">
      <path d="M857.747 353.979h24.339v-3.67h-24.339v3.67z"/>
    </clipPath>
  </defs>
  <path fill="#b81f3c" d="M234.85 45.567c1.918 0 4.2-.476 6.513-2.046.055.313.131.634.236.953a4.411 4.411 0 0 0-1.13 2.952c0 1.954-2.992 4.18-5.618 4.18-2.625 0-5.618-2.226-5.618-4.18a4.417 4.417 0 0 0-1.13-2.952c.105-.32.18-.64.235-.953 2.314 1.57 4.595 2.046 6.513 2.046m13.463-24.636c0 .315-.006.64-.02.973.122.012.245.033.366.065 1.983.493 3.034 3.136 2.344 5.9-.615 2.465-2.401 4.193-4.184 4.193-.209 0-.416-.023-.622-.072-2.002 4.962-5.573 10.702-11.348 10.702-5.772 0-9.344-5.74-11.346-10.702a2.676 2.676 0 0 1-.62.072c-1.785 0-3.571-1.728-4.185-4.192-.69-2.765.36-5.408 2.344-5.901.12-.032.242-.053.366-.065a25 25 0 0 1-.02-.973c0-7.435 6.027-11.894 13.462-11.894s13.463 4.46 13.463 11.894"/>
  <path fill="#fff" d="M224.602 46.664a.795.795 0 0 1 .67.145c.192.149.3.374.3.616 0 4.417 4.988 7.84 9.278 7.84 4.292 0 9.278-3.423 9.278-7.84a.788.788 0 0 1 .971-.761c.74.183 18.106 4.565 18.106 13.699v4.872a.784.784 0 0 1-.782.785h-4.183v-3.226a4.446 4.446 0 0 0-4.442-4.441h-37.894a4.447 4.447 0 0 0-4.444 4.441v3.226h-4.18a.785.785 0 0 1-.785-.785v-4.872c0-9.134 17.367-13.516 18.107-13.699"/>
  <path fill="#b81f3c" d="M170.012 45.567c1.919 0 4.2-.476 6.512-2.046.055.313.132.634.237.953a4.416 4.416 0 0 0-1.13 2.952c0 1.954-2.992 4.18-5.62 4.18-2.623 0-5.617-2.226-5.617-4.18a4.422 4.422 0 0 0-1.128-2.952c.105-.32.18-.64.235-.953 2.313 1.57 4.595 2.046 6.51 2.046m13.464-24.636c0 .315-.006.64-.019.973.123.012.245.033.366.065 1.983.493 3.033 3.136 2.343 5.9-.614 2.465-2.4 4.193-4.183 4.193-.21 0-.416-.023-.622-.072-2.001 4.962-5.573 10.702-11.349 10.702-5.771 0-9.342-5.74-11.345-10.702a2.686 2.686 0 0 1-.621.072c-1.784 0-3.57-1.728-4.184-4.192-.69-2.765.359-5.408 2.344-5.901.12-.032.242-.053.366-.065-.012-.333-.02-.658-.02-.973 0-7.435 6.028-11.894 13.461-11.894 7.437 0 13.463 4.46 13.463 11.894"/>
  <path fill="#fff" d="M159.764 46.664a.796.796 0 0 1 .671.145.774.774 0 0 1 .299.616c0 4.417 4.989 7.84 9.279 7.84s9.277-3.423 9.277-7.84a.785.785 0 0 1 .971-.761c.74.183 18.107 4.565 18.107 13.699v4.872a.784.784 0 0 1-.783.785h-4.182v-3.226a4.446 4.446 0 0 0-4.444-4.441h-37.893a4.446 4.446 0 0 0-4.443 4.441v3.226h-4.182a.784.784 0 0 1-.783-.785v-4.872c0-9.134 17.366-13.516 18.106-13.699"/>
  <path fill="#b81f3c" d="M105.174 45.567c1.918 0 4.2-.476 6.513-2.046.055.313.13.634.236.953a4.411 4.411 0 0 0-1.13 2.952c0 1.954-2.993 4.18-5.619 4.18-2.625 0-5.617-2.226-5.617-4.18a4.422 4.422 0 0 0-1.13-2.952c.105-.32.18-.64.235-.953 2.313 1.57 4.595 2.046 6.512 2.046m13.463-24.636c0 .315-.006.64-.018.973.122.012.245.033.366.065 1.982.493 3.032 3.136 2.342 5.9-.613 2.465-2.4 4.193-4.183 4.193-.21 0-.417-.023-.622-.072-2.002 4.962-5.573 10.702-11.348 10.702-5.772 0-9.344-5.74-11.345-10.702a2.694 2.694 0 0 1-.622.072c-1.783 0-3.57-1.728-4.183-4.192-.692-2.765.358-5.408 2.342-5.901.121-.032.243-.053.366-.065-.011-.333-.02-.658-.02-.973 0-7.435 6.029-11.894 13.463-11.894 7.436 0 13.462 4.46 13.462 11.894"/>
  <path fill="#fff" d="M94.925 46.664a.795.795 0 0 1 .671.145c.192.149.3.374.3.616 0 4.417 4.989 7.84 9.278 7.84 4.291 0 9.279-3.423 9.279-7.84 0-.242.108-.467.298-.616a.79.79 0 0 1 .673-.145c.739.183 18.105 4.565 18.105 13.699v4.872c0 .434-.35.785-.781.785h-4.183v-3.226a4.446 4.446 0 0 0-4.444-4.441H86.228a4.447 4.447 0 0 0-4.444 4.441v3.226h-4.181a.784.784 0 0 1-.783-.785v-4.872c0-9.134 17.365-13.516 18.105-13.699"/>
  <path fill="#b81f3c" d="M40.335 45.567c1.919 0 4.2-.476 6.514-2.046.055.313.131.634.236.953a4.411 4.411 0 0 0-1.13 2.952c0 1.954-2.992 4.18-5.62 4.18-2.623 0-5.616-2.226-5.616-4.18a4.417 4.417 0 0 0-1.13-2.952c.105-.32.18-.64.235-.953 2.314 1.57 4.595 2.046 6.511 2.046M53.8 20.931a25 25 0 0 1-.02.973c.122.012.245.033.366.065 1.982.493 3.034 3.136 2.344 5.9-.615 2.465-2.402 4.193-4.184 4.193a2.69 2.69 0 0 1-.623-.072c-2.001 4.962-5.572 10.702-11.347 10.702-5.773 0-9.344-5.74-11.346-10.702a2.676 2.676 0 0 1-.62.072c-1.785 0-3.572-1.728-4.185-4.192-.69-2.765.36-5.408 2.343-5.901.12-.032.243-.053.367-.065a25 25 0 0 1-.02-.973c0-7.435 6.027-11.894 13.462-11.894S53.8 13.497 53.8 20.931"/>
  <path fill="#fff" d="M30.087 46.664a.795.795 0 0 1 .672.145c.19.149.3.374.3.616 0 4.417 4.987 7.84 9.277 7.84 4.291 0 9.278-3.423 9.278-7.84a.788.788 0 0 1 .971-.761c.74.183 18.106 4.565 18.106 13.699v4.872a.784.784 0 0 1-.782.785h-4.183v-3.226a4.446 4.446 0 0 0-4.442-4.441H21.39a4.447 4.447 0 0 0-4.444 4.441v3.226h-4.181a.785.785 0 0 1-.784-.785v-4.872c0-9.134 17.366-13.516 18.106-13.699"/>
  <g clip-path="url(#a)" opacity=".2" transform="matrix(1.25 0 0 -1.25 -884.599 489.333)">
    <path fill="#b81f3c" d="M716.013 339.811h-4.122a1.84 1.84 0 0 0-1.835 1.835 1.84 1.84 0 0 0 1.835 1.835h4.135c-.003-.08-.013-.158-.013-.239v-3.43z"/>
  </g>
  <g clip-path="url(#b)" opacity=".2" transform="matrix(1.25 0 0 -1.25 -884.599 489.333)">
    <path fill="#b81f3c" d="M771.846 350.309h-11.34c-1.968 1.588-4.371 2.799-6.5 3.67h24.34c-2.13-.871-4.532-2.082-6.5-3.67"/>
  </g>
  <g clip-path="url(#c)" opacity=".2" transform="matrix(1.25 0 0 -1.25 -884.599 489.333)">
    <path fill="#b81f3c" d="M868.196 343.481h3.44c-.002-.08-.012-.158-.012-.239v-3.431h-3.415v3.431c0 .081-.01.159-.013.239"/>
  </g>
  <g clip-path="url(#d)" opacity=".2" transform="matrix(1.25 0 0 -1.25 -884.599 489.333)">
    <path fill="#b81f3c" d="M710.056 372.521a1.84 1.84 0 0 0 1.835 1.835h15.096a4.663 4.663 0 0 1-.967-1.508 6.079 6.079 0 0 1-.408-2.162H711.89a1.84 1.84 0 0 0-1.835 1.835"/>
  </g>
  <g clip-path="url(#e)" opacity=".2" transform="matrix(1.25 0 0 -1.25 -884.599 489.333)">
    <path fill="#b81f3c" d="M764.456 343.481h3.44c-.002-.08-.013-.158-.013-.239v-3.431h-3.414v3.431c0 .081-.01.159-.013.239"/>
  </g>
  <g clip-path="url(#f)" opacity=".2" transform="matrix(1.25 0 0 -1.25 -884.599 489.333)">
    <path fill="#b81f3c" d="M711.89 360.188a1.84 1.84 0 0 0-1.834 1.835 1.84 1.84 0 0 0 1.835 1.835h18.502c.66-1.404 1.388-2.628 2.174-3.67H711.89z"/>
  </g>
  <g clip-path="url(#g)" opacity=".2" transform="matrix(1.25 0 0 -1.25 -884.599 489.333)">
    <path fill="#b81f3c" d="M711.89 350.309a1.84 1.84 0 0 0-1.834 1.835 1.84 1.84 0 0 0 1.835 1.835h14.584c-2.128-.871-4.531-2.082-6.5-3.67h-8.084z"/>
  </g>
  <g clip-path="url(#h)" opacity=".2" transform="matrix(1.25 0 0 -1.25 -884.599 489.333)">
    <path fill="#b81f3c" d="M777.89 372.848a6.105 6.105 0 0 1-.408-2.162H754.87a6.083 6.083 0 0 1-.408 2.162 4.66 4.66 0 0 1-.968 1.508h25.363a4.676 4.676 0 0 1-.968-1.508"/>
  </g>
  <g clip-path="url(#i)" opacity=".2" transform="matrix(1.25 0 0 -1.25 -884.599 489.333)">
    <path fill="#b81f3c" d="M836.307 360.188h-36.521c.787 1.042 1.513 2.266 2.174 3.67h32.174c.66-1.404 1.388-2.628 2.173-3.67"/>
  </g>
  <g clip-path="url(#j)" opacity=".2" transform="matrix(1.25 0 0 -1.25 -884.599 489.333)">
    <path fill="#b81f3c" d="M784.437 360.188h-36.521c.787 1.042 1.513 2.266 2.174 3.67h32.173c.66-1.404 1.388-2.628 2.174-3.67"/>
  </g>
  <g clip-path="url(#k)" opacity=".2" transform="matrix(1.25 0 0 -1.25 -884.599 489.333)">
    <path fill="#b81f3c" d="M829.76 372.848a6.061 6.061 0 0 1-.407-2.162H806.74a6.061 6.061 0 0 1-.408 2.162 4.643 4.643 0 0 1-.968 1.508h25.363a4.657 4.657 0 0 1-.967-1.508"/>
  </g>
  <g clip-path="url(#l)" opacity=".2" transform="matrix(1.25 0 0 -1.25 -884.599 489.333)">
    <path fill="#b81f3c" d="M858.204 372.848a4.676 4.676 0 0 1-.968 1.508H882.6a4.66 4.66 0 0 1-.968-1.508 6.083 6.083 0 0 1-.408-2.162h-22.61a6.105 6.105 0 0 1-.409 2.162"/>
  </g>
  <g clip-path="url(#m)" opacity=".2" transform="matrix(1.25 0 0 -1.25 -884.599 489.333)">
    <path fill="#b81f3c" d="M833.27 380.566h-30.447c-.952 1.522-2.298 2.77-3.953 3.67h38.353c-1.655-.9-3.002-2.148-3.953-3.67"/>
  </g>
  <g clip-path="url(#n)" opacity=".2" transform="matrix(1.25 0 0 -1.25 -884.599 489.333)">
    <path fill="#b81f3c" d="M853.831 363.858h32.173c.661-1.404 1.388-2.628 2.174-3.67h-36.52c.785 1.042 1.512 2.266 2.173 3.67"/>
  </g>
  <g clip-path="url(#o)" opacity=".2" transform="matrix(1.25 0 0 -1.25 -884.599 489.333)">
    <path fill="#b81f3c" d="M885.14 380.566h-30.445c-.952 1.522-2.298 2.77-3.953 3.67h38.352c-1.655-.9-3.001-2.148-3.953-3.67"/>
  </g>
  <g clip-path="url(#p)" opacity=".2" transform="matrix(1.25 0 0 -1.25 -884.599 489.333)">
    <path fill="#b81f3c" d="M816.326 343.481h3.44c-.002-.08-.012-.158-.012-.239v-3.431h-3.415v3.431c0 .081-.01.159-.013.239"/>
  </g>
  <g clip-path="url(#q)" opacity=".2" transform="matrix(1.25 0 0 -1.25 -884.599 489.333)">
    <path fill="#b81f3c" d="M729.53 380.566h-17.64a1.841 1.841 0 0 0-1.835 1.835 1.84 1.84 0 0 0 1.835 1.835h21.592c-1.655-.9-3-2.148-3.953-3.67"/>
  </g>
  <g clip-path="url(#r)" opacity=".2" transform="matrix(1.25 0 0 -1.25 -884.599 489.333)">
    <path fill="#b81f3c" d="M830.216 353.978c-2.13-.87-4.531-2.082-6.5-3.67h-11.34c-1.968 1.588-4.37 2.8-6.5 3.67h24.34z"/>
  </g>
  <g clip-path="url(#s)" opacity=".2" transform="matrix(1.25 0 0 -1.25 -884.599 489.333)">
    <path fill="#b81f3c" d="M920.067 343.481h2.222v6.828h-6.172c-1.968 1.588-4.37 2.798-6.499 3.67h12.671v6.21h-18.762c.786 1.042 1.513 2.266 2.174 3.669h16.588v6.828h-11.807a6.105 6.105 0 0 1-.408 2.162 4.682 4.682 0 0 1-.968 1.508h13.183v6.21h-15.725c-.952 1.522-2.298 2.77-3.953 3.67h19.678v2.076a1.84 1.84 0 0 0 1.835 1.835h.078a1.84 1.84 0 0 0 1.835-1.835V172.074a1.84 1.84 0 0 0-1.835-1.835h-.078a1.84 1.84 0 0 0-1.835 1.835v167.737h-2.209v3.431c0 .081-.01.159-.013.239"/>
  </g>
  <g clip-path="url(#t)" opacity=".2" transform="matrix(1.25 0 0 -1.25 -884.599 489.333)">
    <path fill="#b81f3c" d="M781.4 380.566h-30.447c-.952 1.522-2.298 2.77-3.953 3.67h38.352c-1.654-.9-3-2.148-3.953-3.67"/>
  </g>
  <g clip-path="url(#u)" opacity=".2" transform="matrix(1.25 0 0 -1.25 -884.599 489.333)">
    <path fill="#b81f3c" d="M882.086 353.978c-2.128-.87-4.531-2.082-6.5-3.67h-11.34c-1.967 1.588-4.37 2.8-6.5 3.67h24.34z"/>
  </g>
  <path fill="#fff" d="M208.951 66.021h52.846v-9.69h-52.846v9.69zm-65 0h52.846v-9.69h-52.846v9.69zm-65 0h52.846v-9.69H78.951v9.69zm-65 0h52.846v-9.69H13.951v9.69z"/>
</svg>
