<svg xmlns="http://www.w3.org/2000/svg" width="74" height="96"><path d="M36.477 79.542c-10.484 0-19.009-8.526-19.009-19.007 0-10.484 8.525-19.01 19.009-19.01 10.481 0 19.009 8.526 19.009 19.01-.003 10.48-8.528 19.007-19.01 19.007zm6.199-49.622v-8.14h4.902V11.483h-4.902V4.128H30.418v7.355h-5.394V21.78h5.394v8.053c-14.219 2.765-25.29 15.475-25.29 30.702 0 17.238 14.068 31.266 31.306 31.266 17.242 0 31.207-14.028 31.207-31.266 0-15.062-10.748-27.665-24.965-30.615z" fill="none" stroke="#f5f5f5" stroke-miterlimit="10" stroke-dasharray="1,1" stroke-width="1.25"/></svg>