<svg xmlns="http://www.w3.org/2000/svg" width="600" height="490"><defs><clipPath id="a"><path d="M0 730.065h960V0H0v730.065z"/></clipPath><clipPath id="b"><path d="M477.15 650.56h449V176.198h-449V650.56z"/></clipPath><clipPath id="c"><path d="M471.827 534.52h195.914V164.765H471.827V534.52z"/></clipPath></defs><path d="M327.66 484.021c-121.177-6.806-217.34-107.225-217.34-230.103 0-127.287 103.185-230.472 230.47-230.472l.597 230.288L327.66 484.02z" fill="#b81f3c"/><g clip-path="url(#c)" opacity=".2" transform="matrix(1.25 0 0 -1.25 -250.289 690.97)"><path d="M482.864 534.02c101.828 0 184.377-82.55 184.377-184.377 0-101.83-82.549-184.377-184.377-184.377-3.526 0-7.028.098-10.505.294l12.192 184.083-1.687 184.377z" fill="#fff"/><path d="M482.864 534.02c101.828 0 184.377-82.55 184.377-184.377 0-101.83-82.549-184.377-184.377-184.377-3.526 0-7.028.098-10.505.294l12.192 184.083-1.687 184.377z" fill="none" stroke="#fff" stroke-miterlimit="10" stroke-dasharray="1,3"/></g><path d="M366.151 238.691l-1.03-230.479c107.297.502 197.125 74.245 222.335 173.638L366.151 238.69z" fill="none" stroke="#f5f5f5" stroke-miterlimit="10" stroke-dasharray="1,1" stroke-width="1.25"/><g><path d="M3.988 186.672h152.91" fill="none" stroke="#b81f3c" stroke-miterlimit="10" stroke-dasharray="1,1" stroke-width="1.25"/></g></svg>