<svg xmlns="http://www.w3.org/2000/svg" viewBox="0 0 96.16 93.79"><defs><style>.cls-1{fill:#b81f3c;}.cls-2{fill:#fff;}.cls-3{opacity:0.3;}</style></defs><title>perfil-pop</title><g id="Camada_2" data-name="Camada 2"><g id="Layer_1" data-name="Layer 1"><path class="cls-1" d="M51.46,53.69A14.81,14.81,0,0,1,43,51a8.81,8.81,0,0,1-.31,1.23,5.71,5.71,0,0,1,1.46,3.82c0,2.53,3.88,5.42,7.28,5.42s7.28-2.89,7.28-5.42a5.72,5.72,0,0,1,1.46-3.82A8.64,8.64,0,0,1,59.9,51a14.81,14.81,0,0,1-8.44,2.65Zm0,0"/><path class="cls-1" d="M34,21.78q0,.61,0,1.26a3.29,3.29,0,0,0-.47.08c-2.57.64-3.93,4.06-3,7.65C31.33,34,33.65,36.2,36,36.2a3.49,3.49,0,0,0,.81-.09C39.36,42.53,44,50,51.46,50s12.11-7.44,14.7-13.87a3.49,3.49,0,0,0,.8.09c2.31,0,4.63-2.24,5.42-5.43.89-3.58-.47-7-3-7.65a3.22,3.22,0,0,0-.47-.08c0-.43,0-.85,0-1.26,0-9.63-7.81-15.41-17.44-15.41S34,12.14,34,21.78Zm0,0"/><path class="cls-2" d="M64.74,55.11a1,1,0,0,0-.87.19,1,1,0,0,0-.39.8c0,5.72-6.46,10.16-12,10.16s-12-4.44-12-10.16a1,1,0,0,0-.39-.8,1,1,0,0,0-.63-.22,1,1,0,0,0-.24,0c-1,.24-23.46,5.91-23.46,17.75V84a1,1,0,0,0,1,1h5.42V76a5.76,5.76,0,0,1,5.76-5.76H76A5.76,5.76,0,0,1,81.77,76v9h5.42a1,1,0,0,0,1-1V72.86C88.2,61,65.7,55.35,64.74,55.11Zm0,0"/><path class="cls-2" d="M76,75H26.92a1,1,0,0,0-1,1V92.77a1,1,0,0,0,1,1H76a1,1,0,0,0,1-1V76a1,1,0,0,0-1-1Zm0,0"/><g class="cls-3"><path class="cls-1" d="M70.18,12.36H92.77a3.39,3.39,0,0,0,0-6.77H63.26a19.31,19.31,0,0,1,2.93,2,17.76,17.76,0,0,1,4,4.75Zm0,0"/><path class="cls-1" d="M92.77,22.35H74.45a9,9,0,0,1,1.19,2.12,11.3,11.3,0,0,1,.74,4.65h16.4a3.39,3.39,0,0,0,0-6.77Zm0,0"/><path class="cls-1" d="M92.77,39.11H69.91a43.54,43.54,0,0,1-4.33,6.77H92.77a3.39,3.39,0,1,0,0-6.77Zm0,0"/><path class="cls-1" d="M92.77,55.87H79.87a32.5,32.5,0,0,1,8.91,6.77h4a3.39,3.39,0,1,0,0-6.77Zm0,0"/><path class="cls-1" d="M23.05,55.87H10.16v-10h27A43.47,43.47,0,0,1,33,39.11H10.16v-10h16.4a11.27,11.27,0,0,1,.74-4.65,9,9,0,0,1,1.19-2.12H10.16v-10H32.75a17.79,17.79,0,0,1,4-4.75,19.31,19.31,0,0,1,2.93-2H10.16V3.39A3.39,3.39,0,0,0,6.77,0H3.39A3.39,3.39,0,0,0,0,3.39v83.8a3.39,3.39,0,0,0,3.39,3.39H6.77a3.39,3.39,0,0,0,3.39-3.39V85.39A5.75,5.75,0,0,1,10,84V72.86a14,14,0,0,1,.17-2.14V62.64h4a32.49,32.49,0,0,1,8.91-6.77Zm0,0"/><path class="cls-1" d="M92.94,72.63c0,.08,0,.15,0,.23v6.53a3.38,3.38,0,0,0,0-6.75ZM94.55,76"/></g></g></g></svg>