<svg xmlns="http://www.w3.org/2000/svg" viewBox="0 0 32.5 40"><g><path d="M16.25,10A6.26,6.26,0,0,0,10,16.25v20a1.25,1.25,0,0,0,2.5,0v-20a3.75,3.75,0,0,1,7.5,0,1.25,1.25,0,1,0,2.5,0A6.26,6.26,0,0,0,16.25,10Zm0,0"/><path d="M16.25,15A1.25,1.25,0,0,0,15,16.25V27.5a1.25,1.25,0,0,0,2.5,0V16.25A1.25,1.25,0,0,0,16.25,15Zm0,0"/><path d="M16.25,31.25A1.25,1.25,0,0,0,15,32.5v6.25a1.25,1.25,0,1,0,2.5,0V32.5a1.25,1.25,0,0,0-1.25-1.25Zm0,0"/><path d="M21.25,20A1.25,1.25,0,0,0,20,21.25v15a1.25,1.25,0,1,0,2.5,0v-15A1.25,1.25,0,0,0,21.25,20Zm0,0"/><path d="M6.25,22.5A1.25,1.25,0,0,0,5,23.75V32.5a1.25,1.25,0,0,0,2.5,0V23.75A1.25,1.25,0,0,0,6.25,22.5Zm0,0"/><path d="M31.25,20A1.25,1.25,0,0,0,30,21.25V27.5a1.25,1.25,0,0,0,2.5,0V21.25A1.25,1.25,0,0,0,31.25,20Zm0,0"/><path d="M25.06,11.34A1.25,1.25,0,0,0,24.37,13,8.7,8.7,0,0,1,25,16.25V32.5a1.25,1.25,0,0,0,2.5,0V16.25A11.19,11.19,0,0,0,26.68,12a1.25,1.25,0,0,0-1.63-.69Zm0,0"/><path d="M16.25,5A11.26,11.26,0,0,0,5,16.25v2.5a1.25,1.25,0,0,0,2.5,0v-2.5A8.76,8.76,0,0,1,16.25,7.5a8.65,8.65,0,0,1,5.47,1.92,1.25,1.25,0,1,0,1.57-1.95,11.28,11.28,0,0,0-7-2.47Zm0,0"/><path d="M10.75,3.65A13.76,13.76,0,0,1,30,16.25a1.25,1.25,0,1,0,2.5,0A16.26,16.26,0,0,0,9.75,1.35a1.25,1.25,0,1,0,1,2.29Zm0,0"/><path d="M5.9,5.32a1.25,1.25,0,0,0-1.77.1A16.22,16.22,0,0,0,0,16.25V27.5a1.25,1.25,0,0,0,2.5,0V16.25A13.72,13.72,0,0,1,6,7.08a1.25,1.25,0,0,0-.1-1.77Zm0,0"/></g></svg>