<svg xmlns="http://www.w3.org/2000/svg" viewBox="0 0 32.68 40"><g><path d="M15.34,2a2,2,0,1,1,2,2,2,2,0,0,1-2-2Zm0,0"/><path d="M4.73,2a2,2,0,1,1,2,2,2,2,0,0,1-2-2Zm0,0"/><path d="M.76,3.82a5.57,5.57,0,0,0,0,5.63L7.15,20.51A5.56,5.56,0,0,0,11,23.24v5.33C11,34.87,15,40,19.87,40s8.84-5.13,8.84-11.43V22.22a5,5,0,1,0-2,0v6.35c0,5.21-3.07,9.45-6.85,9.45S13,33.78,13,28.57V23.24a5.56,5.56,0,0,0,3.88-2.73L23.28,9.46A5.63,5.63,0,0,0,18.4,1V3a3.64,3.64,0,0,1,3.16,5.47L15.18,19.52a3.64,3.64,0,0,1-6.31,0L2.48,8.46A3.64,3.64,0,0,1,5.64,3V1A5.58,5.58,0,0,0,.76,3.82Zm0,0"/></g></svg>