<svg xmlns="http://www.w3.org/2000/svg" viewBox="0 0 144.27 95"><defs><style>.cls-1{fill:rgb(175,30,35)}</style></defs>
<g>
    <path class="cls-1" d="M86.51 0h-1v1h1V0zm-2 0h-1v1h1V0zm-2 0h-1v1h1V0zm-2 0h-1v1h1V0zm-2 0h-1v1h1V0zm-2 0h-1v1h1V0zm-2 0h-1v1h1V0zm-2 0h-1v1h1V0zm-2 0h-1v1h1V0zm-2 0h-1v1h1V0zm-2 0h-1v1h1V0zm-2 0h-1v1h1V0zm-2 0h-1v1h1V0zm-2 0h-1v1h1V0zm-2 0h-1v1h1V0zm-2 0h-1v1h1V0zm-2 0h-1v1h1V0zm-2 0h-1v1h1V0zm-2 0h-1v1h1V0zm-2 0h-1v1h1V0zm-2 0h-1v1h1V0zm-2 0h-1v1h1V0zm-2 0h-1v1h1V0zm-2 0h-1v1h1V0zm-2 0h-1v1h1V0zm-2 0h-1v1h1V0zm-2 0h-1v1h1V0zm-2 0h-1v1h1V0zm-2 0h-1v1h1V0zm-2 0h-1v1h1V0zm-2 0h-1v1h1V0zm-1.93.11l-.46.89.89.46.46-.89-.89-.46zm-.92 1.78l-.46.89.89.46.46-.89-.89-.46zm-.92 1.78l-.18.33-.26.51.89.46.46-.89-.89-.46zm-.92 1.78l-.16.3-.3.57.89.46.46-.89-.89-.46zm-.92 1.78l-.35.67-.09.18.89.46.46-.89-.89-.46zM20 9l-.23.44-.2.39.89.46.46-.89L20 9zm-.92 1.78l-.13.26-.32.61.89.46.46-.89-.89-.46zm-.92 1.78l-.31.6-.15.28.89.46.46-.89-.89-.46zm-.92 1.78l-.46.89.89.46.46-.89-.89-.46zm-.92 1.78l-.46.89.89.46.46-.89-.89-.46zm-.92 1.78l-.41.79v.09l.89.46.46-.89-.89-.46zm-.92 1.78l-.41.79.89.46.46-.89-.89-.46zm-.92 1.78l-.46.89.89.46.46-.89-.89-.46zm-.92 1.78l-.2.39-.25.49.89.46.46-.89-.89-.46zM11.75 25l-.24.47-.22.42.89.46.46-.89-.89-.46zm-.92 1.78l-.28.54-.18.35.89.46.46-.89-.89-.46zm-.92 1.78l-.46.89.89.46.46-.91-.89-.46zM9 30.33l-.1.19-.33.65.89.46.46-.89-.92-.41zm-.92 1.77l-.08.14-.38.76.89.46.49-.9-.89-.46zm-.92 1.78l-.11.21-.35.67.89.46.46-.89-.89-.46zm-.92 1.78l-.15.34-.29.57.89.46.46-.89-.89-.46zm-.92 1.78l-.12.24-.33.65.89.46.46-.89-.89-.46zm-.92 1.78l-.24.47-.16.41.89.46.46-.89-.89-.46zM3.5 41l-.14.28-.3.58.89.46.46-.89L3.5 41zm-.92 1.78v.07l-.4.78.89.46.46-.89-.89-.46zm-.92 1.78l-.28.55-.18.34.89.46.46-.91-.89-.46zm-.91 1.76l-.24.46-.5 1V48H1v-.42l.18.09.46-.89-.89-.46zM3 47H2v1h1v-1zm2 0H4v1h1v-1zm2 0H6v1h1v-1zm2 0H8v1h1v-1zm2 0h-1v1h1v-1zm2 0h-1v1h1v-1zm2 0h-1v1h1v-1zm2 0h-1v1h1v-1zm2 0h-1v1h1v-1zm2 0h-1v1h1v-1zm2 0h-1v1h1v-1zm2 0h-1v1h1v-1zm2 0h-1v1h1v-1zm2 0h-1v1h1v-1zm2 0h-1v1h1v-1zm2.49 0H32v1h.89l.05.1.88-.47-.05-.1-.28-.53zm.8 1.52l-.88.47.19.36.28.52.88-.47-.47-.88zm.93 1.77l-.88.47.47.88.88-.47-.47-.89zm.93 1.77l-.88.47.36.68.09.18.88-.47-.47-.88zm.93 1.77l-.88.47.47.88.88-.47-.47-.88zM38 55.6l-.88.47.47.88.88-.47-.47-.88zm.93 1.77l-.88.47.47.88.88-.47-.47-.88zm.93 1.77l-.86.46.47.88.88-.47-.47-.88zm.93 1.77l-.88.47.47.88.88-.47-.47-.88zm.93 1.77l-.88.47.47.88.88-.47-.47-.88zm.93 1.77l-.88.47.47.88.88-.47-.47-.88zm.93 1.77l-.88.47.47.88.88-.47-.47-.88zm.96 1.78l-.88.47.47.88.88-.47-.47-.88zm.93 1.77l-.88.47.47.89.88-.47-.47-.88zm.93 1.77l-.88.47.47.88.88-.47-.47-.88zm.93 1.77l-.88.47.47.88.88-.47-.47-.88zm.93 1.77l-.88.47.47.88.88-.47-.47-.88zm.93 1.77l-.88.47.2.39.26.49.88-.47-.47-.88zm.93 1.77l-.88.47.47.88.88-.47-.47-.89zm.93 1.77l-.88.47.47.89.88-.47-.47-.88zm.95 1.75l-.88.47.18.34.28.53.88-.47-.46-.87zm.93 1.77l-.88.47.47.88.88-.47-.47-.88zm.93 1.77l-.88.47.19.37.27.51.88-.47-.47-.88zm.93 1.77l-.88.47.47.88.88-.47-.47-.88zm.93 1.77l-.88.47.36.68.1.18.88-.47-.47-.89zm.94 1.78l-.88.47.47.89.88-.47-.47-.89zm.93 1.77l-.88.47.47.88.88-.47-.47-.88zm1 1.24h-1v1h1V94zm-1 1zm3-1h-1v1h1V94zm2 0h-1v1h1V94zm2 0h-1v1h1V94zm2 0h-1v1h1V94zm2 0h-1v1h1V94zm2 0h-1v1h1V94zm2 0h-1v1h1V94zm2 0h-1v1h1V94zm2 0h-1v1h1V94zm2 0h-1v1h1V94zm2 0h-1v1h1V94zm2 0h-1v1h1V94zm2 0h-1v1h1V94zm2 0h-1v1h1V94zm2 0h-1v1h1V94zm2 0h-1v1h1V94zm2 0h-1v1h1V94zm2 0h-1v1h1V94zm2 0h-1v1h1V94zm2 0h-1v1h1V94zm2 0h-1v1h1V94zm2 0h-1v1h1V94zm2 0h-1v1h1V94zm2 0h-1v1h1V94zm2 0h-1v1h1V94zm2 0h-1v1h1V94zm2 0h-1v1h1V94zm2 0h-1v1h1V94zm2 0h-1v1h1V94zm2 0h-1v1h1V94zm.52-.45l-.47.88.88.47.48-.91-.88-.47zm.93-1.77l-.47.88.88.47.47-.88-.88-.47zM121 90l-.47.88.88.47.47-.89L121 90zm.93-1.77l-.47.88.88.47.19-.36.27-.51-.88-.47zm.93-1.77l-.47.88.88.47.47-.88-.88-.47zm.93-1.77l-.47.88.88.47.47-.89-.88-.47zm.93-1.77l-.47.88.88.47.47-.88-.88-.47zm.93-1.77l-.47.88.88.47.36-.69.1-.19-.88-.47zm.93-1.77l-.47.88.88.47.47-.88-.88-.47zm.93-1.77l-.47.88.96.51.07-.14h.07v-.07l.05-.1-.88-.47zm.93-1.77l-.47.88.88.47.47-.88-.88-.47zm.93-1.77l-.47.88.88.47.47-.88-.88-.47zm.93-1.77l-.47.88.88.47.47-.88-.88-.47zm.93-1.77l-.47.89.88.47.47-.88-.88-.47zm.93-1.77l-.47.88.88.47.47-.88-.88-.47zm.93-1.77l-.47.88.88.47.47-.88-.88-.47zm.93-1.77l-.47.89.88.47.32-.6.15-.28-.88-.47zm.93-1.77l-.47.88.88.47.47-.88-.88-.47zm.93-1.77l-.47.88.88.47.47-.88-.88-.47zm.93-1.77l-.47.89.88.47.47-.88-.88-.47zm.93-1.77l-.47.88.88.47.45-.85-.88-.47zm.93-1.77l-.47.88.88.47.21-.39.26-.5-.88-.47zm.93-1.77l-.47.89.88.47.47-.88-.88-.47zm.93-1.77l-.47.88.88.47.47-.88-.88-.47zm.93-1.77l-.47.88.88.47.18-.34.28-.52-.88-.47zm.93-1.77l-.47.88.88.47.47-.88-.88-.47zm1.87-1.29h-2v1h1v-.39l.53.28.47-.88zm-3 0h-1v1h1v-1zm-2 0h-1v1h1v-1zm-2 0h-1v1h1v-1zm-2 0h-1v1h1v-1zm-2 0h-1v1h1v-1zm-2 0h-1v1h1v-1zm-2 0h-1v1h1v-1zm-2 0h-1v1h1v-1zm-2 0h-1v1h1v-1zm-2 0h-1v1h1v-1zm-2 0h-1v1h1v-1zm-2 0h-1v1h1v-1zm-2 0h-1v1h1v-1zm-2 0h-1v1h1v-1zm-2 0h-1v1h1v-1zm-2.46-.88l-.89.46.46.88.28.54h.61v-1l-.46-.88zm-.92-1.78l-.89.46.46.89.89-.46-.12-.24-.34-.65zm-.88-1.78l-.89.46.46.89.89-.46-.16-.32-.29-.57zm-.92-1.78l-.89.46.46.89.89-.46-.2-.38-.25-.49zm-.94-1.78l-.89.46.46.89.89-.46-.08-.15-.38-.73zm-.92-1.78l-.89.46.46.89.89-.46-.11-.22-.31-.61zm-.92-1.78l-.89.46.46.89.89-.46-.43-.83zm-.92-1.78l-.89.46.51.88.89-.46-.46-.89zm-.92-1.78l-.89.46.46.89.89-.46-.24-.46-.22-.42zm-.92-1.78l-.89.46.46.89.89-.45-.2-.38-.26-.51zm-.92-1.78l-.89.46.46.89.89-.46-.46-.89zm-.92-1.78l-.89.46.46.89.89-.46-.36-.69-.08-.15zm-.92-1.78l-.89.46.46.89.89-.46-.26-.5-.19-.36zM98.89 24l-.89.46.46.89.89-.46-.35-.68-.1-.2zM98 22.23l-.89.46.46.89.89-.46-.32-.61-.14-.28zm-.92-1.78l-.89.46.46.89.89-.46-.32-.63-.13-.25zm-.92-1.78l-.89.46.46.89.89-.46-.37-.71-.09-.18zm-.92-1.78l-.89.46.46.89.89-.46-.25-.49-.17-.33zm-.92-1.78l-.89.46.46.89.89-.46-.39-.75v-.05zm-.92-1.78l-.89.46.46.89.89-.46-.16-.3-.3-.57zm-.92-1.78l-.89.46.46.89.89-.46-.2-.38-.26-.5zm-.92-1.78l-.89.46.46.89.89-.46-.23-.44-.23-.44zM90.64 8l-.89.46.46.89.89-.46-.46-.89zm-.92-1.78l-.89.46.46.89.89-.46-.46-.89zm-.92-1.78l-.89.46.46.89.89-.46-.42-.82zm-.92-1.78l-.88.47.46.89.89-.46-.46-.89zM87 .9l-.89.46.46.89.89-.46L87 .9z"/>
    <path class="cls-1" d="M41.34 62.5h95.14l-16.96 32H57.77l-16.43-32z"/>
</g>
</svg>
