<?xml version="1.0" encoding="UTF-8" standalone="no"?>
<svg width="26px" height="15px" viewBox="0 0 26 15" version="1.1" xmlns="http://www.w3.org/2000/svg" xmlns:xlink="http://www.w3.org/1999/xlink">
    <!-- Generator: Sketch 3.6.1 (26313) - http://www.bohemiancoding.com/sketch -->
    <title>Shape</title>
    <desc>Created with Sketch.</desc>
    <defs></defs>
    <g id="Stickersheet" stroke="none" stroke-width="1" fill="none" fill-rule="evenodd">
        <g id="DESK-DADOS" transform="translate(-523.000000, -92.000000)" fill="#FFFFFF">
            <g id="Menu" transform="translate(-6.000000, 0.000000)">
                <g id="Menu-Dashboard" transform="translate(526.000000, 89.000000)">
                    <g id="macro-dados" transform="translate(0.000000, 3.000000)">
                        <path d="M29,2.45207775 C29,3.80072052 27.9363636,4.90415551 26.6363636,4.90415551 C26.4236364,4.90415551 26.2227273,4.87963473 26.0336364,4.81833279 L21.8263636,9.1707708 C21.8854545,9.36693702 21.9090909,9.58762402 21.9090909,9.80831102 C21.9090909,11.1569538 20.8454545,12.2603888 19.5454545,12.2603888 C18.2454545,12.2603888 17.1818182,11.1569538 17.1818182,9.80831102 C17.1818182,9.58762402 17.2054545,9.36693702 17.2645455,9.1707708 L14.2509091,6.04437166 C14.0618182,6.10567361 13.8490909,6.13019439 13.6363636,6.13019439 C13.4236364,6.13019439 13.2109091,6.10567361 13.0218182,6.04437166 L7.64454545,11.6351089 C7.70363636,11.8312752 7.72727273,12.0397018 7.72727273,12.2603888 C7.72727273,13.6090315 6.66363636,14.7124665 5.36363636,14.7124665 C4.06363636,14.7124665 3,13.6090315 3,12.2603888 C3,10.911746 4.06363636,9.80831102 5.36363636,9.80831102 C5.57636364,9.80831102 5.77727273,9.8328318 5.96636364,9.89413374 L11.3554545,4.31565685 C11.2963636,4.11949063 11.2727273,3.89880363 11.2727273,3.67811663 C11.2727273,2.32947387 12.3363636,1.22603888 13.6363636,1.22603888 C14.9363636,1.22603888 16,2.32947387 16,3.67811663 C16,3.89880363 15.9763636,4.11949063 15.9172727,4.31565685 L18.9309091,7.44205599 C19.12,7.38075404 19.3327273,7.35623326 19.5454545,7.35623326 C19.7581818,7.35623326 19.9709091,7.38075404 20.16,7.44205599 L24.3554545,3.07735758 C24.2963636,2.88119136 24.2727273,2.67276475 24.2727273,2.45207775 C24.2727273,1.10343499 25.3363636,0 26.6363636,0 C27.9363636,0 29,1.10343499 29,2.45207775 L29,2.45207775 Z" id="Shape"></path>
                    </g>
                </g>
            </g>
        </g>
    </g>
</svg>