<?xml version="1.0" encoding="UTF-8" standalone="no"?>
<svg
   xmlns:dc="http://purl.org/dc/elements/1.1/"
   xmlns:cc="http://creativecommons.org/ns#"
   xmlns:rdf="http://www.w3.org/1999/02/22-rdf-syntax-ns#"
   xmlns:svg="http://www.w3.org/2000/svg"
   xmlns="http://www.w3.org/2000/svg"
   xmlns:sodipodi="http://sodipodi.sourceforge.net/DTD/sodipodi-0.dtd"
   xmlns:inkscape="http://www.inkscape.org/namespaces/inkscape"
   version="1.1"
   id="svg8"
   sodipodi:docname="c.svg"
   inkscape:version="0.92.2 2405546, 2018-03-11">
  <defs
     id="defs12">
    <filter
       inkscape:collect="always"
       style="color-interpolation-filters:sRGB"
       id="filter4605"
       x="-0.11675677"
       width="1.2335135"
       y="-0.12342855"
       height="1.2468571">
      <feGaussianBlur
         inkscape:collect="always"
         stdDeviation="52.662851"
         id="feGaussianBlur4607" />
    </filter>
  </defs>
  <sodipodi:namedview
     pagecolor="#ffffff"
     bordercolor="#666666"
     borderopacity="1"
     objecttolerance="10"
     gridtolerance="10"
     guidetolerance="10"
     inkscape:pageopacity="0"
     inkscape:pageshadow="2"
     inkscape:window-width="1366"
     inkscape:window-height="745"
     id="namedview10"
     showgrid="false"
     inkscape:zoom="0.2085965"
     inkscape:cx="692.15776"
     inkscape:cy="-774.48727"
     inkscape:window-x="0"
     inkscape:window-y="0"
     inkscape:window-maximized="0"
     inkscape:current-layer="svg8" />
  <metadata
     id="metadata2">Generated by IcoMoon<rdf:RDF>
  <cc:Work
     rdf:about="">
    <dc:format>image/svg+xml</dc:format>
    <dc:type
       rdf:resource="http://purl.org/dc/dcmitype/StillImage" />
  </cc:Work>
</rdf:RDF>
</metadata>
  <path
     unicode=""
     glyph-name="infraestrutura"
     horiz-adv-x="1083"
     d="m 2098.2534,755.39168 c 19.493,0.491 35.109,16.41 35.109,35.976 0,0.004 0,0.008 0,0.011 v -10e-4 119.077 c 0,0.003 0,0.007 0,0.011 0,19.566 -15.615,35.485 -35.063,35.975 l -0.045,10e-4 h -1011.419 c -19.875,0 -35.986,-16.112 -35.986,-35.986 v 0 -119.077 c 0,-19.875 16.112,-35.986 35.986,-35.986 v 0 h 22.528 v -641.902 h -23.406 c -19.493,-0.491 -35.109,-16.410002 -35.109,-35.976002 0,-0.004 0,-0.008 0,-0.011 v 0.001 -119.077 c 0,-19.875 16.112,-35.986 35.986,-35.986 v 0 h 1011.419 c 19.493,0.491 35.109,16.41 35.109,35.976 0,0.004 0,0.008 0,0.011 v -10e-4 119.077 c 0,19.875 -16.112,35.986002 -35.986,35.986002 v 0 h -22.528 v 166.473 c 16.773,3.278 29.257,17.857 29.257,35.352 0,0.017 0,0.035 0,0.052 v -0.003 238.153 c 0,0.015 0,0.032 0,0.05 0,17.495 -12.484,32.074 -29.03,35.314 l -0.228,0.037 v 166.473 z m -975.433,119.076 h 939.447 v -46.811 h -939.447 z m 909.604,-356.937 v -165.888 h -165.888 v 165.595 z m -314.514,-404.041 v 284.965 h 76.654 v -82.798 c 0,-0.015 0,-0.032 0,-0.05 0,-17.495 12.484,-32.074 29.03,-35.314 l 0.228,-0.037 v -166.473 z m -178.469,0 v 284.965 h 106.496 v -284.965 z m -178.468,0 v 284.965 h 106.496 v -284.965 z m 106.203,641.902 v -284.965 h -106.203 v 284.965 z m 178.469,0 v -284.965 h -106.203 v 284.965 z m 178.468,-166.473 c -16.773,-3.278 -29.257,-17.857 -29.257,-35.352 0,-0.017 0,-0.035 0,-0.052 v 0.003 -82.798 h -76.946 v 284.672 h 106.203 z m -535.405,166.473 v -284.965 h -106.203 v 284.965 z m -106.204,-356.937 h 106.203 v -284.965 h -106.203 z m 879.762,-403.749002 h -939.447 v 46.811 h 939.447 z m -165.888,118.784002 v 165.888 h 106.496 v -165.888 z m 106.204,476.014 h -106.203 v 165.888 h 106.496 z m -81.92,-173.788 v -17.262 c 0,-16.158 13.099,-29.257 29.257,-29.257 16.158,0 29.257,13.099 29.257,29.257 v 0 17.262 c 10.74,8.651 17.554,21.801 17.554,36.542 0,25.853 -20.958,46.811 -46.811,46.811 -25.853,0 -46.811,-20.958 -46.811,-46.811 0,-14.741 6.814,-27.891 17.464,-36.472 z"
     id="path6"
     inkscape:connector-curvature="0"
     style="fill:#c84400;fill-opacity:1;stroke:#7b2f0c;stroke-width:12.1;stroke-miterlimit:4;stroke-dasharray:none;stroke-opacity:1"
     inkscape:export-filename="/home/andres/oficina/carceropolis/carceropolis/carceropolis/carceropolis/static/images/map/marker-icon.png"
     inkscape:export-xdpi="2.8064687"
     inkscape:export-ydpi="2.8064687" />
  <path
     unicode=""
     glyph-name="infraestrutura"
     horiz-adv-x="1083"
     d="m 491.76619,871.58076 c 19.493,0.491 35.109,16.41 35.109,35.976 0,0.004 0,0.008 0,0.011 v -10e-4 119.07704 c 0,0 0,0.01 0,0.011 0,19.566 -15.615,35.485 -35.063,35.975 l -0.045,10e-4 h -1011.419 c -19.875,0 -35.986,-16.112 -35.986,-35.986 v 0 -119.07704 c 0,-19.875 16.112,-35.986 35.986,-35.986 v 0 h 22.528 v -641.902 h -23.406 c -19.493,-0.491 -35.109,-16.41 -35.109,-35.976 0,-0.004 0,-0.008 0,-0.011 v 0.001 -119.076999 c 0,-19.875 16.112,-35.985999 35.986,-35.985999 v 0 h 1011.419 c 19.493,0.491 35.109,16.409999 35.109,35.975999 0,0.004 0,0.008 0,0.011 v -0.001 119.076999 c 0,19.875 -16.112,35.986 -35.986,35.986 v 0 h -22.528 v 166.473 c 16.773,3.278 29.257,17.857 29.257,35.352 0,0.017 0,0.035 0,0.052 v -0.003 238.153 c 0,0.015 0,0.032 0,0.05 0,17.495 -12.484,32.074 -29.03,35.314 l -0.228,0.037 v 166.473 z m -975.433,119.076 h 939.447 v -46.811 h -939.447 z m 909.604,-356.937 v -165.888 h -165.888 v 165.595 z m -314.514,-404.041 v 284.965 h 76.654 v -82.798 c 0,-0.015 0,-0.032 0,-0.05 0,-17.495 12.484,-32.074 29.03,-35.314 l 0.228,-0.037 v -166.473 z m -178.469003,0 v 284.965 h 106.496 v -284.965 z m -178.467997,0 v 284.965 h 106.496 v -284.965 z m 106.203,641.902 v -284.965 h -106.203 v 284.965 z m 178.468997,0 v -284.965 h -106.203 v 284.965 z m 178.468003,-166.473 c -16.773,-3.278 -29.257,-17.857 -29.257,-35.352 0,-0.017 0,-0.035 0,-0.052 v 0.003 -82.798 h -76.946 v 284.672 h 106.203 z m -535.405,166.473 v -284.965 h -106.203 v 284.965 z m -106.204,-356.937 h 106.203 v -284.965 h -106.203 z m 879.762,-403.749 h -939.447 v 46.811 h 939.447 z m -165.888,118.784 v 165.888 h 106.496 v -165.888 z m 106.204,476.014 h -106.203 v 165.888 h 106.496 z m -81.92,-173.788 v -17.262 c 0,-16.158 13.099,-29.257 29.257,-29.257 16.158,0 29.257,13.099 29.257,29.257 v 0 17.262 c 10.74,8.651 17.554,21.801 17.554,36.542 0,25.853 -20.958,46.811 -46.811,46.811 -25.853,0 -46.811,-20.958 -46.811,-46.811 0,-14.741 6.814,-27.891 17.464,-36.472 z"
     id="path6-3"
     inkscape:connector-curvature="0"
     style="fill:#000000;fill-opacity:1;stroke:none;stroke-width:12.10000038;stroke-miterlimit:4;stroke-dasharray:none;stroke-opacity:1;filter:url(#filter4605)"
     inkscape:export-filename="/home/andres/oficina/carceropolis/carceropolis/carceropolis/carceropolis/static/images/map/marker-shadow.png"
     inkscape:export-xdpi="2.8064687"
     inkscape:export-ydpi="2.8064687" />
</svg>
