<svg xmlns="http://www.w3.org/2000/svg" width="200" height="35">
  <g fill="#9C0009" fill-rule="evenodd">
    <path d="M16.61 14.858c0-3.21-1.542-3.859-3.021-3.859-1.45 0-2.99.803-2.99 3.303v7.717c0 2.562 1.54 3.334 2.99 3.334 1.973 0 3.02-.957 3.02-4.137v-.277h4.224c0 5.556-2.343 8.488-7.244 8.488-4.254 0-7.213-3.087-7.213-7.532v-7.47c0-4.413 2.96-7.5 7.213-7.5 4.809 0 7.244 3.179 7.244 8.242H16.61v-.31m11.65 6.266h4.469l-2.188-8.519-2.282 8.52zm5.363 3.674h-6.258l-1.171 4.29H21.91l6.318-21.76h4.593l6.227 21.76h-4.285l-1.14-4.29zM45.211 11.4v8.026h2.097c1.849 0 3.544-.803 3.544-3.673v-.617c0-2.995-1.633-3.735-3.544-3.735H45.21zm-4.223 17.688V7.326h6.843c4.316 0 7.213 2.81 7.213 7.871v.618c0 3.364-1.448 5.618-3.76 6.667l3.637 6.606h-4.624L47.4 23.47h-2.189v5.618h-4.223zm26.754-14.23c0-3.21-1.541-3.859-3.02-3.859-1.45 0-2.99.803-2.99 3.303v7.717c0 2.562 1.54 3.334 2.99 3.334 1.972 0 3.02-.957 3.02-4.137v-.277h4.223c0 5.556-2.342 8.488-7.244 8.488-4.253 0-7.212-3.087-7.212-7.532v-7.47c0-4.413 2.959-7.5 7.212-7.5 4.81 0 7.244 3.179 7.244 8.242h-4.223v-.31m19.233-3.425h-7.86v4.938h5.826v3.704h-5.826v4.94h7.86v4.074H74.892V7.326h12.083v4.106m7.365-.032v8.026h2.096c1.85 0 3.545-.803 3.545-3.673v-.617c0-2.995-1.634-3.735-3.545-3.735H94.34zm-4.223 17.688V7.326h6.843c4.316 0 7.213 2.81 7.213 7.871v.618c0 3.364-1.448 5.618-3.76 6.667l3.637 6.606h-4.624L96.53 23.47h-2.19v5.618h-4.223zM111.94 4.98l1.94-4.846h4.347l-3.206 4.846h-3.082zm4.932 17.07v-7.717c0-2.438-1.418-3.334-3.021-3.334-1.48 0-2.99.803-2.99 3.303v7.717c0 2.439 1.418 3.302 2.99 3.302 1.449 0 3.02-.77 3.02-3.271zm-10.234-.155v-7.408c0-4.444 2.96-7.562 7.213-7.562 4.254 0 7.244 3.118 7.244 7.562v7.408c0 4.415-2.99 7.501-7.244 7.501s-7.213-3.086-7.213-7.5zM128.367 11.4v8.458h2.097c1.849 0 3.575-.864 3.575-3.796v-.803c0-3.21-1.788-3.858-3.575-3.858h-2.097zm-4.223 17.688V7.326h6.75c4.254 0 7.306 2.81 7.306 7.902v.865c0 5.123-3.052 7.809-7.305 7.809h-2.528v5.186h-4.223zm26.754-7.038v-7.717c0-2.438-1.417-3.334-3.02-3.334-1.48 0-2.99.803-2.99 3.303v7.717c0 2.439 1.418 3.302 2.99 3.302 1.448 0 3.02-.77 3.02-3.271zm-10.233-.155v-7.408c0-4.444 2.959-7.562 7.212-7.562 4.255 0 7.244 3.118 7.244 7.562v7.408c0 4.415-2.99 7.501-7.244 7.501-4.253 0-7.212-3.086-7.212-7.5zm29.065 7.193h-11.374V7.326h4.223v17.687h7.151v4.075m2.527 0h4.223V7.326h-4.223v21.762zm7.458-15.774c0-3.981 2.805-6.39 7.06-6.39 4.16 0 7.027 2.81 7.027 7.286h-4.161c0-2.315-1.11-3.396-2.929-3.396-1.788 0-2.805.864-2.805 2.5 0 4.322 10.172 1.76 10.172 9.538 0 4.137-2.928 6.606-7.305 6.606-4.346 0-7.336-2.87-7.336-7.532h4.192c0 2.532 1.294 3.581 3.144 3.581 1.788 0 3.083-.833 3.083-2.624 0-4.136-10.142-1.852-10.142-9.569"/>
    <path d="M199.283 34.921H.203V1.026l110.643-.006-1.201 3.001-106.63-.05v28.006H196.47V3.97l-77.691-.003 1.966-2.948 78.538.006V34.92"/>
  </g>
</svg>