<svg xmlns="http://www.w3.org/2000/svg" width="23" height="15">
  <g fill="none" fill-rule="evenodd">
    <path d="M0-5h24v24H0z"/>
    <path fill="#fab414" d="M20.91 14.636H23V0h-2.09v14.636zm-4.183 0h2.091V0h-2.09v14.636zM13.591 0H1.045C.47 0 0 .47 0 1.045v12.546c0 .575.47 1.045 1.045 1.045h12.546c.575 0 1.045-.47 1.045-1.045V1.045C14.636.47 14.166 0 13.591 0zM7.318 2.875A2.356 2.356 0 0 1 9.67 5.227 2.356 2.356 0 0 1 7.318 7.58a2.356 2.356 0 0 1-2.352-2.353 2.356 2.356 0 0 1 2.352-2.352zm4.705 9.67h-9.41v-.784c0-1.568 3.137-2.352 4.705-2.352s4.705.784 4.705 2.352v.784z"/>
  </g>
</svg>