<?xml version="1.0" encoding="UTF-8" standalone="no"?>
<svg
   xmlns:dc="http://purl.org/dc/elements/1.1/"
   xmlns:cc="http://creativecommons.org/ns#"
   xmlns:rdf="http://www.w3.org/1999/02/22-rdf-syntax-ns#"
   xmlns:svg="http://www.w3.org/2000/svg"
   xmlns="http://www.w3.org/2000/svg"
   xmlns:sodipodi="http://sodipodi.sourceforge.net/DTD/sodipodi-0.dtd"
   xmlns:inkscape="http://www.inkscape.org/namespaces/inkscape"
   viewBox="0 0 786.61417 318.89761"
   height="90mm"
   width="222mm"
   xml:space="preserve"
   id="svg2"
   version="1.1"
   inkscape:version="0.91 r13725"
   sodipodi:docname="conectas-logo.svg"><sodipodi:namedview
     pagecolor="#ffffff"
     bordercolor="#666666"
     borderopacity="1"
     objecttolerance="10"
     gridtolerance="10"
     guidetolerance="10"
     inkscape:pageopacity="0"
     inkscape:pageshadow="2"
     inkscape:window-width="1515"
     inkscape:window-height="900"
     id="namedview47"
     showgrid="false"
     units="mm"
     inkscape:zoom="1.3123359"
     inkscape:cx="432.72177"
     inkscape:cy="105.51102"
     inkscape:window-x="126"
     inkscape:window-y="64"
     inkscape:window-maximized="0"
     inkscape:current-layer="svg2" /><metadata
     id="metadata8"><rdf:RDF><cc:Work
         rdf:about=""><dc:format>image/svg+xml</dc:format><dc:type
           rdf:resource="http://purl.org/dc/dcmitype/StillImage" /><dc:title></dc:title></cc:Work></rdf:RDF></metadata><defs
     id="defs6" /><path
     id="path16"
     style="fill:#ffffff;fill-opacity:1;fill-rule:nonzero;stroke:none"
     d="m 111.36909,316.79551 c -2.81733,0 -5.144,-0.12347 -7.308,-0.16413 l 0,-27.51667 c 2.164,-0.0405 5.348,-0.16293 8.53334,-0.16293 8.69599,0 14.04533,3.95986 14.04533,13.51293 0,9.47147 -6.28933,14.3308 -15.27067,14.3308 z m 0.89867,-24.17027 c -1.348,0 -2.77733,0.0416 -3.75733,0.1224 l 0,20.0468 c 0.89866,0.1224 2.24666,0.20414 3.308,0.20414 5.92,0 10.08533,-3.1432 10.08533,-10.20667 0,-6.53293 -2.9,-10.16667 -9.636,-10.16667"
     inkscape:connector-curvature="0" /><path
     id="path18"
     style="fill:#ffffff;fill-opacity:1;fill-rule:nonzero;stroke:none"
     d="m 145.21576,316.63138 4.45,0 0,-27.55734 -4.45,0 z"
     inkscape:connector-curvature="0" /><path
     id="path20"
     style="fill:#ffffff;fill-opacity:1;fill-rule:nonzero;stroke:none"
     d="m 183.74776,316.63138 -8.57334,-11.92027 -0.204,0 0,11.92027 -4.45066,0 0,-27.5572 c 2,-0.1224 4.28666,-0.16414 7.39066,-0.16414 5.716,0 9.636,2 9.636,7.47134 0,4.40893 -3.308,7.22666 -7.8,7.71626 0.776,0.98067 1.63334,2.0416 2.328,2.94 l 7.26667,9.59374 z m -6.45067,-24.08854 c -0.856,0 -1.67333,0.0417 -2.32667,0.0824 l 0,8.73694 c 0.408,0.0401 1.184,0.0817 2.164,0.0817 3.592,0 5.756,-1.83587 5.756,-4.57294 0,-3.0208 -1.87733,-4.32813 -5.59333,-4.32813"
     inkscape:connector-curvature="0" /><path
     id="path22"
     style="fill:#ffffff;fill-opacity:1;fill-rule:nonzero;stroke:none"
     d="m 207.37976,316.63138 0,-27.5572 14.53333,0 0,3.71506 -10.084,0 0,7.83694 9.59467,0 0,3.63546 -9.59467,0 0,8.57294 10.084,0 0,3.7968 -14.53333,0"
     inkscape:connector-curvature="0" /><path
     id="path24"
     style="fill:#ffffff;fill-opacity:1;fill-rule:nonzero;stroke:none"
     d="m 241.38909,316.63138 4.44948,0 0,-27.55734 -4.44948,0 z"
     inkscape:connector-curvature="0" /><path
     id="path26"
     style="fill:#ffffff;fill-opacity:1;fill-rule:nonzero;stroke:none"
     d="m 275.03042,292.82938 0,23.802 -4.45067,0 0,-23.802 -7.55333,0 0,-3.7552 19.59733,0 0,3.7552 -7.59333,0"
     inkscape:connector-curvature="0" /><path
     id="path28"
     style="fill:#ffffff;fill-opacity:1;fill-rule:nonzero;stroke:none"
     d="m 309.32375,317.04031 c -8.36933,0 -12.41066,-5.4308 -12.41066,-13.88133 0,-9.14467 5.96,-14.49374 13.22666,-14.49374 7.432,0 12.412,4.6136 12.412,13.84014 0,9.14586 -5.92,14.53493 -13.228,14.53493 z m 0.408,-24.45573 c -4.24533,0 -8.08266,3.42866 -8.08266,10.0432 0,6.24746 2.57066,10.4516 8.00133,10.4516 4.08267,0 8.16667,-3.2656 8.16667,-10.12507 0,-6.65467 -2.94134,-10.36973 -8.08534,-10.36973"
     inkscape:connector-curvature="0" /><path
     id="path30"
     style="fill:#ffffff;fill-opacity:1;fill-rule:nonzero;stroke:none"
     d="m 345.82509,317.04031 c -2.00134,0 -3.96134,-0.2448 -5.55334,-0.65373 l 0.24534,-4.2056 c 1.55066,0.5728 3.716,1.02226 5.716,1.02226 3.02,0 5.46933,-1.26706 5.46933,-4.24626 0,-5.798 -12.04267,-3.34894 -12.04267,-12.2484 0,-4.73707 3.71467,-8.04334 10.12534,-8.04334 1.632,0 3.30666,0.20467 4.98133,0.4896 l -0.24667,3.96094 c -1.592,-0.49054 -3.34666,-0.776 -4.98,-0.776 -3.42933,0 -5.184,1.59266 -5.184,3.8776 0,5.512 12.044,3.47133 12.044,12.08586 0,5.06254 -4.00266,8.73707 -10.57466,8.73707"
     inkscape:connector-curvature="0" /><path
     id="path32"
     style="fill:#ffffff;fill-opacity:1;fill-rule:nonzero;stroke:none"
     d="m 415.23175,316.63138 0,-12.36974 -13.024,0 0,12.36974 -4.45067,0 0,-27.5572 4.45067,0 0,11.3896 13.024,0 0,-11.3896 4.40933,0 0,27.5572 -4.40933,0"
     inkscape:connector-curvature="0" /><path
     id="path34"
     style="fill:#ffffff;fill-opacity:1;fill-rule:nonzero;stroke:none"
     d="m 450.94908,317.04031 c -8.656,0 -10.492,-4.73707 -10.492,-9.79947 l 0,-18.16666 4.44934,0 0,17.84106 c 0,3.67454 1.22533,6.45054 6.32933,6.45054 4.49067,0 6.53067,-1.87867 6.53067,-7.02347 l 0,-17.26813 4.37066,0 0,16.94266 c 0,7.34894 -3.96133,11.02347 -11.188,11.02347"
     inkscape:connector-curvature="0" /><path
     id="path36"
     style="fill:#ffffff;fill-opacity:1;fill-rule:nonzero;stroke:none"
     d="m 508.51442,316.63138 -2.164,-14.65614 c -0.44934,-2.94013 -0.65467,-4.94013 -0.85867,-6.73813 l -0.0813,0 c -0.32667,1.55213 -0.73467,3.34907 -1.42934,5.38907 l -5.18533,16.0052 -4.612,0 -4.94,-14.8604 c -0.736,-2.16294 -1.43067,-4.5328 -1.75733,-6.53387 l -0.0813,0 c -0.164,2.36987 -0.448,4.53387 -0.73466,7.14587 l -1.75467,14.2484 -4.532,0 4.124,-27.5572 5.30533,0 5.30934,15.92186 c 0.65333,2 1.184,3.83854 1.50933,5.63534 l 0.0813,0 c 0.40934,-2.0416 0.85867,-3.43067 1.512,-5.47134 l 5.42934,-16.08586 5.34933,0 4.204,27.5572 -4.69333,0"
     inkscape:connector-curvature="0" /><path
     id="path38"
     style="fill:#ffffff;fill-opacity:1;fill-rule:nonzero;stroke:none"
     d="m 548.68908,316.63138 -2.12267,-6.08174 -11.148,0 -2.12266,6.08174 -4.48934,0 9.88,-27.5572 4.94,0 10.00267,27.5572 z m -6.45067,-18.29 c -0.532,-1.42974 -0.89866,-2.736 -1.22533,-4.2464 l -0.0827,0 c -0.28533,1.388 -0.73466,2.8984 -1.264,4.3688 l -3.104,8.53226 8.81867,0 -3.14267,-8.65466"
     inkscape:connector-curvature="0" /><path
     id="path40"
     style="fill:#ffffff;fill-opacity:1;fill-rule:nonzero;stroke:none"
     d="m 587.31041,316.63138 -9.43066,-15.67814 c -1.224,-1.99893 -2.204,-3.95986 -3.06134,-5.7968 0.16267,2.69534 0.24534,8.28907 0.24534,12.2068 l 0,9.26814 -4.328,0 0,-27.5572 5.83866,0 9.104,15.02346 c 1.22534,2.0416 2.328,4.24627 3.34934,6.24734 -0.16534,-3.14427 -0.28667,-9.06507 -0.28667,-13.1068 l 0,-8.164 4.328,0 0,27.5572 -5.75867,0"
     inkscape:connector-curvature="0" /><path
     id="path42"
     style="fill:#ffffff;fill-opacity:1;fill-rule:nonzero;stroke:none"
     d="m 623.93441,317.04031 c -8.36933,0 -12.412,-5.4308 -12.412,-13.88133 0,-9.14467 5.96134,-14.49374 13.228,-14.49374 7.432,0 12.41334,4.6136 12.41334,13.84014 0,9.14586 -5.92,14.53493 -13.22934,14.53493 z m 0.40934,-24.45573 c -4.24667,0 -8.08534,3.42866 -8.08534,10.0432 0,6.24746 2.57334,10.4516 8.00267,10.4516 4.084,0 8.16533,-3.2656 8.16533,-10.12507 0,-6.65467 -2.93866,-10.36973 -8.08266,-10.36973"
     inkscape:connector-curvature="0" /><path
     id="path44"
     style="fill:#ffffff;fill-opacity:1;fill-rule:nonzero;stroke:none"
     d="m 660.43441,317.04031 c -2,0 -3.96,-0.2448 -5.552,-0.65373 l 0.24533,-4.2056 c 1.55067,0.5728 3.716,1.02226 5.716,1.02226 3.02,0 5.47067,-1.26706 5.47067,-4.24626 0,-5.798 -12.04533,-3.34894 -12.04533,-12.2484 0,-4.73707 3.716,-8.04334 10.12666,-8.04334 1.632,0 3.30667,0.20467 4.98,0.4896 l -0.244,3.96094 c -1.59333,-0.49054 -3.348,-0.776 -4.98266,-0.776 -3.428,0 -5.184,1.59266 -5.184,3.8776 0,5.512 12.04533,3.47133 12.04533,12.08586 0,5.06254 -4.00267,8.73707 -10.576,8.73707"
     inkscape:connector-curvature="0" /><path
     id="path46"
     style="fill:#ffffff;fill-opacity:1;fill-rule:nonzero;stroke:none"
     d="m 86.202432,246.80631 c -9.23734,6.07467 -20.88,8.86 -33.53467,8.86 -29.612,10e-4 -50.4937294,-16.828 -50.4942694,-37.836 -10e-4,-21.004 20.8786694,-37.83733 50.4901394,-37.84 12.7828,0 24.4228,2.90934 33.53613,8.984 l 0,9.87067 c -7.97333,-5.44133 -20.37333,-9.996 -33.53613,-9.99467 -21.89174,0 -38.72187,12.78267 -38.72187,28.98 0.003,16.19867 16.8328,28.97867 38.726,28.97734 13.16133,0 25.43467,-4.42934 33.53467,-9.99734 l 0,9.996"
     inkscape:connector-curvature="0" /><path
     id="path48"
     style="fill:#ffffff;fill-opacity:1;fill-rule:nonzero;stroke:none"
     d="m 149.21976,255.66098 c -29.35867,0 -50.36533,-15.436 -50.36667,-37.83467 -10e-4,-22.39866 21.00534,-37.83866 50.364,-37.83866 29.35867,-0.003 50.49467,15.436 50.49467,37.83333 0.001,22.39867 -20.49867,37.83867 -50.492,37.84 z m -0.003,-66.816 c -21.892,0 -38.72133,11.51867 -38.72133,28.98133 0.001,17.58934 16.95866,28.97867 38.724,28.97867 22.02,-0.003 38.85066,-11.39333 38.84933,-28.984 -0.001,-17.46133 -16.95867,-28.97733 -38.852,-28.976"
     inkscape:connector-curvature="0" /><path
     id="path50"
     style="fill:#ffffff;fill-opacity:1;fill-rule:nonzero;stroke:none"
     d="m 228.30776,200.10498 0.001,53.02267 -11.13467,0 -0.004,-73.144 73.4,56.30666 -0.003,-53.78 11.00934,0 0.003,73.144 -73.27199,-55.54933"
     inkscape:connector-curvature="0" /><path
     id="path52"
     style="fill:#ffffff;fill-opacity:1;fill-rule:nonzero;stroke:none"
     d="m 323.21709,253.12231 -0.004,-70.61333 71.11999,-0.005 0,8.98667 -59.98266,0.003 0,20.62666 49.86133,-0.003 0,8.85867 -49.98666,0.004 10e-4,23.284 60.11066,-0.004 0,8.85867 -71.11999,0.004"
     inkscape:connector-curvature="0" /><path
     id="path54"
     style="fill:#ffffff;fill-opacity:1;fill-rule:nonzero;stroke:none"
     d="m 489.24375,246.78498 c -9.23867,6.076 -20.88,8.86133 -33.53333,8.86133 -29.61334,0.001 -50.49334,-16.828 -50.49467,-37.83466 -0.001,-21.008 20.87733,-37.83867 50.48933,-37.83867 12.78,-0.003 24.424,2.908 33.536,8.98133 l 0,9.86934 c -7.97333,-5.44 -20.37466,-9.996 -33.53466,-9.99334 -21.892,0 -38.72267,12.78267 -38.72134,28.98134 0,16.19733 16.83067,28.97866 38.724,28.97466 13.16,0 25.43467,-4.42666 33.53467,-9.99733 l 0,9.996"
     inkscape:connector-curvature="0" /><path
     id="path56"
     style="fill:#ffffff;fill-opacity:1;fill-rule:nonzero;stroke:none"
     d="m 536.69441,253.11031 0,-61.628 -35.68666,0.003 0,-8.98533 82.38133,-0.004 0,8.98533 -35.812,0.001 0.003,61.628 -10.88534,0"
     inkscape:connector-curvature="0" /><path
     id="path58"
     style="fill:#ffffff;fill-opacity:1;fill-rule:nonzero;stroke:none"
     d="m 655.14374,253.10498 -11.64266,-18.476 -45.30533,0.004 -11.64,18.476 -12.78267,0 47.07333,-73.14533 47.20533,73.14133 z m -34.29599,-55.04667 -17.33467,27.58934 34.67333,-0.001 -17.33866,-27.588"
     inkscape:connector-curvature="0" /><path
     id="path60"
     style="fill:#ffffff;fill-opacity:1;fill-rule:nonzero;stroke:none"
     d="m 743.72109,194.38365 c -8.4773,-3.54267 -18.4747,-5.44267 -29.484,-5.44 -8.7333,0 -26.32401,0.38 -26.32135,10.75733 0,17.084 61.12135,3.79333 61.12135,34.28933 0,18.47734 -21.0053,21.64134 -38.7213,21.644 -11.76805,0 -25.05605,-2.15066 -35.18138,-5.948 l 0.128,-9.744 c 10.124,4.17734 23.79067,6.832 34.67338,6.832 13.16,0 28.0933,-2.02533 28.092,-12.78133 0,-19.236 -61.12005,-5.18533 -61.12271,-34.29067 0,-16.70666 19.99333,-19.74266 37.33071,-19.744 12.0213,0 22.652,2.404 29.9906,5.44 l -0.5053,8.98534"
     inkscape:connector-curvature="0" /><path
     id="path62"
     style="fill:#ffffff;fill-opacity:1;fill-rule:nonzero;stroke:none"
     d="m 659.85308,35.271696 -6.37333,-6.24134 c -7.84267,9.88534 -13.09734,21.84 -14.75067,34.87467 l 8.96267,0 c 1.54933,-10.636 5.84,-20.42 12.16133,-28.63333"
     inkscape:connector-curvature="0" /><path
     id="path64"
     style="fill:#ffffff;fill-opacity:1;fill-rule:nonzero;stroke:none"
     d="m 701.93174,10.927698 0,-8.9560003 c -13.39733,1.62266 -25.67866,6.8306602 -35.808,14.6146603 l 6.408,6.276 c 8.428,-6.21466 18.47467,-10.42666 29.4,-11.93466"
     inkscape:connector-curvature="0" /><path
     id="path66"
     style="fill:#ffffff;fill-opacity:1;fill-rule:nonzero;stroke:none"
     d="M 755.57709,16.523698 C 745.41579,8.7383579 733.09979,3.5450277 719.66909,1.9516977 l 0,8.9520003 c 10.96,1.48 21.0413,5.68 29.5,11.89466 l 6.408,-6.27466"
     inkscape:connector-curvature="0" /><path
     id="path68"
     style="fill:#ffffff;fill-opacity:1;fill-rule:nonzero;stroke:none"
     d="m 647.69441,81.642348 -8.96133,0 c 1.656,13.030661 6.912,24.978642 14.75733,34.861302 l 6.37333,-6.24266 c -6.32133,-8.20934 -10.61466,-17.987981 -12.16933,-28.618642"
     inkscape:connector-curvature="0" /><path
     id="path70"
     style="fill:#ffffff;fill-opacity:1;fill-rule:nonzero;stroke:none"
     d="m 666.13974,128.94232 c 10.12667,7.77733 22.40134,12.98133 35.792,14.60267 l 0,-8.95467 c -10.91866,-1.50667 -20.96133,-5.71467 -29.38666,-11.924 l -6.40534,6.276"
     inkscape:connector-curvature="0" /><path
     id="path72"
     style="fill:#ffffff;fill-opacity:1;fill-rule:nonzero;stroke:none"
     d="m 774.09439,63.905026 8.9627,0 c -1.6573,-13.07333 -6.936,-25.05733 -14.8173,-34.95867 l -6.3747,6.24267 c 6.3573,8.232 10.6733,18.044 12.2293,28.716"
     inkscape:connector-curvature="0" /><path
     id="path74"
     style="fill:#ffffff;fill-opacity:1;fill-rule:nonzero;stroke:none"
     d="m 761.85579,110.34365 6.3733,6.244 c 7.8813,-9.89866 13.1627,-21.878641 14.8253,-34.945302 l -8.9626,0 c -1.56,10.667991 -5.88,20.474642 -12.236,28.701302"
     inkscape:connector-curvature="0" /><path
     id="path76"
     style="fill:#ffffff;fill-opacity:1;fill-rule:nonzero;stroke:none"
     d="m 719.66909,134.61299 0,8.952 c 13.424,-1.59067 25.7347,-6.78267 35.892,-14.55867 l -6.4067,-6.27467 c -8.4546,6.20667 -18.532,10.40134 -29.4853,11.88134"
     inkscape:connector-curvature="0" /><path
     id="path78"
     style="fill:#ffffff;fill-opacity:1;fill-rule:nonzero;stroke:none"
     d="m 662.66908,20.859698 -4.65334,4.75066 41.92934,41.077332 -0.66534,-9.964004 -36.61066,-35.863988"
     inkscape:connector-curvature="0" /><path
     id="path80"
     style="fill:#ffffff;fill-opacity:1;fill-rule:nonzero;stroke:none"
     d="m 763.75709,25.610358 -4.656,-4.75066 -36.392,35.657328 -0.7013,10 41.7493,-40.906668"
     inkscape:connector-curvature="0" /><path
     id="path82"
     style="fill:#ffffff;fill-opacity:1;fill-rule:nonzero;stroke:none"
     d="m 714.21709,48.289026 0,-45.5599983 -6.652,0 0,45.4093283 3.348,3.51334 3.304,-3.36267"
     inkscape:connector-curvature="0" /><path
     id="path84"
     style="fill:#ffffff;fill-opacity:1;fill-rule:nonzero;stroke:none"
     d="m 639.39975,69.43569 0,6.651994 61.17333,0 -0.44534,-6.651994 -60.72799,0"
     inkscape:connector-curvature="0" /><path
     id="path86"
     style="fill:#ffffff;fill-opacity:1;fill-rule:nonzero;stroke:none"
     d="m 782.36639,76.087684 0,-6.651994 -60.5626,0 -0.4667,6.651994 61.0293,0"
     inkscape:connector-curvature="0" /><path
     id="path88"
     style="fill:#ffffff;fill-opacity:1;fill-rule:nonzero;stroke:none"
     d="m 658.01441,119.90499 4.656,4.752 38.61867,-37.838645 -0.584,-8.742664 -42.69067,41.829309"
     inkscape:connector-curvature="0" /><path
     id="path90"
     style="fill:#ffffff;fill-opacity:1;fill-rule:nonzero;stroke:none"
     d="m 720.57979,86.901015 38.5373,37.755975 4.6533,-4.75334 -42.5813,-41.714629 -0.6093,8.711994"
     inkscape:connector-curvature="0" /><path
     id="path92"
     style="fill:#ffffff;fill-opacity:1;fill-rule:nonzero;stroke:none"
     d="m 710.86779,57.193026 -8.2774,-8.692 6.8694,102.862624 2.736,-0.0213 7.212,-102.841294 z m 0.039,70.933294 -0.064,-65.578634 3.8574,-4.396 -3.7934,69.974634"
     inkscape:connector-curvature="0" /></svg>