<svg xmlns="http://www.w3.org/2000/svg" viewBox="0 0 216.9 94.73">
    <path fill="#FFFFFF" d="M159 79a2.61 2.61 0 0 0-2.18 1v-4.31h-1.12v10.13h1.15v-3.75a1.9 1.9 0 0 1 2-2 1.73 1.73 0 0 1 1.83 2v3.78h1.15v-4.18A2.59 2.59 0 0 0 159 79zm5.15-6.52h1.15V65.8h-1.15zm.56-8.23a.8.8 0 0 0 .82-.8.81.81 0 0 0-.82-.82.8.8 0 0 0-.81.82.79.79 0 0 0 .84.81zM169 82.91a1.9 1.9 0 1 1-3.79 0v-3.77h-1.11V83a3 3 0 0 0 6.1 0v-3.86H169zm-10.77-10.29a3 3 0 0 0 2.36-1v.89h1.15V62.36h-1.15v4.34a2.94 2.94 0 0 0-2.36-1 3.48 3.48 0 0 0 0 7zm.13-5.88a2.4 2.4 0 1 1-2.3 2.4 2.27 2.27 0 0 1 2.3-2.4zm23.45-2.49a.8.8 0 0 0 .82-.8.81.81 0 0 0-.82-.82.8.8 0 0 0-.81.82.79.79 0 0 0 .81.81zm-.56 8.23h1.15V65.8h-1.15zm-5 .14a3.8 3.8 0 0 0 2.74-1l-.61-.79a3.14 3.14 0 0 1-2.06.79 2.18 2.18 0 0 1-2.32-2.07h5.25v-.43a3.19 3.19 0 0 0-3.14-3.46 3.48 3.48 0 0 0 .07 7zm-.09-5.94a2 2 0 0 1 2 1.94h-4.08a2.07 2.07 0 0 1 2.08-1.94zM198.1 79a2.63 2.63 0 0 0-2.19 1v-.87h-1.14v6.68h1.15v-3.74a1.9 1.9 0 0 1 2-2 1.73 1.73 0 0 1 1.83 2v3.78h1.15v-4.18a2.59 2.59 0 0 0-2.8-2.67zm6.75-8.47c0-1.1-.84-1.7-2.26-1.89l-.77-.1c-.81-.1-1.29-.34-1.29-.88s.59-1 1.5-1a4.16 4.16 0 0 1 2.15.62l.5-.89a4.83 4.83 0 0 0-2.66-.72c-1.62 0-2.69.77-2.69 2.05 0 1 .72 1.69 2.22 1.87l.77.09c.91.11 1.34.42 1.34.91 0 .66-.67 1-1.77 1a3.48 3.48 0 0 1-2.28-.71l-.53.86a4.78 4.78 0 0 0 2.81.86c1.82.02 2.96-.8 2.96-2.07zm1.42 8.47a3.48 3.48 0 1 0 3.54 3.48 3.42 3.42 0 0 0-3.54-3.48zm0 5.88a2.4 2.4 0 1 1 2.36-2.4 2.31 2.31 0 0 1-2.36 2.4zm8.37-2.88l-.77-.1c-.81-.1-1.29-.34-1.29-.88s.59-1 1.5-1a4.16 4.16 0 0 1 2.15.62l.5-.89a4.83 4.83 0 0 0-2.66-.72c-1.62 0-2.69.77-2.69 2.05 0 1 .72 1.69 2.22 1.87l.77.09c.91.11 1.34.42 1.34.91 0 .66-.67 1-1.77 1a3.48 3.48 0 0 1-2.28-.71l-.53.86a4.78 4.78 0 0 0 2.81.86c1.82 0 3-.82 3-2.1-.04-1.1-.87-1.7-2.3-1.86zm-26.93-9.35a3.36 3.36 0 0 0 2-.66l-.54-.86a2.49 2.49 0 0 1-1.36.45c-.72 0-1.26-.44-1.26-1.44v-3.29h2.8v-1h-2.8v-2.1h-1.15v2.1H184v1h1.43v3.28c-.02 1.7.84 2.49 2.29 2.49zm-18.83-5.94v-.91h-1.13v6.68h1.15v-3.72a1.78 1.78 0 0 1 1.74-2 2.61 2.61 0 0 1 1.15.26l.28-1.13a3 3 0 0 0-1.22-.22 2.35 2.35 0 0 0-1.96 1.01zm12 12.32a2.71 2.71 0 0 0-2.49 1.34 2.67 2.67 0 0 0-2.5-1.37 2.63 2.63 0 0 0-2.19 1v-.87h-1.14v6.68h1.15v-3.74a1.9 1.9 0 0 1 2-2 1.73 1.73 0 0 1 1.83 2v3.78h1.15v-3.78a1.89 1.89 0 0 1 2-2 1.73 1.73 0 0 1 1.83 2v3.78h1.15v-4.18a2.59 2.59 0 0 0-2.83-2.67zm16.91-9.85a3.53 3.53 0 1 0-3.54 3.48 3.43 3.43 0 0 0 3.5-3.52zm-3.54 2.4a2.4 2.4 0 1 1 2.36-2.4 2.31 2.31 0 0 1-2.39 2.37zm-3 8.49a2.94 2.94 0 0 0-2.36-1 3.48 3.48 0 0 0 0 7 3 3 0 0 0 2.36-1v.89h1.15v-6.82h-1.15zM189 84.88a2.4 2.4 0 1 1 2.29-2.4 2.29 2.29 0 0 1-2.29 2.4zM68.31 35.86c-6.47 0-11.24 4.69-11.24 11s4.77 11 11.24 11 11.28-4.69 11.28-11-4.79-11-11.28-11zm0 16.7a5.44 5.44 0 0 1-5.52-5.74 5.54 5.54 0 1 1 11.07 0 5.46 5.46 0 0 1-5.55 5.73zm26.54-16.7a7 7 0 0 0-6.12 3v-2.45h-5.46v20.83h5.61V45.83c0-3.14 2-4.71 4.41-4.71 2.56 0 4.06 1.65 4.06 4.66v11.46H103V44a7.76 7.76 0 0 0-8.15-8.14zm-48.2 16.7c-2.9 0-5.2-2.26-5.2-5.74s2.32-5.74 5.22-5.74a5.77 5.77 0 0 1 4.45 2.08l4-3.37a10.17 10.17 0 0 0-8.34-3.93c-6.64 0-11.09 4.66-11.09 11s4.45 11 11.09 11a10.25 10.25 0 0 0 8.36-3.91l-4-3.42a6.09 6.09 0 0 1-4.49 2.02zM188.1 38.71a7.62 7.62 0 0 0-6.23-2.86c-5.74 0-10.08 4.71-10.08 11s4.34 11 10.08 11a7.64 7.64 0 0 0 6.23-2.84v2.3h5.48v-20.9h-5.48zm-5.2 13.84c-3.29 0-5.37-2.56-5.37-5.74s2.08-5.74 5.37-5.74 5.37 2.45 5.37 5.74-2.17 5.74-5.37 5.74zm-65.42-16.7c-6.23 0-10.53 4.47-10.53 11s4.43 10.9 10.81 10.9a12.64 12.64 0 0 0 8.88-3.16l-3.3-3.59a8.42 8.42 0 0 1-5.27 2 5 5 0 0 1-5.35-4.32h14.76a16 16 0 0 0 .11-1.89c-.02-6.49-4.12-10.93-10.12-10.93zm-4.73 9c.49-2.58 2-4.17 4.69-4.17 2.41 0 4 1.5 4.53 4.17zm96.62-.39l-1.85-.28c-1.89-.28-3.4-.58-3.4-1.78s1.07-1.89 3.2-1.89a16.79 16.79 0 0 1 6.64 1.7l1.89-4.36a18.66 18.66 0 0 0-8.7-2c-5.48 0-8.79 2.54-8.79 6.81 0 3.55 2.39 5.65 7.2 6.32l1.7.24c2.41.34 3.46.9 3.46 1.91 0 1.23-1.25 2-3.85 2a12.19 12.19 0 0 1-7.09-2l-2.21 4.26c2.71 1.91 6.43 2.45 9.26 2.45 6 0 9.56-2.77 9.56-7.07 0-3.59-2.51-5.61-7.02-6.3zm-68 8.08c-2.9 0-5.2-2.26-5.2-5.74s2.32-5.74 5.22-5.74a5.77 5.77 0 0 1 4.45 2.08l4-3.37a10.17 10.17 0 0 0-8.34-3.93c-6.64 0-11.09 4.66-11.09 11s4.45 11 11.09 11a10.25 10.25 0 0 0 8.36-3.91l-4-3.42a6.09 6.09 0 0 1-4.49 2.04zm23 0c-1.74 0-3.12-.95-3.12-3.55V41.4h7.54v-5h-7.54v-6.18h-5.61v6.19h-4v5h4v8.06c0 5.39 2.64 8.32 7.8 8.32a11.62 11.62 0 0 0 6.9-2.19l-2.06-4.38a8.14 8.14 0 0 1-3.88 1.33zM43.65 10.78a1.23 1.23 0 0 0 1 2.07c.71-.05 1.41-.14 2.12-.18a40.59 40.59 0 0 1 4.27 0 56.65 56.65 0 0 1 8.8 1.18 1.23 1.23 0 0 0 .94-2.2 11.69 11.69 0 0 0-3.47-1.78 19 19 0 0 0-8.58-.75 15.16 15.16 0 0 0-4 1 3.6 3.6 0 0 0-1.08.66zM60 79.15c-1.06.33-2.11.65-3.19.92a41.91 41.91 0 0 1-6.58 1.12 44.62 44.62 0 0 1-15.84-1.45 37.11 37.11 0 0 1-9.63-4.21 41.46 41.46 0 0 1-5.14-3.88 1.31 1.31 0 0 0-2.18 1.28 2.51 2.51 0 0 0 .77 1c.73.73 1.47 1.44 2.25 2.12a36.48 36.48 0 0 0 5.14 3.7 42.71 42.71 0 0 0 9.15 3.95A40 40 0 0 0 52.31 85a24.24 24.24 0 0 0 5.88-1.71A26.58 26.58 0 0 0 61 81.91c.73-.42 1.34-1.08 1-2a1.47 1.47 0 0 0-2-.76zm5.27-51.73a1.27 1.27 0 0 0 1.07-1c.2-1-1-1.84-1.61-2.42a20.59 20.59 0 0 0-3-2.24 22.45 22.45 0 0 0-16.1-3.1 27.19 27.19 0 0 0-13.94 7.39 1.53 1.53 0 0 0-.49 1.28 1.46 1.46 0 0 0 2.3 1c.52-.38 1-.83 1.52-1.21s1.07-.76 1.63-1.1a24 24 0 0 1 7.35-3 25.51 25.51 0 0 1 16.3 1.76 24.61 24.61 0 0 1 3.48 2c.51.33.94.72 1.54.64zM52.63 3a38.83 38.83 0 0 1 7.6.84 43.26 43.26 0 0 1 12.35 5.02c1 .56 2 1.15 2.92 1.75.51.31 1 .64 1.53.94a1.22 1.22 0 0 0 1.22.12 1.14 1.14 0 0 0 .62-1 1.54 1.54 0 0 0-.48-1 24.91 24.91 0 0 0-2.32-2.4c-6.62-6.05-16.16-8.07-24.9-7A1.37 1.37 0 0 0 50 2.05c.35 1.16 1.68.9 2.63.95zm11.69 64.61a1.29 1.29 0 0 0-1.18-1.19 3.61 3.61 0 0 0-1.73.67c-.78.4-1.56.79-2.34 1.17a39.54 39.54 0 0 1-4.89 2A42.07 42.07 0 0 1 43.82 72a1.32 1.32 0 0 0-1.28 1.21c-.05.89.67 1.26 1.42 1.43a22.35 22.35 0 0 0 5.7.38 20.51 20.51 0 0 0 13.55-5.66c.5-.48 1.16-.99 1.11-1.75zM34.48 90.14c-.68-.24-1.36-.48-2-.76-1.32-.55-2.68-1.08-3.95-1.75a58.61 58.61 0 0 1-7.44-4.53 49.62 49.62 0 0 1-8.84-8.35 44.29 44.29 0 0 1-4-5.57c-.47-.79-1-1.57-1.39-2.39q-.38-.73-.78-1.46a1.8 1.8 0 0 0-.75-.9 1.2 1.2 0 0 0-1.69 1 3.45 3.45 0 0 0 .29 1.23q.21.67.45 1.33.53 1.46 1.2 2.87a39.28 39.28 0 0 0 3 5.28A41.12 41.12 0 0 0 16.8 85a37.89 37.89 0 0 0 15.31 7.6q1.12.25 2.25.43a6 6 0 0 0 .65.08 1.43 1.43 0 0 0 1.55-1.23c.04-1.17-1.22-1.44-2.08-1.74zM24.16 58.55c.75.8 1.52 1.62 2.33 2.36a1.56 1.56 0 0 0 2.27.06 1.48 1.48 0 0 0 .41-1.1 3.32 3.32 0 0 0-.78-1.53 19.63 19.63 0 0 1-1.64-3A22.72 22.72 0 0 1 25.37 42a20.93 20.93 0 0 1 2.32-6.31 16.48 16.48 0 0 1 1.72-2.49 2.64 2.64 0 0 0 .92-2.2 1.73 1.73 0 0 0-1.94-1.26c-.91.15-1.54 1.05-2.1 1.7a20.48 20.48 0 0 0-3.4 5.53c-.22.52-.38.49-.48.46s-.17-.22-.1-.65a33.14 33.14 0 0 1 3.8-9.25 39.1 39.1 0 0 1 4-5.74 27.16 27.16 0 0 1 4.93-4.44A31.73 31.73 0 0 1 38 15.44c.47-.26.95-.49 1.43-.73a2 2 0 0 0 1-.89 1.55 1.55 0 0 0-.84-2.08c-.86-.3-2 .24-2.76.53a25.68 25.68 0 0 0-10.37 7 35.28 35.28 0 0 0-5.82 8.7c-.27.56-.38.51-.48.44s-.09-.57.07-1.19a33.22 33.22 0 0 1 5.82-11A37.35 37.35 0 0 1 38.54 6.1a41.4 41.4 0 0 1 4.74-2c.82-.29 1.69-.48 2.5-.81a1.44 1.44 0 0 0 .93-1.46A1.41 1.41 0 0 0 46 .71a2.76 2.76 0 0 0-1.65-.05 31.91 31.91 0 0 0-3.52.66 34.17 34.17 0 0 0-6.53 2.34 35.05 35.05 0 0 0-10.42 7.56 34.16 34.16 0 0 0-9.21 22.15 35.35 35.35 0 0 0 9.49 25.18zm53 7a1.25 1.25 0 0 0-1.41.47c-.44.55-.8 1.18-1.22 1.75a35.86 35.86 0 0 1-2.75 3.33 41.3 41.3 0 0 1-6.44 5.37 1.24 1.24 0 0 0 .36 2.16 2.63 2.63 0 0 0 1.76-.41 20 20 0 0 0 2.07-1.12 20.74 20.74 0 0 0 5.84-4.93 15.07 15.07 0 0 0 2-3.4c.42-.96 1.19-2.77-.21-3.24zm2.14-40.96a11.88 11.88 0 0 0-1.72-3.65 19.16 19.16 0 0 0-5.69-5.24 20.61 20.61 0 0 0-4.11-2 14.58 14.58 0 0 0-2-.57 1.13 1.13 0 0 0-1.33.63 1.12 1.12 0 0 0 .49 1.4c.66.41 1.35.77 2 1.18A35.74 35.74 0 0 1 70.56 19 39.93 39.93 0 0 1 77 25.82a1.33 1.33 0 0 0 1.83.27 1.36 1.36 0 0 0 .47-1.5zm-3.35 56c-.61 0-1 .49-1.44.86-1 .86-2.07 1.68-3.16 2.45a42.73 42.73 0 0 1-7.22 4.06 45.38 45.38 0 0 1-16.63 3.91q-2.18.09-4.37 0a5 5 0 0 0-1.92 0 1.26 1.26 0 0 0-.76 1.13c0 1.34 1.69 1.37 2.6 1.46 1.42.13 2.91.23 4.34.27a47.25 47.25 0 0 0 16.54-2.81A25.71 25.71 0 0 0 71 88.26c2.23-1.64 4.45-3.27 5.91-5.64a1.35 1.35 0 0 0 .2-1.22 1.25 1.25 0 0 0-1.16-.82zM4.05 59.17a55.71 55.71 0 0 1-.71-6.36c0-1.2.41-1.44.65-.35a34.63 34.63 0 0 0 6.61 14 28.88 28.88 0 0 0 3.57 3.7c.57.5 1.31.86 2 .25s.32-1.38-.08-2a70.05 70.05 0 0 1-5-9.22c-.63-1.42-1.19-2.88-1.69-4.36-.32-1.13-.4-1.77-.23-1.83s.58.67 1.16 1.72c.28.55.57 1.1.89 1.64a36.88 36.88 0 0 0 13.09 13.18 35.18 35.18 0 0 0 8.51 3.72q1.35.39 2.74.68a3.76 3.76 0 0 0 2.3.09 1.61 1.61 0 0 0-.3-3 37 37 0 0 1-11.19-4.88 35 35 0 0 1-9.11-8.82 38.82 38.82 0 0 1-6.7-25.89 36.36 36.36 0 0 1 3.87-13c.24-.46.5-.92.75-1.38a.93.93 0 0 0-.11-1.25c-.77-.62-1.58.43-2.07.91a46.62 46.62 0 0 0-4.22 4.77 44.81 44.81 0 0 0-6.27 11.36A40.88 40.88 0 0 0 0 46.16a47.19 47.19 0 0 0 .34 7.15 53 53 0 0 0 1.36 6.75c.2.77.57 1.68 1.56 1.49 1.25-.23.94-1.55.79-2.38z" />
</svg>