<?xml version="1.0" encoding="UTF-8" standalone="no"?>
<svg width="20px" height="20px" viewBox="0 0 20 20" version="1.1" xmlns="http://www.w3.org/2000/svg" xmlns:xlink="http://www.w3.org/1999/xlink">
    <!-- Generator: Sketch 39.1 (31720) - http://www.bohemiancoding.com/sketch -->
    <title>fale conoscoicon-</title>
    <desc>Created with Sketch.</desc>
    <defs></defs>
    <g id="Stickersheet" stroke="none" stroke-width="1" fill="none" fill-rule="evenodd">
        <g id="MENU" transform="translate(-18.000000, -551.000000)">
            <g id="menu-lateral">
                <g id="icones" transform="translate(14.000000, 97.000000)">
                    <g id="fale-conosco" transform="translate(2.000000, 452.000000)">
                        <path d="M20,2 L4,2 C2.9,2 2.01,2.9 2.01,4 L2,22 L6,18 L20,18 C21.1,18 22,17.1 22,16 L22,4 C22,2.9 21.1,2 20,2 L20,2 Z M6,9 L18,9 L18,11 L6,11 L6,9 Z M6,12 L14,12 L14,14 L6,14 L6,12 Z M6,6 L18,6 L18,8 L6,8 L6,6 Z" id="Fill-168" fill="#EA702E"></path>
                        <rect id="Rectangle-436" x="0" y="0" width="24" height="24"></rect>
                    </g>
                </g>
            </g>
        </g>
    </g>
</svg>