<svg xmlns="http://www.w3.org/2000/svg" viewBox="0 0 79.36 94.73"><defs><style>.cls-1{fill:#fab414;}</style></defs><title>grafismo_principal</title><g id="Layer_2" data-name="Layer 2"><g id="Layer_1-2" data-name="Layer 1"><path class="cls-1" d="M43.65,10.78a1.23,1.23,0,0,0,1,2.07c.71-.05,1.41-.14,2.12-.18a40.59,40.59,0,0,1,4.27,0,56.65,56.65,0,0,1,8.8,1.18,1.23,1.23,0,0,0,.94-2.2,11.69,11.69,0,0,0-3.47-1.78,19,19,0,0,0-8.58-.75,15.16,15.16,0,0,0-4,1A3.6,3.6,0,0,0,43.65,10.78ZM60,79.15c-1.06.33-2.11.65-3.19.92a41.91,41.91,0,0,1-6.58,1.12,44.62,44.62,0,0,1-15.84-1.45,37.11,37.11,0,0,1-9.63-4.21,41.46,41.46,0,0,1-5.14-3.88,1.31,1.31,0,0,0-2.18,1.28,2.51,2.51,0,0,0,.77,1c.73.73,1.47,1.44,2.25,2.12a36.48,36.48,0,0,0,5.14,3.7,42.71,42.71,0,0,0,9.15,3.95A40,40,0,0,0,52.31,85a24.24,24.24,0,0,0,5.88-1.71A26.58,26.58,0,0,0,61,81.91c.73-.42,1.34-1.08,1-2A1.47,1.47,0,0,0,60,79.15Zm5.27-51.73a1.27,1.27,0,0,0,1.07-1c.2-1-1-1.84-1.61-2.42a20.59,20.59,0,0,0-3-2.24,22.45,22.45,0,0,0-16.1-3.1,27.19,27.19,0,0,0-13.94,7.39,1.53,1.53,0,0,0-.49,1.28,1.46,1.46,0,0,0,2.3,1c.52-.38,1-.83,1.52-1.21s1.07-.76,1.63-1.1a24,24,0,0,1,7.35-3,25.51,25.51,0,0,1,16.3,1.76,24.61,24.61,0,0,1,3.48,2C64.29,27.11,64.72,27.5,65.32,27.42ZM52.63,3a38.83,38.83,0,0,1,7.6.84A43.26,43.26,0,0,1,72.58,8.86c1,.56,2,1.15,2.92,1.75.51.31,1,.64,1.53.94a1.22,1.22,0,0,0,1.22.12,1.14,1.14,0,0,0,.62-1,1.54,1.54,0,0,0-.48-1,24.91,24.91,0,0,0-2.32-2.4C69.45,1.22,59.91-.8,51.17.27A1.37,1.37,0,0,0,50,2.05C50.35,3.21,51.68,2.95,52.63,3ZM64.32,67.61a1.29,1.29,0,0,0-1.18-1.19,3.61,3.61,0,0,0-1.73.67c-.78.4-1.56.79-2.34,1.17a39.54,39.54,0,0,1-4.89,2A42.07,42.07,0,0,1,43.82,72a1.32,1.32,0,0,0-1.28,1.21c-.05.89.67,1.26,1.42,1.43a22.35,22.35,0,0,0,5.7.38,20.51,20.51,0,0,0,13.55-5.66C63.71,68.88,64.37,68.37,64.32,67.61ZM34.48,90.14c-.68-.24-1.36-.48-2-.76-1.32-.55-2.68-1.08-3.95-1.75a58.61,58.61,0,0,1-7.44-4.53,49.62,49.62,0,0,1-8.84-8.35,44.29,44.29,0,0,1-4-5.57c-.47-.79-1-1.57-1.39-2.39q-.38-.73-.78-1.46a1.8,1.8,0,0,0-.75-.9,1.2,1.2,0,0,0-1.69,1,3.45,3.45,0,0,0,.29,1.23q.21.67.45,1.33.53,1.46,1.2,2.87a39.28,39.28,0,0,0,3,5.28A41.12,41.12,0,0,0,16.8,85a37.89,37.89,0,0,0,15.31,7.6q1.12.25,2.25.43a6,6,0,0,0,.65.08,1.43,1.43,0,0,0,1.55-1.23C36.6,90.71,35.34,90.44,34.48,90.14ZM24.16,58.55c.75.8,1.52,1.62,2.33,2.36a1.56,1.56,0,0,0,2.27.06,1.48,1.48,0,0,0,.41-1.1,3.32,3.32,0,0,0-.78-1.53,19.63,19.63,0,0,1-1.64-3A22.72,22.72,0,0,1,25.37,42a20.93,20.93,0,0,1,2.32-6.31,16.48,16.48,0,0,1,1.72-2.49A2.64,2.64,0,0,0,30.33,31a1.73,1.73,0,0,0-1.94-1.26c-.91.15-1.54,1.05-2.1,1.7a20.48,20.48,0,0,0-3.4,5.53c-.22.52-.38.49-.48.46s-.17-.22-.1-.65a33.14,33.14,0,0,1,3.8-9.25,39.1,39.1,0,0,1,4-5.74,27.16,27.16,0,0,1,4.93-4.44A31.73,31.73,0,0,1,38,15.44c.47-.26.95-.49,1.43-.73a2,2,0,0,0,1-.89,1.55,1.55,0,0,0-.84-2.08c-.86-.3-2,.24-2.76.53a25.68,25.68,0,0,0-10.37,7,35.28,35.28,0,0,0-5.82,8.7l0,0c-.27.56-.38.51-.48.44s-.09-.57.07-1.19a33.22,33.22,0,0,1,5.82-11A37.35,37.35,0,0,1,38.54,6.1a41.4,41.4,0,0,1,4.74-2c.82-.29,1.69-.48,2.5-.81a1.44,1.44,0,0,0,.93-1.46A1.41,1.41,0,0,0,46,.71,2.76,2.76,0,0,0,44.35.66a31.91,31.91,0,0,0-3.52.66A34.17,34.17,0,0,0,34.3,3.66a35.05,35.05,0,0,0-10.42,7.56,34.16,34.16,0,0,0-9.21,22.15A35.35,35.35,0,0,0,24.16,58.55Zm53,7a1.25,1.25,0,0,0-1.41.47c-.44.55-.8,1.18-1.22,1.75a35.86,35.86,0,0,1-2.75,3.33,41.3,41.3,0,0,1-6.44,5.37,1.24,1.24,0,0,0,.36,2.16,2.63,2.63,0,0,0,1.76-.41,20,20,0,0,0,2.07-1.12,20.74,20.74,0,0,0,5.84-4.93,15.07,15.07,0,0,0,2-3.4C77.79,67.81,78.56,66,77.16,65.53ZM79.3,24.59a11.88,11.88,0,0,0-1.72-3.65,19.16,19.16,0,0,0-5.69-5.24,20.61,20.61,0,0,0-4.11-2,14.58,14.58,0,0,0-2-.57,1.13,1.13,0,0,0-1.33.63,1.12,1.12,0,0,0,.49,1.4c.66.41,1.35.77,2,1.18A35.74,35.74,0,0,1,70.56,19,39.93,39.93,0,0,1,77,25.82a1.33,1.33,0,0,0,1.83.27A1.36,1.36,0,0,0,79.3,24.59Zm-3.35,56c-.61,0-1,.49-1.44.86-1,.86-2.07,1.68-3.16,2.45a42.73,42.73,0,0,1-7.22,4.06A45.38,45.38,0,0,1,47.5,91.87q-2.18.09-4.37,0a5,5,0,0,0-1.92,0A1.26,1.26,0,0,0,40.45,93c0,1.34,1.69,1.37,2.6,1.46,1.42.13,2.91.23,4.34.27a47.25,47.25,0,0,0,16.54-2.81A25.71,25.71,0,0,0,71,88.26c2.23-1.64,4.45-3.27,5.91-5.64a1.35,1.35,0,0,0,.2-1.22A1.25,1.25,0,0,0,75.95,80.58ZM4.05,59.17a55.71,55.71,0,0,1-.71-6.36c0-1.2.41-1.44.65-.35v0a34.63,34.63,0,0,0,6.61,14,28.88,28.88,0,0,0,3.57,3.7c.57.5,1.31.86,2,.25s.32-1.38-.08-2a70.05,70.05,0,0,1-5-9.22c-.63-1.42-1.19-2.88-1.69-4.36C9.08,53.7,9,53.06,9.17,53s.58.67,1.16,1.72c.28.55.57,1.1.89,1.64A36.88,36.88,0,0,0,24.31,69.54a35.18,35.18,0,0,0,8.51,3.72q1.35.39,2.74.68a3.76,3.76,0,0,0,2.3.09,1.61,1.61,0,0,0-.3-3,37,37,0,0,1-11.19-4.88,35,35,0,0,1-9.11-8.82,38.82,38.82,0,0,1-6.7-25.89,36.36,36.36,0,0,1,3.87-13c.24-.46.5-.92.75-1.38a.93.93,0,0,0-.11-1.25c-.77-.62-1.58.43-2.07.91a46.62,46.62,0,0,0-4.22,4.77A44.81,44.81,0,0,0,2.51,32.85,40.88,40.88,0,0,0,0,46.16a47.19,47.19,0,0,0,.34,7.15,53,53,0,0,0,1.36,6.75c.2.77.57,1.68,1.56,1.49C4.51,61.32,4.2,60,4.05,59.17Z"/></g></g></svg>