<?xml version="1.0" encoding="UTF-8" standalone="no"?>
<svg width="24px" height="24px" viewBox="0 0 24 24" version="1.1" xmlns="http://www.w3.org/2000/svg" xmlns:xlink="http://www.w3.org/1999/xlink">
    <!-- Generator: Sketch 3.6.1 (26313) - http://www.bohemiancoding.com/sketch -->
    <title>Fill 226</title>
    <desc>Created with Sketch.</desc>
    <defs>
        <path d="M1266.33333,26 L1266.12,26.04 L1259,28.8 L1251,26 L1243.48,28.5333333 C1243.2,28.6266667 1243,28.8666667 1243,29.1733333 L1243,49.3333333 C1243,49.7066667 1243.29333,50 1243.66667,50 L1243.88,49.96 L1251,47.2 L1259,50 L1266.52,47.4666667 C1266.8,47.3733333 1267,47.1333333 1267,46.8266667 L1267,26.6666667 C1267,26.2933333 1266.70667,26 1266.33333,26 L1266.33333,26 Z M1259,47.3333333 L1251,44.52 L1251,28.6666667 L1259,31.48 L1259,47.3333333 L1259,47.3333333 Z" id="path-1"></path>
    </defs>
    <g id="Stickersheet" stroke="none" stroke-width="1" fill="none" fill-rule="evenodd">
        <g id="DESK-DADOS" transform="translate(-1237.000000, -26.000000)">
            <g id="Menu" transform="translate(-6.000000, 0.000000)">
                <g id="Fill-226">
                    <use fill="#9C0009" fill-rule="evenodd" xlink:href="#path-1"></use>
                    <use fill="none" xlink:href="#path-1"></use>
                </g>
            </g>
        </g>
    </g>
</svg>