<?xml version="1.0" encoding="UTF-8" standalone="no"?>
<svg width="17px" height="21px" viewBox="0 0 17 21" version="1.1" xmlns="http://www.w3.org/2000/svg" xmlns:xlink="http://www.w3.org/1999/xlink">
    <!-- Generator: Sketch 39.1 (31720) - http://www.bohemiancoding.com/sketch -->
    <title>publicaçõesicon-</title>
    <desc>Created with Sketch.</desc>
    <defs></defs>
    <g id="Stickersheet" stroke="none" stroke-width="1" fill="none" fill-rule="evenodd">
        <g id="MENU" transform="translate(-19.000000, -151.000000)">
            <g id="menu-lateral">
                <g id="icones" transform="translate(14.000000, 97.000000)">
                    <g id="publicações" transform="translate(1.000000, 53.000000)">
                        <path d="M14.5,1 L6.1,1 C4.945,1 4.0105,1.945 4.0105,3.1 L4,19.9 C4,21.055 4.9345,22 6.0895,22 L18.7,22 C19.855,22 20.8,21.055 20.8,19.9 L20.8,7.3 L14.5,1 L14.5,1 Z M8.2,15.7 L16.6,15.7 L16.6,17.8 L8.2,17.8 L8.2,15.7 Z M8.2,11.5 L16.6,11.5 L16.6,13.6 L8.2,13.6 L8.2,11.5 Z M13.45,8.35 L13.45,2.575 L19.225,8.35 L13.45,8.35 L13.45,8.35 Z" id="Fill-159" fill="#EA702E"></path>
                        <rect id="Rectangle-436" x="0" y="0" width="24" height="24"></rect>
                    </g>
                </g>
            </g>
        </g>
    </g>
</svg>